<?xml version="1.0" encoding="UTF-8" standalone="no"?>
<svg
   xmlns:dc="http://purl.org/dc/elements/1.1/"
   xmlns:cc="http://creativecommons.org/ns#"
   xmlns:rdf="http://www.w3.org/1999/02/22-rdf-syntax-ns#"
   xmlns:svg="http://www.w3.org/2000/svg"
   xmlns="http://www.w3.org/2000/svg"
   xmlns:sodipodi="http://sodipodi.sourceforge.net/DTD/sodipodi-0.dtd"
   xmlns:inkscape="http://www.inkscape.org/namespaces/inkscape"
   width="307.92728mm"
   height="121.97601mm"
   viewBox="0 0 307.92728 121.97601"
   version="1.1"
   id="svg8"
   inkscape:version="1.0.2-2 (e86c870879, 2021-01-15)"
   sodipodi:docname="borders.svg">
  <defs
     id="defs2">
    <marker
       id="DistanceX"
       orient="auto"
       refX="0"
       refY="0"
       style="overflow:visible">
      <path
         d="M 3,-3 -3,3 M 0,-5 V 5"
         style="stroke:#000000;stroke-width:0.5"
         id="path833" />
    </marker>
    <pattern
       id="Hatch"
       patternUnits="userSpaceOnUse"
       width="8"
       height="8"
       x="0"
       y="0">
      <path
         d="M8 4 l-4,4"
         stroke="#000000"
         stroke-width="0.25"
         linecap="square"
         id="path836" />
      <path
         d="M6 2 l-4,4"
         stroke="#000000"
         stroke-width="0.25"
         linecap="square"
         id="path838" />
      <path
         d="M4 0 l-4,4"
         stroke="#000000"
         stroke-width="0.25"
         linecap="square"
         id="path840" />
    </pattern>
    <symbol
       id="*MODEL_SPACE" />
    <symbol
       id="*PAPER_SPACE" />
    <marker
       id="DistanceX-0"
       orient="auto"
       refX="0"
       refY="0"
       style="overflow:visible">
      <path
         d="M 3,-3 -3,3 M 0,-5 V 5"
         style="stroke:#000000;stroke-width:0.5"
         id="path6419" />
    </marker>
    <pattern
       id="Hatch-7"
       patternUnits="userSpaceOnUse"
       width="8"
       height="8"
       x="0"
       y="0">
      <path
         d="M8 4 l-4,4"
         stroke="#000000"
         stroke-width="0.25"
         linecap="square"
         id="path6422" />
      <path
         d="M6 2 l-4,4"
         stroke="#000000"
         stroke-width="0.25"
         linecap="square"
         id="path6424" />
      <path
         d="M4 0 l-4,4"
         stroke="#000000"
         stroke-width="0.25"
         linecap="square"
         id="path6426" />
    </pattern>
    <symbol
       id="*MODEL_SPACE-0" />
    <symbol
       id="*PAPER_SPACE-9" />
    <marker
       id="DistanceX-2"
       orient="auto"
       refX="0"
       refY="0"
       style="overflow:visible">
      <path
         d="M 3,-3 -3,3 M 0,-5 V 5"
         style="stroke:#000000;stroke-width:0.5"
         id="path6995" />
    </marker>
    <pattern
       id="Hatch-2"
       patternUnits="userSpaceOnUse"
       width="8"
       height="8"
       x="0"
       y="0">
      <path
         d="M8 4 l-4,4"
         stroke="#000000"
         stroke-width="0.25"
         linecap="square"
         id="path6998" />
      <path
         d="M6 2 l-4,4"
         stroke="#000000"
         stroke-width="0.25"
         linecap="square"
         id="path7000" />
      <path
         d="M4 0 l-4,4"
         stroke="#000000"
         stroke-width="0.25"
         linecap="square"
         id="path7002" />
    </pattern>
    <symbol
       id="*MODEL_SPACE-2" />
    <symbol
       id="*PAPER_SPACE-4" />
    <marker
       id="DistanceX-1"
       orient="auto"
       refX="0"
       refY="0"
       style="overflow:visible">
      <path
         d="M 3,-3 -3,3 M 0,-5 V 5"
         style="stroke:#000000;stroke-width:0.5"
         id="path7847" />
    </marker>
    <pattern
       id="Hatch-1"
       patternUnits="userSpaceOnUse"
       width="8"
       height="8"
       x="0"
       y="0">
      <path
         d="M8 4 l-4,4"
         stroke="#000000"
         stroke-width="0.25"
         linecap="square"
         id="path7850" />
      <path
         d="M6 2 l-4,4"
         stroke="#000000"
         stroke-width="0.25"
         linecap="square"
         id="path7852" />
      <path
         d="M4 0 l-4,4"
         stroke="#000000"
         stroke-width="0.25"
         linecap="square"
         id="path7854" />
    </pattern>
    <symbol
       id="*MODEL_SPACE-4" />
    <symbol
       id="*PAPER_SPACE-8" />
  </defs>
  <sodipodi:namedview
     id="base"
     pagecolor="#ffffff"
     bordercolor="#666666"
     borderopacity="1.0"
     inkscape:pageopacity="0.0"
     inkscape:pageshadow="2"
     inkscape:zoom="0.69546315"
     inkscape:cx="439.1715"
     inkscape:cy="292.63931"
     inkscape:document-units="mm"
     inkscape:current-layer="g9981"
     inkscape:document-rotation="0"
     showgrid="false"
     inkscape:window-width="1920"
     inkscape:window-height="1137"
     inkscape:window-x="-8"
     inkscape:window-y="-8"
     inkscape:window-maximized="1"
     fit-margin-top="0"
     fit-margin-left="0"
     fit-margin-right="0"
     fit-margin-bottom="0" />
  <metadata
     id="metadata5">
    <rdf:RDF>
      <cc:Work
         rdf:about="">
        <dc:format>image/svg+xml</dc:format>
        <dc:type
           rdf:resource="http://purl.org/dc/dcmitype/StillImage" />
        <dc:title></dc:title>
      </cc:Work>
    </rdf:RDF>
  </metadata>
  <g
     inkscape:label="Layer 1"
     inkscape:groupmode="layer"
     id="layer1"
     transform="translate(-312.68049,0.04062721)">
    <g
       id="g6417">
      <g
         id="g9981">
        <path
           d="m 696.71046,1092.5809 h -4.4062"
           style="fill:none;stroke:#ff0000;stroke-opacity:1"
           id="path1059-7"
           transform="matrix(0.26458333,0,0,0.26458333,149.65532,-243.54088)" />
        <path
           d="m 696.71046,1070.2684 c 1.75,-1.4063 3.28906,-2.3985 4.61719,-2.9766"
           style="fill:none;stroke:#ff0000;stroke-opacity:1"
           id="path1065-3"
           transform="matrix(0.26458333,0,0,0.26458333,149.65532,-243.54088)" />
        <path
           d="m 696.71046,1066.4012 v 3.8672"
           style="fill:none;stroke:#ff0000;stroke-opacity:1"
           id="path1075-2"
           transform="matrix(0.26458333,0,0,0.26458333,149.65532,-243.54088)" />
        <path
           d="m 700.36676,1071.6746 c -1.26567,0.5938 -2.48444,1.3672 -3.6563,2.3203"
           style="fill:none;stroke:#ff0000;stroke-opacity:1"
           id="path1087-6"
           transform="matrix(0.26458333,0,0,0.26458333,149.65532,-243.54088)" />
        <path
           d="m 696.71046,1073.9949 v 18.586"
           style="fill:none;stroke:#ff0000;stroke-opacity:1"
           id="path1089-9"
           transform="matrix(0.26458333,0,0,0.26458333,149.65532,-243.54088)" />
        <path
           d="m 692.30426,1066.4012 h 4.4062"
           style="fill:none;stroke:#ff0000;stroke-opacity:1"
           id="path1091-3"
           transform="matrix(0.26458333,0,0,0.26458333,149.65532,-243.54088)" />
        <path
           d="m 706.48395,1070.8777 c -0.6094,-0.078 -1.33596,-0.1172 -2.1797,-0.1172"
           style="fill:none;stroke:#ff0000;stroke-opacity:1"
           id="path1093-1"
           transform="matrix(0.26458333,0,0,0.26458333,149.65532,-243.54088)" />
        <path
           d="m 708.64015,1071.2059 h -0.2344"
           style="fill:none;stroke:#ff0000;stroke-opacity:1"
           id="path1097-1"
           transform="matrix(0.26458333,0,0,0.26458333,149.65532,-243.54088)" />
        <path
           d="m 707.09325,1066.4715 c 0.3438,0.031 0.85944,0.1015 1.5469,0.2109"
           style="fill:none;stroke:#ff0000;stroke-opacity:1"
           id="path1105-7"
           transform="matrix(0.26458333,0,0,0.26458333,149.65532,-243.54088)" />
        <path
           d="m 704.30425,1070.7605 c -1.3594,0 -2.6719,0.3047 -3.93749,0.9141"
           style="fill:none;stroke:#ff0000;stroke-opacity:1"
           id="path1109-3"
           transform="matrix(0.26458333,0,0,0.26458333,149.65532,-243.54088)" />
        <path
           d="m 708.40575,1071.2059 c -0.6562,-0.1563 -1.2968,-0.2657 -1.9218,-0.3282"
           style="fill:none;stroke:#ff0000;stroke-opacity:1"
           id="path1113-4"
           transform="matrix(0.26458333,0,0,0.26458333,149.65532,-243.54088)" />
        <path
           d="m 705.42926,1066.4012 c 0.76559,0 1.32026,0.023 1.66399,0.07"
           style="fill:none;stroke:#ff0000;stroke-opacity:1"
           id="path1125-1"
           transform="matrix(0.26458333,0,0,0.26458333,149.65532,-243.54088)" />
        <path
           d="m 692.30426,1092.5809 v -26.1797"
           style="fill:none;stroke:#ff0000;stroke-opacity:1"
           id="path1127-0"
           transform="matrix(0.26458333,0,0,0.26458333,149.65532,-243.54088)" />
        <path
           d="m 701.32765,1067.2918 c 1.34374,-0.5938 2.71094,-0.8906 4.10161,-0.8906"
           style="fill:none;stroke:#ff0000;stroke-opacity:1"
           id="path1133-9"
           transform="matrix(0.26458333,0,0,0.26458333,149.65532,-243.54088)" />
        <path
           d="m 708.64015,1066.6824 v 4.5235"
           style="fill:none;stroke:#ff0000;stroke-opacity:1"
           id="path1135-7"
           transform="matrix(0.26458333,0,0,0.26458333,149.65532,-243.54088)" />
        <g
           id="g7843"
           transform="translate(518.23007,38.437157)">
          <g
             inkscape:label="0"
             id="g7407"
             transform="matrix(0.26458333,0,0,0.26458333,-55.894258,-282.01863)">
            <path
               d="m -535.51611,944.04896 -1.05476,0.10603"
               style="fill:none;stroke:#000000"
               id="path7009" />
            <path
               d="m -536.57087,944.15499 -1.30143,0.403"
               style="fill:none;stroke:#000000"
               id="path7011" />
            <path
               d="m -537.8723,944.55799 -1.17755,0.63812"
               style="fill:none;stroke:#000000"
               id="path7013" />
            <path
               d="m -539.04985,945.19611 -1.02123,0.84183"
               style="fill:none;stroke:#000000"
               id="path7015" />
            <path
               d="m -540.07108,946.03794 -0.8395,1.01707"
               style="fill:none;stroke:#000000"
               id="path7017" />
            <path
               d="m -540.91058,947.05501 -0.63251,1.1652"
               style="fill:none;stroke:#000000"
               id="path7019" />
            <path
               d="m -541.54309,948.22021 -0.39781,1.28142"
               style="fill:none;stroke:#000000"
               id="path7021" />
            <path
               d="m -541.9409,949.50163 -0.13205,1.29047"
               style="fill:none;stroke:#000000"
               id="path7023" />
            <path
               d="m -535.51611,933.60432 v 10.44464"
               style="fill:none;stroke:#000000"
               id="path7025" />
            <path
               d="m -533.62635,931.71456 a 1.889764,1.889764 0 0 0 -1.88976,1.88976"
               style="fill:none;stroke:#000000"
               id="path7027" />
            <path
               d="m -520.62925,920.97488 v 10.73968"
               style="fill:none;stroke:#000000"
               id="path7029" />
            <path
               d="m -538.66972,920.97488 a 26.456693,26.456693 0 0 0 -26.4567,26.45669"
               style="fill:none;stroke:#000000"
               id="path7031" />
            <path
               d="M -565.12642,1098.5731 V 947.43157"
               style="fill:none;stroke:#000000"
               id="path7033" />
            <path
               d="m -542.07295,950.7921 -0.22234,155.5662"
               style="fill:none;stroke:#000000"
               id="path7035" />
            <path
               d="m -546.6076,950.23474 a 6.2362205,6.2362205 0 1 0 -12.47244,0 6.2362205,6.2362205 0 1 0 12.47244,0 z"
               style="fill:none;stroke:#000000"
               id="path7037" />
            <path
               d="m -546.80249,1086.5958 a 6.2362205,6.2362205 0 1 0 -12.47244,0 6.2362205,6.2362205 0 1 0 12.47244,0 z"
               style="fill:none;stroke:#000000"
               id="path7039" />
            <path
               d="m -520.62925,931.71456 h -12.9971"
               style="fill:none;stroke:#000000"
               id="path7041" />
            <path
               d="m -542.29529,1106.3583 c -3.77449,-1.1007 -7.64917,-2.2292 -11.41573,-3.3255 -3.41965,-0.9952 -6.89703,-2.0065 -10.32426,-3.0028"
               style="fill:none;stroke:#000000"
               id="path7043" />
            <path
               d="m -564.03528,1100.03 c -0.12311,-0.036 -0.24115,-0.087 -0.35128,-0.1528 -0.11021,-0.066 -0.21161,-0.1451 -0.30178,-0.2364 -0.13899,-0.1407 -0.2491,-0.3073 -0.3242,-0.4903 -0.0752,-0.1832 -0.11388,-0.3793 -0.11388,-0.5774"
               style="fill:none;stroke:#000000"
               id="path7045" />
            <path
               d="m -538.66972,920.97488 h 18.04047"
               style="fill:none;stroke:#000000"
               id="path7047" />
            <path
               d="m -565.12642,1146.8069 c 0,-0.1293 0.0165,-0.2581 0.049,-0.3832 0.0325,-0.125 0.0809,-0.2454 0.14394,-0.3583 0.0961,-0.1721 0.22485,-0.3238 0.37905,-0.4466 0.15367,-0.1224 0.32971,-0.2136 0.51831,-0.2686"
               style="fill:none;stroke:#000000"
               id="path7049" />
            <path
               d="m -564.03608,1145.3502 c 3.42005,-0.9962 6.8899,-2.0075 10.30239,-3.0026 3.75886,-1.0962 7.62501,-2.2246 11.39172,-3.3253"
               style="fill:none;stroke:#000000"
               id="path7051" />
            <path
               d="m -468.09382,920.97488 h 143.4714"
               style="fill:none;stroke:#000000"
               id="path7053" />
            <path
               d="m -433.54894,933.2463 a 6.2362205,6.2362205 0 1 0 -12.47244,0 6.2362205,6.2362205 0 1 0 12.47244,0 z"
               style="fill:none;stroke:#000000"
               id="path7055" />
            <path
               d="m -417.27739,1339.5834 a 6.2362205,6.2362205 0 1 0 -12.47244,0 6.2362205,6.2362205 0 1 0 12.47244,0 z"
               style="fill:none;stroke:#000000"
               id="path7057" />
            <path
               d="m -92.914072,1283.9803 a 6.2362205,6.2362205 0 1 0 -12.472438,0 6.2362205,6.2362205 0 1 0 12.472438,0 z"
               style="fill:none;stroke:#000000"
               id="path7059" />
            <path
               d="m -99.305946,946.55155 a 6.236222,6.236222 0 1 0 -12.472444,0 6.236222,6.236222 0 1 0 12.472444,0 z"
               style="fill:none;stroke:#000000"
               id="path7061" />
            <path
               d="m -546.91295,1163.8872 a 6.2362205,6.2362205 0 1 0 -12.47244,0 6.2362205,6.2362205 0 1 0 12.47244,0 z"
               style="fill:none;stroke:#000000"
               id="path7063" />
            <path
               d="m 6.236838,1122.5197 a 6.2362205,6.2362205 0 1 0 -12.472441,0 6.2362205,6.2362205 0 1 0 12.472441,0 z"
               style="fill:none;stroke:#000000"
               id="path7065" />
            <path
               d="M -468.09382,931.71456 V 920.97488"
               style="fill:none;stroke:#000000"
               id="path7067" />
            <path
               d="M -18.89197,947.95544 A 1745.6839,1745.6839 0 0 0 -324.62242,920.97488"
               style="fill:none;stroke:#000000"
               id="path7069" />
            <path
               d="M 12.284028,985.16657 A 37.795276,37.795276 0 0 0 -18.89197,947.95544"
               style="fill:none;stroke:#000000"
               id="path7071" />
            <path
               d="M 12.284028,985.16657 V 1258.4686"
               style="fill:none;stroke:#000000"
               id="path7073" />
            <path
               d="m -25.511248,1296.2638 a 37.795276,37.795276 0 0 0 37.795276,-37.7952"
               style="fill:none;stroke:#000000"
               id="path7075" />
            <path
               d="M -25.511248,1296.2638 H -129.49014"
               style="fill:none;stroke:#000000"
               id="path7077" />
            <path
               d="m -129.49014,1296.2638 a 37.795276,37.795276 0 0 0 -34.69912,22.8135"
               style="fill:none;stroke:#000000"
               id="path7079" />
            <path
               d="m -214.06195,1351.8669 a 54.322771,54.322771 0 0 0 49.87269,-32.7896"
               style="fill:none;stroke:#000000"
               id="path7081" />
            <path
               d="M -214.06195,1351.8669 H -410.06393"
               style="fill:none;stroke:#000000"
               id="path7083" />
            <path
               d="m -410.06393,1351.8669 a 37.795276,37.795276 0 0 0 -18.93558,5.0855"
               style="fill:none;stroke:#000000"
               id="path7085" />
            <path
               d="m -428.99951,1356.9524 -35.35459,20.4667"
               style="fill:none;stroke:#000000"
               id="path7087" />
            <path
               d="m -500.52753,1367.7397 a 26.456693,26.456693 0 0 0 36.17343,9.6794"
               style="fill:none;stroke:#000000"
               id="path7089" />
            <path
               d="m -500.52753,1367.7397 -43.36984,-75.2022"
               style="fill:none;stroke:#000000"
               id="path7091" />
            <path
               d="m -565.12642,1213.2335 a 158.74016,158.74016 0 0 0 21.22905,79.304"
               style="fill:none;stroke:#000000"
               id="path7093" />
            <path
               d="m -565.12642,1213.2335 v -66.4266"
               style="fill:none;stroke:#000000"
               id="path7095" />
            <path
               d="m -542.34197,1139.0223 -0.13041,91.2414"
               style="fill:none;stroke:#000000"
               id="path7097" />
            <path
               d="m -542.47238,1230.2637 0.25681,4.7"
               style="fill:none;stroke:#000000"
               id="path7099" />
            <path
               d="m -542.21557,1234.9637 0.2486,3.1791"
               style="fill:none;stroke:#000000"
               id="path7101" />
            <path
               d="m -541.96697,1238.1428 0.50199,5.6788"
               style="fill:none;stroke:#000000"
               id="path7103" />
            <path
               d="m -541.46498,1243.8216 1.01953,5.0714"
               style="fill:none;stroke:#000000"
               id="path7105" />
            <path
               d="m -540.44545,1248.893 1.09354,4.1551"
               style="fill:none;stroke:#000000"
               id="path7107" />
            <path
               d="m -539.35191,1253.0481 2.28367,5.1823"
               style="fill:none;stroke:#000000"
               id="path7109" />
            <path
               d="m -537.06824,1258.2304 55.5956,96.4013"
               style="fill:none;stroke:#000000"
               id="path7111" />
            <path
               d="m -481.47264,1354.6317 0.71843,0.9179"
               style="fill:none;stroke:#000000"
               id="path7113" />
            <path
               d="m -480.75421,1355.5496 0.95557,0.8136"
               style="fill:none;stroke:#000000"
               id="path7115" />
            <path
               d="m -479.79864,1356.3632 1.17736,0.5872"
               style="fill:none;stroke:#000000"
               id="path7117" />
            <path
               d="m -478.62128,1356.9504 1.3096,0.2598"
               style="fill:none;stroke:#000000"
               id="path7119" />
            <path
               d="m -477.31168,1357.2102 1.2982,-0.083"
               style="fill:none;stroke:#000000"
               id="path7121" />
            <path
               d="m -476.01348,1357.1273 1.19209,-0.3545"
               style="fill:none;stroke:#000000"
               id="path7123" />
            <path
               d="m -474.82139,1356.7728 0.9527,-0.4853"
               style="fill:none;stroke:#000000"
               id="path7125" />
            <path
               d="m -473.86869,1356.2875 47.46213,-27.4757"
               style="fill:none;stroke:#000000"
               id="path7127" />
            <path
               d="M -426.40656,1328.8118 H -198.8844"
               style="fill:none;stroke:#000000"
               id="path7129" />
            <path
               d="m -198.8844,1328.8118 1.59669,-0.1607"
               style="fill:none;stroke:#000000"
               id="path7131" />
            <path
               d="m -197.28771,1328.6511 1.63924,-0.5083"
               style="fill:none;stroke:#000000"
               id="path7133" />
            <path
               d="m -195.64847,1328.1428 1.48172,-0.8037"
               style="fill:none;stroke:#000000"
               id="path7135" />
            <path
               d="m -194.16675,1327.3391 1.28814,-1.0626"
               style="fill:none;stroke:#000000"
               id="path7137" />
            <path
               d="m -192.87861,1326.2765 1.06258,-1.2882"
               style="fill:none;stroke:#000000"
               id="path7139" />
            <path
               d="m -191.81603,1324.9883 0.80373,-1.4817"
               style="fill:none;stroke:#000000"
               id="path7141" />
            <path
               d="m -191.0123,1323.5066 0.5047,-1.6276"
               style="fill:none;stroke:#000000"
               id="path7143" />
            <path
               d="m -190.5076,1321.879 0.16429,-1.5114"
               style="fill:none;stroke:#000000"
               id="path7145" />
            <path
               d="m -190.34331,1320.3676 0.004,-36.7398"
               style="fill:none;stroke:#000000"
               id="path7147" />
            <path
               d="m -190.33901,1283.6278 0.30224,-2.2264"
               style="fill:none;stroke:#000000"
               id="path7149" />
            <path
               d="m -190.03677,1281.4014 0.60763,-1.9596"
               style="fill:none;stroke:#000000"
               id="path7151" />
            <path
               d="m -189.42914,1279.4418 0.93757,-1.7285"
               style="fill:none;stroke:#000000"
               id="path7153" />
            <path
               d="m -188.49157,1277.7133 1.24404,-1.5081"
               style="fill:none;stroke:#000000"
               id="path7155" />
            <path
               d="m -187.24753,1276.2052 1.50811,-1.244"
               style="fill:none;stroke:#000000"
               id="path7157" />
            <path
               d="m -185.73942,1274.9612 1.72847,-0.9376"
               style="fill:none;stroke:#000000"
               id="path7159" />
            <path
               d="m -184.01095,1274.0236 1.90919,-0.592"
               style="fill:none;stroke:#000000"
               id="path7161" />
            <path
               d="m -182.10176,1273.4316 2.21426,-0.2229"
               style="fill:none;stroke:#000000"
               id="path7163" />
            <path
               d="m -179.8875,1273.2087 160.464573,-10e-5"
               style="fill:none;stroke:#000000"
               id="path7165" />
            <path
               d="m -19.422927,1273.2086 1.661321,-0.145"
               style="fill:none;stroke:#000000"
               id="path7167" />
            <path
               d="m -17.761606,1273.0636 1.658614,-0.5143"
               style="fill:none;stroke:#000000"
               id="path7169" />
            <path
               d="m -16.102992,1272.5493 1.481714,-0.8037"
               style="fill:none;stroke:#000000"
               id="path7171" />
            <path
               d="m -14.621278,1271.7456 1.288133,-1.0626"
               style="fill:none;stroke:#000000"
               id="path7173" />
            <path
               d="m -13.333145,1270.683 1.062589,-1.2881"
               style="fill:none;stroke:#000000"
               id="path7175" />
            <path
               d="m -12.270556,1269.3949 0.803732,-1.4818"
               style="fill:none;stroke:#000000"
               id="path7177" />
            <path
               d="m -11.466824,1267.9131 0.499811,-1.6119"
               style="fill:none;stroke:#000000"
               id="path7179" />
            <path
               d="m -10.967013,1266.3012 0.19603,-1.6384"
               style="fill:none;stroke:#000000"
               id="path7181" />
            <path
               d="m -10.770983,1264.6628 -1.06e-4,-283.41968"
               style="fill:none;stroke:#000000"
               id="path7183" />
            <path
               d="m -10.771089,981.24312 -0.987555,-3.45643"
               style="fill:none;stroke:#000000"
               id="path7185" />
            <path
               d="m -11.758644,977.78669 -1.830263,-3.15562"
               style="fill:none;stroke:#000000"
               id="path7187" />
            <path
               d="m -13.588907,974.63107 -3.032759,-2.65353"
               style="fill:none;stroke:#000000"
               id="path7189" />
            <path
               d="m -16.621666,971.97754 -3.488398,-1.68017"
               style="fill:none;stroke:#000000"
               id="path7191" />
            <path
               d="M -20.110064,970.29737 -194.98915,943.98746"
               style="fill:none;stroke:#000000"
               id="path7193" />
            <path
               d="m -194.98915,943.98746 -263.12672,0.0328"
               style="fill:none;stroke:#000000"
               id="path7195" />
            <path
               d="m -458.11587,944.02024 v -5.89656"
               style="fill:none;stroke:#000000"
               id="path7197" />
            <path
               d="m -458.11587,938.12368 a 1.889764,1.889764 0 0 0 -0.6098,-1.3903"
               style="fill:none;stroke:#000000"
               id="path7199" />
            <path
               d="m -458.72567,936.73338 -4.90891,-4.51935"
               style="fill:none;stroke:#000000"
               id="path7201" />
            <path
               d="m -463.63458,932.21403 a 1.889764,1.889764 0 0 0 -1.27996,-0.49947"
               style="fill:none;stroke:#000000"
               id="path7203" />
            <path
               d="m -464.91454,931.71456 h -3.17928"
               style="fill:none;stroke:#000000"
               id="path7205" />
            <path
               d="m 574.91612,1144.1191 c 3.76593,1.1009 7.63129,2.2293 11.38937,3.3257 3.4109,0.995 6.87912,2.0061 10.29757,3.0022"
               style="fill:none;stroke:#000000"
               id="path7207" />
            <path
               d="m 596.60306,1150.447 c 0.12293,0.036 0.2408,0.087 0.35077,0.1528 0.11006,0.066 0.21132,0.1449 0.30137,0.2361 0.13899,0.1407 0.2491,0.3073 0.3242,0.4903 0.0752,0.1832 0.11388,0.3793 0.11388,0.5774"
               style="fill:none;stroke:#000000"
               id="path7209" />
            <path
               d="m 574.91612,1144.1191 0.12311,86.139"
               style="fill:none;stroke:#000000"
               id="path7211" />
            <path
               d="m 144.34525,946.54603 a 6.236225,6.236225 0 1 0 -12.47245,0 6.236225,6.236225 0 1 0 12.47245,0 z"
               style="fill:none;stroke:#000000"
               id="path7213" />
            <path
               d="m 38.802463,1122.5142 a 6.2362205,6.2362205 0 1 0 -12.472441,0 6.2362205,6.2362205 0 1 0 12.472441,0 z"
               style="fill:none;stroke:#000000"
               id="path7215" />
            <path
               d="m 462.31669,1339.5779 a 6.2362205,6.2362205 0 1 0 -12.47244,0 6.2362205,6.2362205 0 1 0 12.47244,0 z"
               style="fill:none;stroke:#000000"
               id="path7217" />
            <path
               d="m 591.95225,1163.8816 a 6.23622,6.23622 0 1 0 -12.47244,0 6.23622,6.23622 0 1 0 12.47244,0 z"
               style="fill:none;stroke:#000000"
               id="path7219" />
            <path
               d="m 478.58824,933.24077 a 6.2362205,6.2362205 0 1 0 -12.47244,0 6.2362205,6.2362205 0 1 0 12.47244,0 z"
               style="fill:none;stroke:#000000"
               id="path7221" />
            <path
               d="m 137.95337,1283.9748 a 6.2362205,6.2362205 0 1 0 -12.47244,0 6.2362205,6.2362205 0 1 0 12.47244,0 z"
               style="fill:none;stroke:#000000"
               id="path7223" />
            <path
               d="m 597.69328,1213.2279 v -61.3243"
               style="fill:none;stroke:#000000"
               id="path7225" />
            <path
               d="m 576.46423,1292.532 a 158.74016,158.74016 0 0 0 21.22905,-79.3041"
               style="fill:none;stroke:#000000"
               id="path7227" />
            <path
               d="m 533.09439,1367.7341 43.36984,-75.2021"
               style="fill:none;stroke:#000000"
               id="path7229" />
            <path
               d="m 496.92096,1377.4136 a 26.456693,26.456693 0 0 0 36.17343,-9.6795"
               style="fill:none;stroke:#000000"
               id="path7231" />
            <path
               d="m 461.56637,1356.9469 35.35459,20.4667"
               style="fill:none;stroke:#000000"
               id="path7233" />
            <path
               d="m 461.56637,1356.9469 a 37.795276,37.795276 0 0 0 -18.93558,-5.0855"
               style="fill:none;stroke:#000000"
               id="path7235" />
            <path
               d="M 246.62881,1351.8614 H 442.63079"
               style="fill:none;stroke:#000000"
               id="path7237" />
            <path
               d="m 196.75612,1319.0718 a 54.322771,54.322771 0 0 0 49.87269,32.7896"
               style="fill:none;stroke:#000000"
               id="path7239" />
            <path
               d="M 196.75612,1319.0718 A 37.795276,37.795276 0 0 0 162.057,1296.2583"
               style="fill:none;stroke:#000000"
               id="path7241" />
            <path
               d="M 58.078108,1296.2583 H 162.057"
               style="fill:none;stroke:#000000"
               id="path7243" />
            <path
               d="m 20.282832,1258.463 a 37.795276,37.795276 0 0 0 37.795276,37.7953"
               style="fill:none;stroke:#000000"
               id="path7245" />
            <path
               d="M 20.282832,985.16104 V 1258.463"
               style="fill:none;stroke:#000000"
               id="path7247" />
            <path
               d="M 51.45883,947.94992 A 37.795276,37.795276 0 0 0 20.282832,985.16104"
               style="fill:none;stroke:#000000"
               id="path7249" />
            <path
               d="M 357.18928,920.96935 A 1745.6839,1745.6839 0 0 0 51.45883,947.94992"
               style="fill:none;stroke:#000000"
               id="path7251" />
            <path
               d="M 505.56959,920.96935 H 357.18928"
               style="fill:none;stroke:#000000"
               id="path7253" />
            <path
               d="m 505.56959,920.96935 v 10.73968"
               style="fill:none;stroke:#000000"
               id="path7255" />
            <path
               d="m 497.4814,931.70903 h 8.08819"
               style="fill:none;stroke:#000000"
               id="path7257" />
            <path
               d="m 497.4814,931.70903 a 1.889764,1.889764 0 0 0 -1.27997,0.49948"
               style="fill:none;stroke:#000000"
               id="path7259" />
            <path
               d="m 491.29253,936.72786 4.9089,-4.51935"
               style="fill:none;stroke:#000000"
               id="path7261" />
            <path
               d="m 491.29253,936.72786 a 1.889764,1.889764 0 0 0 -0.60981,1.39029"
               style="fill:none;stroke:#000000"
               id="path7263" />
            <path
               d="m 490.68272,944.01471 v -5.89656"
               style="fill:none;stroke:#000000"
               id="path7265" />
            <path
               d="m 227.55601,943.98193 263.12671,0.0328"
               style="fill:none;stroke:#000000"
               id="path7267" />
            <path
               d="M 52.676923,970.29185 227.55601,943.98193"
               style="fill:none;stroke:#000000"
               id="path7269" />
            <path
               d="m 49.188526,971.97201 3.488397,-1.68016"
               style="fill:none;stroke:#000000"
               id="path7271" />
            <path
               d="m 46.155767,974.62555 3.032759,-2.65354"
               style="fill:none;stroke:#000000"
               id="path7273" />
            <path
               d="m 44.325503,977.78117 1.830264,-3.15562"
               style="fill:none;stroke:#000000"
               id="path7275" />
            <path
               d="m 43.337949,981.2376 0.987554,-3.45643"
               style="fill:none;stroke:#000000"
               id="path7277" />
            <path
               d="m 43.337842,1264.6573 1.07e-4,-283.4197"
               style="fill:none;stroke:#000000"
               id="path7279" />
            <path
               d="m 43.533872,1266.2957 -0.19603,-1.6384"
               style="fill:none;stroke:#000000"
               id="path7281" />
            <path
               d="m 44.033684,1267.9076 -0.499812,-1.6119"
               style="fill:none;stroke:#000000"
               id="path7283" />
            <path
               d="m 44.837416,1269.3893 -0.803732,-1.4817"
               style="fill:none;stroke:#000000"
               id="path7285" />
            <path
               d="m 45.900005,1270.6775 -1.062589,-1.2882"
               style="fill:none;stroke:#000000"
               id="path7287" />
            <path
               d="m 47.188138,1271.7401 -1.288133,-1.0626"
               style="fill:none;stroke:#000000"
               id="path7289" />
            <path
               d="m 48.669852,1272.5438 -1.481714,-0.8037"
               style="fill:none;stroke:#000000"
               id="path7291" />
            <path
               d="m 50.328465,1273.0581 -1.658613,-0.5143"
               style="fill:none;stroke:#000000"
               id="path7293" />
            <path
               d="m 51.989786,1273.2031 -1.661321,-0.145"
               style="fill:none;stroke:#000000"
               id="path7295" />
            <path
               d="m 212.45436,1273.2032 -160.464574,-10e-5"
               style="fill:none;stroke:#000000"
               id="path7297" />
            <path
               d="m 214.66862,1273.4261 -2.21426,-0.2229"
               style="fill:none;stroke:#000000"
               id="path7299" />
            <path
               d="m 216.57781,1274.0181 -1.90919,-0.592"
               style="fill:none;stroke:#000000"
               id="path7301" />
            <path
               d="m 218.30628,1274.9556 -1.72847,-0.9375"
               style="fill:none;stroke:#000000"
               id="path7303" />
            <path
               d="m 219.81439,1276.1997 -1.50811,-1.2441"
               style="fill:none;stroke:#000000"
               id="path7305" />
            <path
               d="m 221.05843,1277.7078 -1.24404,-1.5081"
               style="fill:none;stroke:#000000"
               id="path7307" />
            <path
               d="m 221.996,1279.4363 -0.93757,-1.7285"
               style="fill:none;stroke:#000000"
               id="path7309" />
            <path
               d="m 222.60363,1281.3958 -0.60763,-1.9595"
               style="fill:none;stroke:#000000"
               id="path7311" />
            <path
               d="m 222.90587,1283.6223 -0.30224,-2.2265"
               style="fill:none;stroke:#000000"
               id="path7313" />
            <path
               d="m 222.91017,1320.362 -0.004,-36.7397"
               style="fill:none;stroke:#000000"
               id="path7315" />
            <path
               d="m 223.07446,1321.8735 -0.16429,-1.5115"
               style="fill:none;stroke:#000000"
               id="path7317" />
            <path
               d="m 223.57916,1323.5011 -0.5047,-1.6276"
               style="fill:none;stroke:#000000"
               id="path7319" />
            <path
               d="m 224.38289,1324.9828 -0.80373,-1.4817"
               style="fill:none;stroke:#000000"
               id="path7321" />
            <path
               d="m 225.44547,1326.2709 -1.06258,-1.2881"
               style="fill:none;stroke:#000000"
               id="path7323" />
            <path
               d="m 226.73361,1327.3335 -1.28814,-1.0626"
               style="fill:none;stroke:#000000"
               id="path7325" />
            <path
               d="m 228.21533,1328.1373 -1.48172,-0.8038"
               style="fill:none;stroke:#000000"
               id="path7327" />
            <path
               d="m 229.85457,1328.6456 -1.63924,-0.5083"
               style="fill:none;stroke:#000000"
               id="path7329" />
            <path
               d="m 231.45126,1328.8063 -1.59669,-0.1607"
               style="fill:none;stroke:#000000"
               id="path7331" />
            <path
               d="M 458.97342,1328.8063 H 231.45126"
               style="fill:none;stroke:#000000"
               id="path7333" />
            <path
               d="m 506.43555,1356.282 -47.46213,-27.4757"
               style="fill:none;stroke:#000000"
               id="path7335" />
            <path
               d="m 507.38825,1356.7673 -0.9527,-0.4853"
               style="fill:none;stroke:#000000"
               id="path7337" />
            <path
               d="m 508.58033,1357.1218 -1.19208,-0.3545"
               style="fill:none;stroke:#000000"
               id="path7339" />
            <path
               d="m 509.87854,1357.2047 -1.29821,-0.083"
               style="fill:none;stroke:#000000"
               id="path7341" />
            <path
               d="m 511.18814,1356.9449 -1.3096,0.2598"
               style="fill:none;stroke:#000000"
               id="path7343" />
            <path
               d="m 512.3655,1356.3577 -1.17736,0.5872"
               style="fill:none;stroke:#000000"
               id="path7345" />
            <path
               d="m 513.32107,1355.544 -0.95557,0.8137"
               style="fill:none;stroke:#000000"
               id="path7347" />
            <path
               d="m 514.0395,1354.6262 -0.71843,0.9178"
               style="fill:none;stroke:#000000"
               id="path7349" />
            <path
               d="m 569.6351,1258.2249 -55.5956,96.4013"
               style="fill:none;stroke:#000000"
               id="path7351" />
            <path
               d="m 571.91877,1253.0426 -2.28367,5.1823"
               style="fill:none;stroke:#000000"
               id="path7353" />
            <path
               d="m 573.01231,1248.8875 -1.09354,4.1551"
               style="fill:none;stroke:#000000"
               id="path7355" />
            <path
               d="m 574.03184,1243.8161 -1.01953,5.0714"
               style="fill:none;stroke:#000000"
               id="path7357" />
            <path
               d="m 574.53383,1238.1373 -0.50199,5.6788"
               style="fill:none;stroke:#000000"
               id="path7359" />
            <path
               d="m 574.78243,1234.9581 -0.2486,3.1792"
               style="fill:none;stroke:#000000"
               id="path7361" />
            <path
               d="m 575.03923,1230.2581 -0.2568,4.7"
               style="fill:none;stroke:#000000"
               id="path7363" />
            <path
               d="m 597.69328,947.42605 a 26.456693,26.456693 0 0 0 -26.4567,-26.4567"
               style="fill:none;stroke:#000000"
               id="path7365" />
            <path
               d="m 568.08297,933.5988 a 1.889764,1.889764 0 0 0 -1.88976,-1.88977"
               style="fill:none;stroke:#000000"
               id="path7367" />
            <path
               d="m 568.08297,933.5988 v 10.44463"
               style="fill:none;stroke:#000000"
               id="path7369" />
            <path
               d="M 558.10502,931.70903 V 920.96935"
               style="fill:none;stroke:#000000"
               id="path7371" />
            <path
               d="m 568.08297,944.04343 1.05476,0.10603"
               style="fill:none;stroke:#000000"
               id="path7373" />
            <path
               d="m 569.13773,944.14946 1.30143,0.40301"
               style="fill:none;stroke:#000000"
               id="path7375" />
            <path
               d="m 570.43916,944.55247 1.17755,0.63812"
               style="fill:none;stroke:#000000"
               id="path7377" />
            <path
               d="m 571.61671,945.19059 1.02123,0.84183"
               style="fill:none;stroke:#000000"
               id="path7379" />
            <path
               d="m 572.63794,946.03242 0.8395,1.01706"
               style="fill:none;stroke:#000000"
               id="path7381" />
            <path
               d="m 573.47744,947.04948 0.63251,1.1652"
               style="fill:none;stroke:#000000"
               id="path7383" />
            <path
               d="m 574.10995,948.21468 0.39781,1.28143"
               style="fill:none;stroke:#000000"
               id="path7385" />
            <path
               d="m 574.50776,949.49611 0.13205,1.29046"
               style="fill:none;stroke:#000000"
               id="path7387" />
            <path
               d="m 574.98076,1111.4552 -0.11127,0.033"
               style="fill:none;stroke:#000000"
               id="path7389" />
            <path
               d="m 574.63981,950.78657 0.22968,160.70123"
               style="fill:none;stroke:#000000"
               id="path7391" />
            <path
               d="m 558.10502,931.70903 h 8.08819"
               style="fill:none;stroke:#000000"
               id="path7393" />
            <path
               d="M 571.23658,920.96935 H 558.10502"
               style="fill:none;stroke:#000000"
               id="path7395" />
            <path
               d="M 597.69328,1103.6716 V 947.42605"
               style="fill:none;stroke:#000000"
               id="path7397" />
            <path
               d="m 597.69328,1103.6716 c 0,0.1291 -0.0164,0.2576 -0.0489,0.3825 -0.0324,0.1249 -0.0806,0.2451 -0.14347,0.3578 -0.096,0.1722 -0.22458,0.324 -0.37867,0.4469 -0.15357,0.1225 -0.32953,0.214 -0.51809,0.2691"
               style="fill:none;stroke:#000000"
               id="path7399" />
            <path
               d="m 596.60417,1105.1279 c -3.42743,1.0015 -6.90507,2.0183 -10.32493,3.0188 -3.7276,1.0905 -7.56111,2.2129 -11.29848,3.3085"
               style="fill:none;stroke:#000000"
               id="path7401" />
            <path
               d="m 591.6469,950.22922 a 6.2362205,6.2362205 0 1 0 -12.47244,0 6.2362205,6.2362205 0 1 0 12.47244,0 z"
               style="fill:none;stroke:#000000"
               id="path7403" />
            <path
               d="m 591.84179,1086.5903 a 6.2362205,6.2362205 0 1 0 -12.47244,0 6.2362205,6.2362205 0 1 0 12.47244,0 z"
               style="fill:none;stroke:#000000"
               id="path7405" />
          </g>
        </g>
      </g>
    </g>
  </g>
</svg>
