  0
SECTION
  2
HEADER
  9
$ACADVER
  1
AC1014
  9
$HANDSEED
  5
FFFF
  9
$MEASUREMENT
 70
     1
  0
ENDSEC
  0
SECTION
  2
TABLES
  0
TABLE
  2
VPORT
  5
8
330
0
100
AcDbSymbolTable
 70
     4
  0
VPORT
  5
2E
330
8
100
AcDbSymbolTableRecord
100
AcDbViewportTableRecord
  2
*ACTIVE
 70
     0
 10
0.0
 20
0.0
 11
1.0
 21
1.0
 12
210.0
 22
148.5
 13
0.0
 23
0.0
 14
10.0
 24
10.0
 15
10.0
 25
10.0
 16
0.0
 26
0.0
 36
1.0
 17
0.0
 27
0.0
 37
0.0
 40
341.0
 41
1.24
 42
50.0
 43
0.0
 44
0.0
 50
0.0
 51
0.0
 71
     0
 72
   100
 73
     1
 74
     3
 75
     0
 76
     0
 77
     0
 78
     0
  0
ENDTAB
  0
TABLE
  2
LTYPE
  5
5
330
0
100
AcDbSymbolTable
 70
     1
  0
LTYPE
  5
14
330
5
100
AcDbSymbolTableRecord
100
AcDbLinetypeTableRecord
  2
BYBLOCK
 70
     0
  3

 72
    65
 73
     0
 40
0.0
  0
LTYPE
  5
15
330
5
100
AcDbSymbolTableRecord
100
AcDbLinetypeTableRecord
  2
BYLAYER
 70
     0
  3

 72
    65
 73
     0
 40
0.0
  0
LTYPE
  5
16
330
5
100
AcDbSymbolTableRecord
100
AcDbLinetypeTableRecord
  2
CONTINUOUS
 70
     0
  3
Solid line
 72
    65
 73
     0
 40
0.0
  0
ENDTAB
  0
TABLE
  2
LAYER
  5
2
100
AcDbSymbolTable
 70
2
  0
LAYER
  5
50
100
AcDbSymbolTableRecord
100
AcDbLayerTableRecord
  2
0
 70
0
  6
CONTINUOUS
  0
LAYER
  5
51
100
AcDbSymbolTableRecord
100
AcDbLayerTableRecord
  2
Layer_1
 70
0
  6
CONTINUOUS
  0
ENDTAB
  0
TABLE
  2
STYLE
  5
3
330
0
100
AcDbSymbolTable
 70
     1
  0
STYLE
  5
11
330
3
100
AcDbSymbolTableRecord
100
AcDbTextStyleTableRecord
  2
STANDARD
 70
     0
 40
0.0
 41
1.0
 50
0.0
 71
     0
 42
2.5
  3
txt
  4

  0
ENDTAB
  0
TABLE
  2
VIEW
  5
6
330
0
100
AcDbSymbolTable
 70
     0
  0
ENDTAB
  0
TABLE
  2
UCS
  5
7
330
0
100
AcDbSymbolTable
 70
     0
  0
ENDTAB
  0
TABLE
  2
APPID
  5
9
330
0
100
AcDbSymbolTable
 70
     2
  0
APPID
  5
12
330
9
100
AcDbSymbolTableRecord
100
AcDbRegAppTableRecord
  2
ACAD
 70
     0
  0
ENDTAB
  0
TABLE
  2
DIMSTYLE
  5
A
330
0
100
AcDbSymbolTable
 70
     1
  0
DIMSTYLE
105
27
330
A
100
AcDbSymbolTableRecord
100
AcDbDimStyleTableRecord
  2
ISO-25
 70
     0
  3

  4

  5

  6

  7

 40
1.0
 41
2.5
 42
0.625
 43
3.75
 44
1.25
 45
0.0
 46
0.0
 47
0.0
 48
0.0
140
2.5
141
2.5
142
0.0
143
0.03937007874016
144
1.0
145
0.0
146
1.0
147
0.625
 71
     0
 72
     0
 73
     0
 74
     0
 75
     0
 76
     0
 77
     1
 78
     8
170
     0
171
     3
172
     1
173
     0
174
     0
175
     0
176
     0
177
     0
178
     0
270
     2
271
     2
272
     2
273
     2
274
     3
340
11
275
     0
280
     0
281
     0
282
     0
283
     0
284
     8
285
     0
286
     0
287
     3
288
     0
  0
ENDTAB
  0
TABLE
  2
BLOCK_RECORD
  5
1
330
0
100
AcDbSymbolTable
 70
     1
  0
BLOCK_RECORD
  5
1F
330
1
100
AcDbSymbolTableRecord
100
AcDbBlockTableRecord
  2
*MODEL_SPACE
  0
BLOCK_RECORD
  5
1B
330
1
100
AcDbSymbolTableRecord
100
AcDbBlockTableRecord
  2
*PAPER_SPACE
  0
ENDTAB
  0
ENDSEC
  0
SECTION
  2
BLOCKS
  0
BLOCK
  5
20
330
1F
100
AcDbEntity
  8
0
100
AcDbBlockBegin
  2
*MODEL_SPACE
 70
     0
 10
0.0
 20
0.0
 30
0.0
  3
*MODEL_SPACE
  1

  0
ENDBLK
  5
21
330
1F
100
AcDbEntity
  8
0
100
AcDbBlockEnd
  0
BLOCK
  5
1C
330
1B
100
AcDbEntity
 67
     1
  8
0
100
AcDbBlockBegin
  2
*PAPER_SPACE
  1

  0
ENDBLK
  5
1D
330
1B
100
AcDbEntity
 67
     1
  8
0
100
AcDbBlockEnd
  0
ENDSEC
  0
SECTION
  2
ENTITIES
  0
SPLINE
  5
100
100
AcDbEntity
  8
Layer_1
 62
1
100
AcDbSpline
 70
8
 71
3
 72
8
 73
4
 74
0
 40
0
 40
0
 40
0
 40
0
 40
1
 40
1
 40
1
 40
1
 10
21.313295
 20
82.301092
 30
0.0
 10
21.776316
 20
82.673176
 30
0.0
 10
22.183526
 20
82.935695
 30
0.0
 10
22.534927
 20
83.088651
 30
0.0
  0
LWPOLYLINE
  5
101
100
AcDbEntity
  8
Layer_1
 62
1
100
AcDbPolyline
 90
2
 70
0
 10
21.313295
 20
76.397576
 30
0.0
 10
20.147488
 20
76.397576
 30
0.0
  0
SPLINE
  5
102
100
AcDbEntity
  8
Layer_1
 62
1
100
AcDbSpline
 70
8
 71
3
 72
8
 73
4
 74
0
 40
0
 40
0
 40
0
 40
0
 40
1
 40
1
 40
1
 40
1
 10
22.280691
 20
81.929035
 30
0.0
 10
21.945816
 20
81.771926
 30
0.0
 10
21.623350
 20
81.567297
 30
0.0
 10
21.313295
 20
81.315122
 30
0.0
  0
LWPOLYLINE
  5
103
100
AcDbEntity
  8
Layer_1
 62
1
100
AcDbPolyline
 90
2
 70
0
 10
21.313295
 20
83.324289
 30
0.0
 10
21.313295
 20
82.301092
 30
0.0
  0
LWPOLYLINE
  5
104
100
AcDbEntity
  8
Layer_1
 62
1
100
AcDbPolyline
 90
2
 70
0
 10
21.313295
 20
81.315122
 30
0.0
 10
21.313295
 20
76.397576
 30
0.0
  0
SPLINE
  5
105
100
AcDbEntity
  8
Layer_1
 62
1
100
AcDbSpline
 70
8
 71
3
 72
8
 73
4
 74
0
 40
0
 40
0
 40
0
 40
0
 40
1
 40
1
 40
1
 40
1
 10
23.899198
 20
82.139882
 30
0.0
 10
23.737961
 20
82.160519
 30
0.0
 10
23.545725
 20
82.170891
 30
0.0
 10
23.322486
 20
82.170891
 30
0.0
  0
LWPOLYLINE
  5
106
100
AcDbEntity
  8
Layer_1
 62
1
100
AcDbPolyline
 90
2
 70
0
 10
20.147488
 20
83.324289
 30
0.0
 10
21.313295
 20
83.324289
 30
0.0
  0
SPLINE
  5
107
100
AcDbEntity
  8
Layer_1
 62
1
100
AcDbSpline
 70
8
 71
3
 72
8
 73
4
 74
0
 40
0
 40
0
 40
0
 40
0
 40
1
 40
1
 40
1
 40
1
 10
24.060409
 20
83.305689
 30
0.0
 10
24.151372
 20
83.297487
 30
0.0
 10
24.287802
 20
83.278834
 30
0.0
 10
24.469693
 20
83.249888
 30
0.0
  0
SPLINE
  5
108
100
AcDbEntity
  8
Layer_1
 62
1
100
AcDbSpline
 70
8
 71
3
 72
8
 73
4
 74
0
 40
0
 40
0
 40
0
 40
0
 40
1
 40
1
 40
1
 40
1
 10
23.322486
 20
82.170891
 30
0.0
 10
22.962811
 20
82.170891
 30
0.0
 10
22.615545
 20
82.090272
 30
0.0
 10
22.280691
 20
81.929035
 30
0.0
  0
SPLINE
  5
109
100
AcDbEntity
  8
Layer_1
 62
1
100
AcDbSpline
 70
8
 71
3
 72
8
 73
4
 74
0
 40
0
 40
0
 40
0
 40
0
 40
1
 40
1
 40
1
 40
1
 10
24.407674
 20
82.053045
 30
0.0
 10
24.234055
 20
82.094400
 30
0.0
 10
24.064563
 20
82.123345
 30
0.0
 10
23.899198
 20
82.139882
 30
0.0
  0
SPLINE
  5
10a
100
AcDbEntity
  8
Layer_1
 62
1
100
AcDbSpline
 70
8
 71
3
 72
8
 73
4
 74
0
 40
0
 40
0
 40
0
 40
0
 40
1
 40
1
 40
1
 40
1
 10
23.620145
 20
83.324289
 30
0.0
 10
23.822707
 20
83.324289
 30
0.0
 10
23.969463
 20
83.318204
 30
0.0
 10
24.060409
 20
83.305768
 30
0.0
  0
LWPOLYLINE
  5
10b
100
AcDbEntity
  8
Layer_1
 62
1
100
AcDbPolyline
 90
2
 70
0
 10
24.469693
 20
82.053045
 30
0.0
 10
24.407674
 20
82.053045
 30
0.0
  0
SPLINE
  5
10c
100
AcDbEntity
  8
Layer_1
 62
1
100
AcDbSpline
 70
8
 71
3
 72
8
 73
4
 74
0
 40
0
 40
0
 40
0
 40
0
 40
1
 40
1
 40
1
 40
1
 10
22.534927
 20
83.088651
 30
0.0
 10
22.890458
 20
83.245761
 30
0.0
 10
23.252196
 20
83.324289
 30
0.0
 10
23.620145
 20
83.324289
 30
0.0
  0
LWPOLYLINE
  5
10d
100
AcDbEntity
  8
Layer_1
 62
1
100
AcDbPolyline
 90
2
 70
0
 10
20.147488
 20
76.397576
 30
0.0
 10
20.147488
 20
83.324289
 30
0.0
  0
LWPOLYLINE
  5
10e
100
AcDbEntity
  8
Layer_1
 62
1
100
AcDbPolyline
 90
2
 70
0
 10
24.469693
 20
83.249888
 30
0.0
 10
24.469693
 20
82.053045
 30
0.0
  0
LWPOLYLINE
  5
10f
100
AcDbEntity
  8
Layer_1
 62
7
100
AcDbPolyline
 90
9
 70
0
 10
7.967242
 20
115.737886
 30
0.0
 10
7.688170
 20
115.709833
 30
0.0
 10
7.343834
 20
115.603206
 30
0.0
 10
7.032274
 20
115.434370
 30
0.0
 10
6.762074
 20
115.211636
 30
0.0
 10
6.539957
 20
114.942537
 30
0.0
 10
6.372605
 20
114.634244
 30
0.0
 10
6.267351
 20
114.295202
 30
0.0
 10
6.232413
 20
113.953766
 30
0.0
  0
SPLINE
  5
110
100
AcDbEntity
  8
Layer_1
 62
7
100
AcDbSpline
 70
8
 71
3
 72
8
 73
4
 74
0
 40
0
 40
0
 40
0
 40
0
 40
1
 40
1
 40
1
 40
1
 10
8.467240
 20
119.001359
 30
0.0
 10
8.191099
 20
119.001359
 30
0.0
 10
7.967242
 20
118.777502
 30
0.0
 10
7.967242
 20
118.501361
 30
0.0
  0
LWPOLYLINE
  5
111
100
AcDbEntity
  8
Layer_1
 62
7
100
AcDbPolyline
 90
2
 70
0
 10
7.967242
 20
118.501361
 30
0.0
 10
7.967242
 20
115.737886
 30
0.0
  0
SPLINE
  5
112
100
AcDbEntity
  8
Layer_1
 62
7
100
AcDbSpline
 70
8
 71
3
 72
8
 73
4
 74
0
 40
0
 40
0
 40
0
 40
0
 40
1
 40
1
 40
1
 40
1
 10
7.132850
 20
121.842896
 30
0.0
 10
5.276337
 20
121.842897
 30
0.0
 10
3.495861
 20
121.105400
 30
0.0
 10
2.183107
 20
119.792647
 30
0.0
  0
SPLINE
  5
113
100
AcDbEntity
  8
Layer_1
 62
7
100
AcDbSpline
 70
8
 71
3
 72
8
 73
4
 74
0
 40
0
 40
0
 40
0
 40
0
 40
1
 40
1
 40
1
 40
1
 10
2.183107
 20
119.792647
 30
0.0
 10
0.870354
 20
118.479894
 30
0.0
 10
0.132857
 20
116.699419
 30
0.0
 10
0.132856
 20
114.842905
 30
0.0
  0
LWPOLYLINE
  5
114
100
AcDbEntity
  8
Layer_1
 62
7
100
AcDbPolyline
 90
2
 70
0
 10
11.906052
 20
121.842896
 30
0.0
 10
11.906052
 20
119.001359
 30
0.0
  0
LWPOLYLINE
  5
115
100
AcDbEntity
  8
Layer_1
 62
7
100
AcDbPolyline
 90
2
 70
0
 10
0.132856
 20
74.853422
 30
0.0
 10
0.132856
 20
114.842905
 30
0.0
  0
SPLINE
  5
116
100
AcDbEntity
  8
Layer_1
 62
7
100
AcDbSpline
 70
8
 71
3
 72
8
 73
4
 74
0
 40
0
 40
0
 40
0
 40
0
 40
1
 40
1
 40
1
 40
1
 10
5.032622
 20
114.101234
 30
0.0
 10
5.032858
 20
114.690879
 30
0.0
 10
4.718422
 20
115.235834
 30
0.0
 10
4.207814
 20
115.530725
 30
0.0
  0
SPLINE
  5
117
100
AcDbEntity
  8
Layer_1
 62
7
100
AcDbSpline
 70
8
 71
3
 72
8
 73
4
 74
0
 40
0
 40
0
 40
0
 40
0
 40
1
 40
1
 40
1
 40
1
 10
4.207814
 20
115.530725
 30
0.0
 10
3.697206
 20
115.825615
 30
0.0
 10
3.068042
 20
115.825615
 30
0.0
 10
2.557434
 20
115.530725
 30
0.0
  0
SPLINE
  5
118
100
AcDbEntity
  8
Layer_1
 62
7
100
AcDbSpline
 70
8
 71
3
 72
8
 73
4
 74
0
 40
0
 40
0
 40
0
 40
0
 40
1
 40
1
 40
1
 40
1
 10
2.557434
 20
115.530725
 30
0.0
 10
2.046826
 20
115.235834
 30
0.0
 10
1.732390
 20
114.690879
 30
0.0
 10
1.732626
 20
114.101234
 30
0.0
  0
SPLINE
  5
119
100
AcDbEntity
  8
Layer_1
 62
7
100
AcDbSpline
 70
8
 71
3
 72
8
 73
4
 74
0
 40
0
 40
0
 40
0
 40
0
 40
1
 40
1
 40
1
 40
1
 10
1.732626
 20
114.101234
 30
0.0
 10
1.732390
 20
113.511589
 30
0.0
 10
2.046826
 20
112.966634
 30
0.0
 10
2.557434
 20
112.671743
 30
0.0
  0
SPLINE
  5
11a
100
AcDbEntity
  8
Layer_1
 62
7
100
AcDbSpline
 70
8
 71
3
 72
8
 73
4
 74
0
 40
0
 40
0
 40
0
 40
0
 40
1
 40
1
 40
1
 40
1
 10
2.557434
 20
112.671743
 30
0.0
 10
3.068042
 20
112.376852
 30
0.0
 10
3.697206
 20
112.376852
 30
0.0
 10
4.207814
 20
112.671743
 30
0.0
  0
SPLINE
  5
11b
100
AcDbEntity
  8
Layer_1
 62
7
100
AcDbSpline
 70
8
 71
3
 72
8
 73
4
 74
0
 40
0
 40
0
 40
0
 40
0
 40
1
 40
1
 40
1
 40
1
 10
4.207814
 20
112.671743
 30
0.0
 10
4.718422
 20
112.966634
 30
0.0
 10
5.032858
 20
113.511589
 30
0.0
 10
5.032622
 20
114.101234
 30
0.0
  0
LWPOLYLINE
  5
11c
100
AcDbEntity
  8
Layer_1
 62
7
100
AcDbPolyline
 90
2
 70
0
 10
6.232413
 20
113.953766
 30
0.0
 10
6.173586
 20
72.793591
 30
0.0
  0
SPLINE
  5
11d
100
AcDbEntity
  8
Layer_1
 62
7
100
AcDbSpline
 70
8
 71
3
 72
8
 73
4
 74
0
 40
0
 40
0
 40
0
 40
0
 40
1
 40
1
 40
1
 40
1
 10
4.981057
 20
78.022413
 30
0.0
 10
4.981293
 20
78.612058
 30
0.0
 10
4.666857
 20
79.157013
 30
0.0
 10
4.156249
 20
79.451903
 30
0.0
  0
SPLINE
  5
11e
100
AcDbEntity
  8
Layer_1
 62
7
100
AcDbSpline
 70
8
 71
3
 72
8
 73
4
 74
0
 40
0
 40
0
 40
0
 40
0
 40
1
 40
1
 40
1
 40
1
 10
4.156249
 20
79.451903
 30
0.0
 10
3.645641
 20
79.746794
 30
0.0
 10
3.016478
 20
79.746794
 30
0.0
 10
2.505870
 20
79.451903
 30
0.0
  0
SPLINE
  5
11f
100
AcDbEntity
  8
Layer_1
 62
7
100
AcDbSpline
 70
8
 71
3
 72
8
 73
4
 74
0
 40
0
 40
0
 40
0
 40
0
 40
1
 40
1
 40
1
 40
1
 10
2.505870
 20
79.451903
 30
0.0
 10
1.995261
 20
79.157013
 30
0.0
 10
1.680825
 20
78.612058
 30
0.0
 10
1.681061
 20
78.022413
 30
0.0
  0
SPLINE
  5
120
100
AcDbEntity
  8
Layer_1
 62
7
100
AcDbSpline
 70
8
 71
3
 72
8
 73
4
 74
0
 40
0
 40
0
 40
0
 40
0
 40
1
 40
1
 40
1
 40
1
 10
1.681061
 20
78.022413
 30
0.0
 10
1.680825
 20
77.432768
 30
0.0
 10
1.995261
 20
76.887812
 30
0.0
 10
2.505870
 20
76.592922
 30
0.0
  0
SPLINE
  5
121
100
AcDbEntity
  8
Layer_1
 62
7
100
AcDbSpline
 70
8
 71
3
 72
8
 73
4
 74
0
 40
0
 40
0
 40
0
 40
0
 40
1
 40
1
 40
1
 40
1
 10
2.505870
 20
76.592922
 30
0.0
 10
3.016478
 20
76.298031
 30
0.0
 10
3.645641
 20
76.298031
 30
0.0
 10
4.156249
 20
76.592922
 30
0.0
  0
SPLINE
  5
122
100
AcDbEntity
  8
Layer_1
 62
7
100
AcDbSpline
 70
8
 71
3
 72
8
 73
4
 74
0
 40
0
 40
0
 40
0
 40
0
 40
1
 40
1
 40
1
 40
1
 10
4.156249
 20
76.592922
 30
0.0
 10
4.666857
 20
76.887812
 30
0.0
 10
4.981293
 20
77.432768
 30
0.0
 10
4.981057
 20
78.022413
 30
0.0
  0
LWPOLYLINE
  5
123
100
AcDbEntity
  8
Layer_1
 62
7
100
AcDbPolyline
 90
1
 70
1
 10
5.032622
 20
114.101234
 30
0.0
  0
LWPOLYLINE
  5
124
100
AcDbEntity
  8
Layer_1
 62
7
100
AcDbPolyline
 90
1
 70
1
 10
4.981057
 20
78.022413
 30
0.0
  0
SPLINE
  5
125
100
AcDbEntity
  8
Layer_1
 62
7
100
AcDbSpline
 70
8
 71
3
 72
8
 73
4
 74
0
 40
0
 40
0
 40
0
 40
0
 40
1
 40
1
 40
1
 40
1
 10
6.173586
 20
72.793591
 30
0.0
 10
5.174920
 20
73.084817
 30
0.0
 10
4.149745
 20
73.383399
 30
0.0
 10
3.153177
 20
73.673462
 30
0.0
  0
SPLINE
  5
126
100
AcDbEntity
  8
Layer_1
 62
7
100
AcDbSpline
 70
8
 71
3
 72
8
 73
4
 74
0
 40
0
 40
0
 40
0
 40
0
 40
1
 40
1
 40
1
 40
1
 10
3.153177
 20
73.673462
 30
0.0
 10
2.248396
 20
73.936775
 30
0.0
 10
1.328340
 20
74.204347
 30
0.0
 10
0.421554
 20
74.467951
 30
0.0
  0
SPLINE
  5
127
100
AcDbEntity
  8
Layer_1
 62
7
100
AcDbSpline
 70
8
 71
3
 72
8
 73
4
 74
0
 40
0
 40
0
 40
0
 40
0
 40
1
 40
1
 40
1
 40
1
 10
0.421554
 20
74.467951
 30
0.0
 10
0.388981
 20
74.477476
 30
0.0
 10
0.357749
 20
74.490970
 30
0.0
 10
0.328611
 20
74.508380
 30
0.0
  0
SPLINE
  5
128
100
AcDbEntity
  8
Layer_1
 62
7
100
AcDbSpline
 70
8
 71
3
 72
8
 73
4
 74
0
 40
0
 40
0
 40
0
 40
0
 40
1
 40
1
 40
1
 40
1
 10
0.328611
 20
74.508380
 30
0.0
 10
0.299451
 20
74.525842
 30
0.0
 10
0.272622
 20
74.546771
 30
0.0
 10
0.248765
 20
74.570927
 30
0.0
  0
SPLINE
  5
129
100
AcDbEntity
  8
Layer_1
 62
7
100
AcDbSpline
 70
8
 71
3
 72
8
 73
4
 74
0
 40
0
 40
0
 40
0
 40
0
 40
1
 40
1
 40
1
 40
1
 10
0.248765
 20
74.570927
 30
0.0
 10
0.211991
 20
74.608154
 30
0.0
 10
0.182857
 20
74.652233
 30
0.0
 10
0.162987
 20
74.700652
 30
0.0
  0
SPLINE
  5
12a
100
AcDbEntity
  8
Layer_1
 62
7
100
AcDbSpline
 70
8
 71
3
 72
8
 73
4
 74
0
 40
0
 40
0
 40
0
 40
0
 40
1
 40
1
 40
1
 40
1
 10
0.162987
 20
74.700652
 30
0.0
 10
0.143090
 20
74.749124
 30
0.0
 10
0.132856
 20
74.801009
 30
0.0
 10
0.132856
 20
74.853422
 30
0.0
  0
LWPOLYLINE
  5
12b
100
AcDbEntity
  8
Layer_1
 62
7
100
AcDbPolyline
 90
2
 70
0
 10
11.906052
 20
119.001359
 30
0.0
 10
8.467240
 20
119.001359
 30
0.0
  0
SPLINE
  5
12c
100
AcDbEntity
  8
Layer_1
 62
7
100
AcDbSpline
 70
8
 71
3
 72
8
 73
4
 74
0
 40
0
 40
0
 40
0
 40
0
 40
1
 40
1
 40
1
 40
1
 10
0.132856
 20
62.091578
 30
0.0
 10
0.132856
 20
62.125788
 30
0.0
 10
0.137222
 20
62.159867
 30
0.0
 10
0.145821
 20
62.192966
 30
0.0
  0
SPLINE
  5
12d
100
AcDbEntity
  8
Layer_1
 62
7
100
AcDbSpline
 70
8
 71
3
 72
8
 73
4
 74
0
 40
0
 40
0
 40
0
 40
0
 40
1
 40
1
 40
1
 40
1
 10
0.145821
 20
62.192966
 30
0.0
 10
0.154420
 20
62.226039
 30
0.0
 10
0.167226
 20
62.257895
 30
0.0
 10
0.183905
 20
62.287766
 30
0.0
  0
SPLINE
  5
12e
100
AcDbEntity
  8
Layer_1
 62
7
100
AcDbSpline
 70
8
 71
3
 72
8
 73
4
 74
0
 40
0
 40
0
 40
0
 40
0
 40
1
 40
1
 40
1
 40
1
 10
0.183905
 20
62.287766
 30
0.0
 10
0.209332
 20
62.333301
 30
0.0
 10
0.243397
 20
62.373438
 30
0.0
 10
0.284195
 20
62.405929
 30
0.0
  0
SPLINE
  5
12f
100
AcDbEntity
  8
Layer_1
 62
7
100
AcDbSpline
 70
8
 71
3
 72
8
 73
4
 74
0
 40
0
 40
0
 40
0
 40
0
 40
1
 40
1
 40
1
 40
1
 10
0.284195
 20
62.405929
 30
0.0
 10
0.324854
 20
62.438314
 30
0.0
 10
0.371431
 20
62.462444
 30
0.0
 10
0.421331
 20
62.476996
 30
0.0
  0
SPLINE
  5
130
100
AcDbEntity
  8
Layer_1
 62
7
100
AcDbSpline
 70
8
 71
3
 72
8
 73
4
 74
0
 40
0
 40
0
 40
0
 40
0
 40
1
 40
1
 40
1
 40
1
 10
0.421342
 20
62.476996
 30
0.0
 10
1.326229
 20
62.740574
 30
0.0
 10
2.244292
 20
63.008146
 30
0.0
 10
3.147179
 20
63.271433
 30
0.0
  0
SPLINE
  5
131
100
AcDbEntity
  8
Layer_1
 62
7
100
AcDbSpline
 70
8
 71
3
 72
8
 73
4
 74
0
 40
0
 40
0
 40
0
 40
0
 40
1
 40
1
 40
1
 40
1
 10
3.147179
 20
63.271433
 30
0.0
 10
4.141710
 20
63.561469
 30
0.0
 10
5.164628
 20
63.860024
 30
0.0
 10
6.161235
 20
64.151251
 30
0.0
  0
LWPOLYLINE
  5
132
100
AcDbEntity
  8
Layer_1
 62
7
100
AcDbPolyline
 90
2
 70
0
 10
7.132850
 20
121.842896
 30
0.0
 10
11.906052
 20
121.842896
 30
0.0
  0
SPLINE
  5
133
100
AcDbEntity
  8
Layer_1
 62
7
100
AcDbSpline
 70
8
 71
3
 72
8
 73
4
 74
0
 40
0
 40
0
 40
0
 40
0
 40
1
 40
1
 40
1
 40
1
 10
34.946024
 20
118.596087
 30
0.0
 10
34.946260
 20
119.185732
 30
0.0
 10
34.631824
 20
119.730687
 30
0.0
 10
34.121216
 20
120.025578
 30
0.0
  0
SPLINE
  5
134
100
AcDbEntity
  8
Layer_1
 62
7
100
AcDbSpline
 70
8
 71
3
 72
8
 73
4
 74
0
 40
0
 40
0
 40
0
 40
0
 40
1
 40
1
 40
1
 40
1
 10
34.121216
 20
120.025578
 30
0.0
 10
33.610607
 20
120.320468
 30
0.0
 10
32.981444
 20
120.320468
 30
0.0
 10
32.470836
 20
120.025578
 30
0.0
  0
SPLINE
  5
135
100
AcDbEntity
  8
Layer_1
 62
7
100
AcDbSpline
 70
8
 71
3
 72
8
 73
4
 74
0
 40
0
 40
0
 40
0
 40
0
 40
1
 40
1
 40
1
 40
1
 10
32.470836
 20
120.025578
 30
0.0
 10
31.960228
 20
119.730687
 30
0.0
 10
31.645792
 20
119.185732
 30
0.0
 10
31.646028
 20
118.596087
 30
0.0
  0
SPLINE
  5
136
100
AcDbEntity
  8
Layer_1
 62
7
100
AcDbSpline
 70
8
 71
3
 72
8
 73
4
 74
0
 40
0
 40
0
 40
0
 40
0
 40
1
 40
1
 40
1
 40
1
 10
31.646028
 20
118.596087
 30
0.0
 10
31.645792
 20
118.006442
 30
0.0
 10
31.960228
 20
117.461487
 30
0.0
 10
32.470836
 20
117.166596
 30
0.0
  0
SPLINE
  5
137
100
AcDbEntity
  8
Layer_1
 62
7
100
AcDbSpline
 70
8
 71
3
 72
8
 73
4
 74
0
 40
0
 40
0
 40
0
 40
0
 40
1
 40
1
 40
1
 40
1
 10
32.470836
 20
117.166596
 30
0.0
 10
32.981444
 20
116.871705
 30
0.0
 10
33.610607
 20
116.871705
 30
0.0
 10
34.121216
 20
117.166596
 30
0.0
  0
SPLINE
  5
138
100
AcDbEntity
  8
Layer_1
 62
7
100
AcDbSpline
 70
8
 71
3
 72
8
 73
4
 74
0
 40
0
 40
0
 40
0
 40
0
 40
1
 40
1
 40
1
 40
1
 10
34.121216
 20
117.166596
 30
0.0
 10
34.631824
 20
117.461487
 30
0.0
 10
34.946260
 20
118.006442
 30
0.0
 10
34.946024
 20
118.596087
 30
0.0
  0
LWPOLYLINE
  5
139
100
AcDbEntity
  8
Layer_1
 62
7
100
AcDbPolyline
 90
2
 70
0
 10
25.806035
 20
121.842896
 30
0.0
 10
63.766131
 20
121.842896
 30
0.0
  0
SPLINE
  5
13a
100
AcDbEntity
  8
Layer_1
 62
7
100
AcDbSpline
 70
8
 71
3
 72
8
 73
4
 74
0
 40
0
 40
0
 40
0
 40
0
 40
1
 40
1
 40
1
 40
1
 10
39.251200
 20
11.086189
 30
0.0
 10
39.251436
 20
11.675834
 30
0.0
 10
38.936999
 20
12.220789
 30
0.0
 10
38.426391
 20
12.515680
 30
0.0
  0
SPLINE
  5
13b
100
AcDbEntity
  8
Layer_1
 62
7
100
AcDbSpline
 70
8
 71
3
 72
8
 73
4
 74
0
 40
0
 40
0
 40
0
 40
0
 40
1
 40
1
 40
1
 40
1
 10
38.426391
 20
12.515680
 30
0.0
 10
37.915783
 20
12.810570
 30
0.0
 10
37.286620
 20
12.810570
 30
0.0
 10
36.776012
 20
12.515680
 30
0.0
  0
SPLINE
  5
13c
100
AcDbEntity
  8
Layer_1
 62
7
100
AcDbSpline
 70
8
 71
3
 72
8
 73
4
 74
0
 40
0
 40
0
 40
0
 40
0
 40
1
 40
1
 40
1
 40
1
 10
36.776012
 20
12.515680
 30
0.0
 10
36.265404
 20
12.220789
 30
0.0
 10
35.950968
 20
11.675834
 30
0.0
 10
35.951204
 20
11.086189
 30
0.0
  0
SPLINE
  5
13d
100
AcDbEntity
  8
Layer_1
 62
7
100
AcDbSpline
 70
8
 71
3
 72
8
 73
4
 74
0
 40
0
 40
0
 40
0
 40
0
 40
1
 40
1
 40
1
 40
1
 10
35.951204
 20
11.086189
 30
0.0
 10
35.950968
 20
10.496544
 30
0.0
 10
36.265404
 20
9.951589
 30
0.0
 10
36.776012
 20
9.656698
 30
0.0
  0
SPLINE
  5
13e
100
AcDbEntity
  8
Layer_1
 62
7
100
AcDbSpline
 70
8
 71
3
 72
8
 73
4
 74
0
 40
0
 40
0
 40
0
 40
0
 40
1
 40
1
 40
1
 40
1
 10
36.776012
 20
9.656698
 30
0.0
 10
37.286620
 20
9.361808
 30
0.0
 10
37.915783
 20
9.361808
 30
0.0
 10
38.426391
 20
9.656698
 30
0.0
  0
SPLINE
  5
13f
100
AcDbEntity
  8
Layer_1
 62
7
100
AcDbSpline
 70
8
 71
3
 72
8
 73
4
 74
0
 40
0
 40
0
 40
0
 40
0
 40
1
 40
1
 40
1
 40
1
 10
38.426391
 20
9.656698
 30
0.0
 10
38.936999
 20
9.951589
 30
0.0
 10
39.251436
 20
10.496544
 30
0.0
 10
39.251200
 20
11.086189
 30
0.0
  0
LWPOLYLINE
  5
140
100
AcDbEntity
  8
Layer_1
 62
7
100
AcDbPolyline
 90
1
 70
1
 10
34.946024
 20
118.596087
 30
0.0
  0
SPLINE
  5
141
100
AcDbEntity
  8
Layer_1
 62
7
100
AcDbSpline
 70
8
 71
3
 72
8
 73
4
 74
0
 40
0
 40
0
 40
0
 40
0
 40
1
 40
1
 40
1
 40
1
 10
125.072226
 20
25.797825
 30
0.0
 10
125.072635
 20
26.387585
 30
0.0
 10
124.758237
 20
26.932721
 30
0.0
 10
124.247558
 20
27.227719
 30
0.0
  0
SPLINE
  5
142
100
AcDbEntity
  8
Layer_1
 62
7
100
AcDbSpline
 70
8
 71
3
 72
8
 73
4
 74
0
 40
0
 40
0
 40
0
 40
0
 40
1
 40
1
 40
1
 40
1
 10
124.247558
 20
27.227719
 30
0.0
 10
123.736879
 20
27.522717
 30
0.0
 10
123.107578
 20
27.522717
 30
0.0
 10
122.596899
 20
27.227719
 30
0.0
  0
SPLINE
  5
143
100
AcDbEntity
  8
Layer_1
 62
7
100
AcDbSpline
 70
8
 71
3
 72
8
 73
4
 74
0
 40
0
 40
0
 40
0
 40
0
 40
1
 40
1
 40
1
 40
1
 10
122.596899
 20
27.227719
 30
0.0
 10
122.086220
 20
26.932721
 30
0.0
 10
121.771822
 20
26.387585
 30
0.0
 10
121.772231
 20
25.797825
 30
0.0
  0
SPLINE
  5
144
100
AcDbEntity
  8
Layer_1
 62
7
100
AcDbSpline
 70
8
 71
3
 72
8
 73
4
 74
0
 40
0
 40
0
 40
0
 40
0
 40
1
 40
1
 40
1
 40
1
 10
121.772231
 20
25.797825
 30
0.0
 10
121.771822
 20
25.208065
 30
0.0
 10
122.086220
 20
24.662929
 30
0.0
 10
122.596899
 20
24.367931
 30
0.0
  0
SPLINE
  5
145
100
AcDbEntity
  8
Layer_1
 62
7
100
AcDbSpline
 70
8
 71
3
 72
8
 73
4
 74
0
 40
0
 40
0
 40
0
 40
0
 40
1
 40
1
 40
1
 40
1
 10
122.596899
 20
24.367931
 30
0.0
 10
123.107578
 20
24.072933
 30
0.0
 10
123.736879
 20
24.072933
 30
0.0
 10
124.247558
 20
24.367931
 30
0.0
  0
SPLINE
  5
146
100
AcDbEntity
  8
Layer_1
 62
7
100
AcDbSpline
 70
8
 71
3
 72
8
 73
4
 74
0
 40
0
 40
0
 40
0
 40
0
 40
1
 40
1
 40
1
 40
1
 10
124.247558
 20
24.367931
 30
0.0
 10
124.758237
 20
24.662929
 30
0.0
 10
125.072635
 20
25.208065
 30
0.0
 10
125.072226
 20
25.797825
 30
0.0
  0
LWPOLYLINE
  5
147
100
AcDbEntity
  8
Layer_1
 62
7
100
AcDbPolyline
 90
1
 70
1
 10
39.251200
 20
11.086189
 30
0.0
  0
SPLINE
  5
148
100
AcDbEntity
  8
Layer_1
 62
7
100
AcDbSpline
 70
8
 71
3
 72
8
 73
4
 74
0
 40
0
 40
0
 40
0
 40
0
 40
1
 40
1
 40
1
 40
1
 10
123.381045
 20
115.075743
 30
0.0
 10
123.381045
 20
115.665231
 30
0.0
 10
123.066557
 20
116.209940
 30
0.0
 10
122.556046
 20
116.504684
 30
0.0
  0
SPLINE
  5
149
100
AcDbEntity
  8
Layer_1
 62
7
100
AcDbSpline
 70
8
 71
3
 72
8
 73
4
 74
0
 40
0
 40
0
 40
0
 40
0
 40
1
 40
1
 40
1
 40
1
 10
122.556046
 20
116.504684
 30
0.0
 10
122.045534
 20
116.799428
 30
0.0
 10
121.416559
 20
116.799428
 30
0.0
 10
120.906047
 20
116.504684
 30
0.0
  0
SPLINE
  5
14a
100
AcDbEntity
  8
Layer_1
 62
7
100
AcDbSpline
 70
8
 71
3
 72
8
 73
4
 74
0
 40
0
 40
0
 40
0
 40
0
 40
1
 40
1
 40
1
 40
1
 10
120.906047
 20
116.504684
 30
0.0
 10
120.395536
 20
116.209940
 30
0.0
 10
120.081048
 20
115.665231
 30
0.0
 10
120.081048
 20
115.075743
 30
0.0
  0
SPLINE
  5
14b
100
AcDbEntity
  8
Layer_1
 62
7
100
AcDbSpline
 70
8
 71
3
 72
8
 73
4
 74
0
 40
0
 40
0
 40
0
 40
0
 40
1
 40
1
 40
1
 40
1
 10
120.081048
 20
115.075743
 30
0.0
 10
120.081048
 20
114.486256
 30
0.0
 10
120.395536
 20
113.941547
 30
0.0
 10
120.906047
 20
113.646803
 30
0.0
  0
SPLINE
  5
14c
100
AcDbEntity
  8
Layer_1
 62
7
100
AcDbSpline
 70
8
 71
3
 72
8
 73
4
 74
0
 40
0
 40
0
 40
0
 40
0
 40
1
 40
1
 40
1
 40
1
 10
120.906047
 20
113.646803
 30
0.0
 10
121.416559
 20
113.352059
 30
0.0
 10
122.045534
 20
113.352059
 30
0.0
 10
122.556046
 20
113.646803
 30
0.0
  0
SPLINE
  5
14d
100
AcDbEntity
  8
Layer_1
 62
7
100
AcDbSpline
 70
8
 71
3
 72
8
 73
4
 74
0
 40
0
 40
0
 40
0
 40
0
 40
1
 40
1
 40
1
 40
1
 10
122.556046
 20
113.646803
 30
0.0
 10
123.066557
 20
113.941547
 30
0.0
 10
123.381045
 20
114.486256
 30
0.0
 10
123.381045
 20
115.075743
 30
0.0
  0
LWPOLYLINE
  5
14e
100
AcDbEntity
  8
Layer_1
 62
7
100
AcDbPolyline
 90
1
 70
1
 10
125.072226
 20
25.797825
 30
0.0
  0
SPLINE
  5
14f
100
AcDbEntity
  8
Layer_1
 62
7
100
AcDbSpline
 70
8
 71
3
 72
8
 73
4
 74
0
 40
0
 40
0
 40
0
 40
0
 40
1
 40
1
 40
1
 40
1
 10
4.951831
 20
57.572420
 30
0.0
 10
4.952067
 20
58.162065
 30
0.0
 10
4.637631
 20
58.707021
 30
0.0
 10
4.127023
 20
59.001911
 30
0.0
  0
SPLINE
  5
150
100
AcDbEntity
  8
Layer_1
 62
7
100
AcDbSpline
 70
8
 71
3
 72
8
 73
4
 74
0
 40
0
 40
0
 40
0
 40
0
 40
1
 40
1
 40
1
 40
1
 10
4.127023
 20
59.001911
 30
0.0
 10
3.616415
 20
59.296802
 30
0.0
 10
2.987252
 20
59.296802
 30
0.0
 10
2.476644
 20
59.001911
 30
0.0
  0
SPLINE
  5
151
100
AcDbEntity
  8
Layer_1
 62
7
100
AcDbSpline
 70
8
 71
3
 72
8
 73
4
 74
0
 40
0
 40
0
 40
0
 40
0
 40
1
 40
1
 40
1
 40
1
 10
2.476644
 20
59.001911
 30
0.0
 10
1.966036
 20
58.707021
 30
0.0
 10
1.651599
 20
58.162065
 30
0.0
 10
1.651835
 20
57.572420
 30
0.0
  0
SPLINE
  5
152
100
AcDbEntity
  8
Layer_1
 62
7
100
AcDbSpline
 70
8
 71
3
 72
8
 73
4
 74
0
 40
0
 40
0
 40
0
 40
0
 40
1
 40
1
 40
1
 40
1
 10
1.651835
 20
57.572420
 30
0.0
 10
1.651599
 20
56.982776
 30
0.0
 10
1.966036
 20
56.437820
 30
0.0
 10
2.476644
 20
56.142930
 30
0.0
  0
SPLINE
  5
153
100
AcDbEntity
  8
Layer_1
 62
7
100
AcDbSpline
 70
8
 71
3
 72
8
 73
4
 74
0
 40
0
 40
0
 40
0
 40
0
 40
1
 40
1
 40
1
 40
1
 10
2.476644
 20
56.142930
 30
0.0
 10
2.987252
 20
55.848039
 30
0.0
 10
3.616415
 20
55.848039
 30
0.0
 10
4.127023
 20
56.142930
 30
0.0
  0
SPLINE
  5
154
100
AcDbEntity
  8
Layer_1
 62
7
100
AcDbSpline
 70
8
 71
3
 72
8
 73
4
 74
0
 40
0
 40
0
 40
0
 40
0
 40
1
 40
1
 40
1
 40
1
 10
4.127023
 20
56.142930
 30
0.0
 10
4.637631
 20
56.437820
 30
0.0
 10
4.952067
 20
56.982776
 30
0.0
 10
4.951831
 20
57.572420
 30
0.0
  0
LWPOLYLINE
  5
155
100
AcDbEntity
  8
Layer_1
 62
7
100
AcDbPolyline
 90
1
 70
1
 10
123.381045
 20
115.075743
 30
0.0
  0
SPLINE
  5
156
100
AcDbEntity
  8
Layer_1
 62
7
100
AcDbSpline
 70
8
 71
3
 72
8
 73
4
 74
0
 40
0
 40
0
 40
0
 40
0
 40
1
 40
1
 40
1
 40
1
 10
151.305874
 20
68.517559
 30
0.0
 10
151.305874
 20
69.107046
 30
0.0
 10
150.991386
 20
69.651755
 30
0.0
 10
150.480875
 20
69.946499
 30
0.0
  0
SPLINE
  5
157
100
AcDbEntity
  8
Layer_1
 62
7
100
AcDbSpline
 70
8
 71
3
 72
8
 73
4
 74
0
 40
0
 40
0
 40
0
 40
0
 40
1
 40
1
 40
1
 40
1
 10
150.480875
 20
69.946499
 30
0.0
 10
149.970364
 20
70.241243
 30
0.0
 10
149.341388
 20
70.241243
 30
0.0
 10
148.830877
 20
69.946499
 30
0.0
  0
SPLINE
  5
158
100
AcDbEntity
  8
Layer_1
 62
7
100
AcDbSpline
 70
8
 71
3
 72
8
 73
4
 74
0
 40
0
 40
0
 40
0
 40
0
 40
1
 40
1
 40
1
 40
1
 10
148.830877
 20
69.946499
 30
0.0
 10
148.320365
 20
69.651755
 30
0.0
 10
148.005878
 20
69.107046
 30
0.0
 10
148.005878
 20
68.517559
 30
0.0
  0
SPLINE
  5
159
100
AcDbEntity
  8
Layer_1
 62
7
100
AcDbSpline
 70
8
 71
3
 72
8
 73
4
 74
0
 40
0
 40
0
 40
0
 40
0
 40
1
 40
1
 40
1
 40
1
 10
148.005878
 20
68.517559
 30
0.0
 10
148.005878
 20
67.928071
 30
0.0
 10
148.320365
 20
67.383362
 30
0.0
 10
148.830877
 20
67.088618
 30
0.0
  0
SPLINE
  5
15a
100
AcDbEntity
  8
Layer_1
 62
7
100
AcDbSpline
 70
8
 71
3
 72
8
 73
4
 74
0
 40
0
 40
0
 40
0
 40
0
 40
1
 40
1
 40
1
 40
1
 10
148.830877
 20
67.088618
 30
0.0
 10
149.341388
 20
66.793875
 30
0.0
 10
149.970364
 20
66.793875
 30
0.0
 10
150.480875
 20
67.088618
 30
0.0
  0
SPLINE
  5
15b
100
AcDbEntity
  8
Layer_1
 62
7
100
AcDbSpline
 70
8
 71
3
 72
8
 73
4
 74
0
 40
0
 40
0
 40
0
 40
0
 40
1
 40
1
 40
1
 40
1
 10
150.480875
 20
67.088618
 30
0.0
 10
150.991386
 20
67.383362
 30
0.0
 10
151.305874
 20
67.928071
 30
0.0
 10
151.305874
 20
68.517559
 30
0.0
  0
LWPOLYLINE
  5
15c
100
AcDbEntity
  8
Layer_1
 62
7
100
AcDbPolyline
 90
1
 70
1
 10
4.951831
 20
57.572420
 30
0.0
  0
LWPOLYLINE
  5
15d
100
AcDbEntity
  8
Layer_1
 62
7
100
AcDbPolyline
 90
1
 70
1
 10
151.305874
 20
68.517559
 30
0.0
  0
SPLINE
  5
15e
100
AcDbEntity
  8
Layer_1
 62
7
100
AcDbSpline
 70
8
 71
3
 72
8
 73
4
 74
0
 40
0
 40
0
 40
0
 40
0
 40
1
 40
1
 40
1
 40
1
 10
144.657218
 20
114.704298
 30
0.0
 10
117.955402
 20
119.454133
 30
0.0
 10
90.887118
 20
121.842896
 30
0.0
 10
63.766131
 20
121.842896
 30
0.0
  0
SPLINE
  5
15f
100
AcDbEntity
  8
Layer_1
 62
7
100
AcDbSpline
 70
8
 71
3
 72
8
 73
4
 74
0
 40
0
 40
0
 40
0
 40
0
 40
1
 40
1
 40
1
 40
1
 10
152.905858
 20
104.858865
 30
0.0
 10
152.905858
 20
109.706096
 30
0.0
 10
149.429533
 20
113.855378
 30
0.0
 10
144.657218
 20
114.704298
 30
0.0
  0
LWPOLYLINE
  5
160
100
AcDbEntity
  8
Layer_1
 62
7
100
AcDbPolyline
 90
2
 70
0
 10
25.806035
 20
119.001359
 30
0.0
 10
25.806035
 20
121.842896
 30
0.0
  0
SPLINE
  5
161
100
AcDbEntity
  8
Layer_1
 62
7
100
AcDbSpline
 70
8
 71
3
 72
8
 73
4
 74
0
 40
0
 40
0
 40
0
 40
0
 40
1
 40
1
 40
1
 40
1
 10
142.905869
 20
22.547820
 30
0.0
 10
148.428702
 20
22.547820
 30
0.0
 10
152.905846
 20
27.024955
 30
0.0
 10
152.905858
 20
32.547788
 30
0.0
  0
LWPOLYLINE
  5
162
100
AcDbEntity
  8
Layer_1
 62
7
100
AcDbPolyline
 90
2
 70
0
 10
152.905858
 20
104.858865
 30
0.0
 10
152.905858
 20
32.547788
 30
0.0
  0
SPLINE
  5
163
100
AcDbEntity
  8
Layer_1
 62
7
100
AcDbSpline
 70
8
 71
3
 72
8
 73
4
 74
0
 40
0
 40
0
 40
0
 40
0
 40
1
 40
1
 40
1
 40
1
 10
115.394820
 20
22.547820
 30
0.0
 10
111.404325
 20
22.547819
 30
0.0
 10
107.795825
 20
20.175352
 30
0.0
 10
106.214022
 20
16.511755
 30
0.0
  0
SPLINE
  5
164
100
AcDbEntity
  8
Layer_1
 62
7
100
AcDbSpline
 70
8
 71
3
 72
8
 73
4
 74
0
 40
0
 40
0
 40
0
 40
0
 40
1
 40
1
 40
1
 40
1
 10
93.018555
 20
7.836183
 30
0.0
 10
98.754051
 20
7.836184
 30
0.0
 10
103.940511
 20
11.246106
 30
0.0
 10
106.214022
 20
16.511755
 30
0.0
  0
LWPOLYLINE
  5
165
100
AcDbEntity
  8
Layer_1
 62
7
100
AcDbPolyline
 90
2
 70
0
 10
142.905869
 20
22.547820
 30
0.0
 10
115.394820
 20
22.547820
 30
0.0
  0
SPLINE
  5
166
100
AcDbEntity
  8
Layer_1
 62
7
100
AcDbSpline
 70
8
 71
3
 72
8
 73
4
 74
0
 40
0
 40
0
 40
0
 40
0
 40
1
 40
1
 40
1
 40
1
 10
41.159759
 20
7.836183
 30
0.0
 10
39.400463
 20
7.836187
 30
0.0
 10
37.672302
 20
7.372057
 30
0.0
 10
36.149726
 20
6.490646
 30
0.0
  0
LWPOLYLINE
  5
167
100
AcDbEntity
  8
Layer_1
 62
7
100
AcDbPolyline
 90
2
 70
0
 10
93.018555
 20
7.836183
 30
0.0
 10
41.159759
 20
7.836183
 30
0.0
  0
SPLINE
  5
168
100
AcDbEntity
  8
Layer_1
 62
7
100
AcDbSpline
 70
8
 71
3
 72
8
 73
4
 74
0
 40
0
 40
0
 40
0
 40
0
 40
1
 40
1
 40
1
 40
1
 10
17.224626
 20
3.636510
 30
0.0
 10
18.153107
 20
2.026557
 30
0.0
 10
19.683709
 20
0.851919
 30
0.0
 10
21.479047
 20
0.371517
 30
0.0
  0
SPLINE
  5
169
100
AcDbEntity
  8
Layer_1
 62
7
100
AcDbSpline
 70
8
 71
3
 72
8
 73
4
 74
0
 40
0
 40
0
 40
0
 40
0
 40
1
 40
1
 40
1
 40
1
 10
21.479047
 20
0.371517
 30
0.0
 10
23.274386
 20
-0.108886
 30
0.0
 10
25.187072
 20
0.144386
 30
0.0
 10
26.795501
 20
1.075505
 30
0.0
  0
LWPOLYLINE
  5
16a
100
AcDbEntity
  8
Layer_1
 62
7
100
AcDbPolyline
 90
2
 70
0
 10
36.149726
 20
6.490646
 30
0.0
 10
26.795501
 20
1.075505
 30
0.0
  0
SPLINE
  5
16b
100
AcDbEntity
  8
Layer_1
 62
7
100
AcDbSpline
 70
8
 71
3
 72
8
 73
4
 74
0
 40
0
 40
0
 40
0
 40
0
 40
1
 40
1
 40
1
 40
1
 10
0.132856
 20
44.516227
 30
0.0
 10
0.132859
 20
37.150540
 30
0.0
 10
2.069923
 20
29.914375
 30
0.0
 10
5.749703
 20
23.533735
 30
0.0
  0
LWPOLYLINE
  5
16c
100
AcDbEntity
  8
Layer_1
 62
7
100
AcDbPolyline
 90
2
 70
0
 10
17.224626
 20
3.636510
 30
0.0
 10
5.749703
 20
23.533735
 30
0.0
  0
LWPOLYLINE
  5
16d
100
AcDbEntity
  8
Layer_1
 62
7
100
AcDbPolyline
 90
2
 70
0
 10
0.132856
 20
44.516227
 30
0.0
 10
0.132856
 20
62.091578
 30
0.0
  0
SPLINE
  5
16e
100
AcDbEntity
  8
Layer_1
 62
7
100
AcDbSpline
 70
8
 71
3
 72
8
 73
4
 74
0
 40
0
 40
0
 40
0
 40
0
 40
1
 40
1
 40
1
 40
1
 10
28.446031
 20
117.305615
 30
0.0
 10
28.446032
 20
117.445393
 30
0.0
 10
28.387523
 20
117.578791
 30
0.0
 10
28.284688
 20
117.673465
 30
0.0
  0
LWPOLYLINE
  5
16f
100
AcDbEntity
  8
Layer_1
 62
7
100
AcDbPolyline
 90
52
 70
0
 10
6.161235
 20
64.151251
 30
0.0
 10
6.126731
 20
40.010326
 30
0.0
 10
6.194678
 20
38.766785
 30
0.0
 10
6.260454
 20
37.925649
 30
0.0
 10
6.393272
 20
36.423135
 30
0.0
 10
6.663022
 20
35.081329
 30
0.0
 10
6.952354
 20
33.981960
 30
0.0
 10
7.556574
 20
32.610812
 30
0.0
 10
22.266226
 20
7.104664
 30
0.0
 10
22.456311
 20
6.861804
 30
0.0
 10
22.709138
 20
6.646539
 30
0.0
 10
23.020648
 20
6.491176
 30
0.0
 10
23.367146
 20
6.422437
 30
0.0
 10
23.710627
 20
6.444397
 30
0.0
 10
24.026034
 20
6.538166
 30
0.0
 10
24.278102
 20
6.666568
 30
0.0
 10
36.835776
 20
13.936171
 30
0.0
 10
97.034277
 20
13.936171
 30
0.0
 10
97.456734
 20
13.978690
 30
0.0
 10
97.890449
 20
14.113178
 30
0.0
 10
98.282487
 20
14.325823
 30
0.0
 10
98.623307
 20
14.606969
 30
0.0
 10
98.904447
 20
14.947805
 30
0.0
 10
99.117101
 20
15.339837
 30
0.0
 10
99.250636
 20
15.770473
 30
0.0
 10
99.294104
 20
16.170363
 30
0.0
 10
99.295162
 20
25.891091
 30
0.0
 10
99.375209
 20
26.480158
 30
0.0
 10
99.535978
 20
26.998635
 30
0.0
 10
99.784043
 20
27.455967
 30
0.0
 10
100.113195
 20
27.854985
 30
0.0
 10
100.512215
 20
28.184126
 30
0.0
 10
100.969539
 20
28.432199
 30
0.0
 10
101.474678
 20
28.588832
 30
0.0
 10
102.060534
 20
28.647808
 30
0.0
 10
144.516736
 20
28.647834
 30
0.0
 10
144.956293
 20
28.686199
 30
0.0
 10
145.395134
 20
28.822274
 30
0.0
 10
145.787170
 20
29.034919
 30
0.0
 10
146.127988
 20
29.316065
 30
0.0
 10
146.409131
 20
29.656874
 30
0.0
 10
146.621785
 20
30.048934
 30
0.0
 10
146.754027
 20
30.475415
 30
0.0
 10
146.805893
 20
30.908908
 30
0.0
 10
146.805865
 20
105.896943
 30
0.0
 10
146.544575
 20
106.811456
 30
0.0
 10
146.060318
 20
107.646379
 30
0.0
 10
145.257902
 20
108.348458
 30
0.0
 10
144.334931
 20
108.793003
 30
0.0
 10
98.064894
 20
115.754158
 30
0.0
 10
28.446031
 20
115.745480
 30
0.0
 10
28.446031
 20
117.305615
 30
0.0
  0
SPLINE
  5
170
100
AcDbEntity
  8
Layer_1
 62
7
100
AcDbSpline
 70
8
 71
3
 72
8
 73
4
 74
0
 40
0
 40
0
 40
0
 40
0
 40
1
 40
1
 40
1
 40
1
 10
26.985874
 20
118.869208
 30
0.0
 10
26.893568
 20
118.954188
 30
0.0
 10
26.772686
 20
119.001359
 30
0.0
 10
26.647218
 20
119.001359
 30
0.0
  0
LWPOLYLINE
  5
171
100
AcDbEntity
  8
Layer_1
 62
7
100
AcDbPolyline
 90
2
 70
0
 10
28.284688
 20
117.673465
 30
0.0
 10
26.985874
 20
118.869208
 30
0.0
  0
SPLINE
  5
172
100
AcDbEntity
  8
Layer_1
 62
7
100
AcDbSpline
 70
8
 71
3
 72
8
 73
4
 74
0
 40
0
 40
0
 40
0
 40
0
 40
1
 40
1
 40
1
 40
1
 10
301.768757
 20
62.802724
 30
0.0
 10
302.765158
 20
62.511445
 30
0.0
 10
303.787866
 20
62.212889
 30
0.0
 10
304.782190
 20
61.922800
 30
0.0
  0
SPLINE
  5
173
100
AcDbEntity
  8
Layer_1
 62
7
100
AcDbSpline
 70
8
 71
3
 72
8
 73
4
 74
0
 40
0
 40
0
 40
0
 40
0
 40
1
 40
1
 40
1
 40
1
 10
304.782190
 20
61.922800
 30
0.0
 10
305.684657
 20
61.659540
 30
0.0
 10
306.602289
 20
61.392020
 30
0.0
 10
307.506753
 20
61.128469
 30
0.0
  0
SPLINE
  5
174
100
AcDbEntity
  8
Layer_1
 62
7
100
AcDbSpline
 70
8
 71
3
 72
8
 73
4
 74
0
 40
0
 40
0
 40
0
 40
0
 40
1
 40
1
 40
1
 40
1
 10
307.506753
 20
61.128469
 30
0.0
 10
307.539278
 20
61.118944
 30
0.0
 10
307.570464
 20
61.105450
 30
0.0
 10
307.599560
 20
61.088041
 30
0.0
  0
SPLINE
  5
175
100
AcDbEntity
  8
Layer_1
 62
7
100
AcDbSpline
 70
8
 71
3
 72
8
 73
4
 74
0
 40
0
 40
0
 40
0
 40
0
 40
1
 40
1
 40
1
 40
1
 10
307.599560
 20
61.088041
 30
0.0
 10
307.628680
 20
61.070578
 30
0.0
 10
307.655472
 20
61.049703
 30
0.0
 10
307.679298
 20
61.025573
 30
0.0
  0
SPLINE
  5
176
100
AcDbEntity
  8
Layer_1
 62
7
100
AcDbSpline
 70
8
 71
3
 72
8
 73
4
 74
0
 40
0
 40
0
 40
0
 40
0
 40
1
 40
1
 40
1
 40
1
 10
307.679298
 20
61.025573
 30
0.0
 10
307.716072
 20
60.988346
 30
0.0
 10
307.745205
 20
60.944267
 30
0.0
 10
307.765076
 20
60.895848
 30
0.0
  0
SPLINE
  5
177
100
AcDbEntity
  8
Layer_1
 62
7
100
AcDbSpline
 70
8
 71
3
 72
8
 73
4
 74
0
 40
0
 40
0
 40
0
 40
0
 40
1
 40
1
 40
1
 40
1
 10
307.765076
 20
60.895848
 30
0.0
 10
307.784972
 20
60.847376
 30
0.0
 10
307.795206
 20
60.795491
 30
0.0
 10
307.795206
 20
60.743078
 30
0.0
  0
LWPOLYLINE
  5
178
100
AcDbEntity
  8
Layer_1
 62
7
100
AcDbPolyline
 90
2
 70
0
 10
26.647218
 20
119.001359
 30
0.0
 10
25.806035
 20
119.001359
 30
0.0
  0
SPLINE
  5
179
100
AcDbEntity
  8
Layer_1
 62
7
100
AcDbSpline
 70
8
 71
3
 72
8
 73
4
 74
0
 40
0
 40
0
 40
0
 40
0
 40
1
 40
1
 40
1
 40
1
 10
187.847015
 20
115.077204
 30
0.0
 10
187.847015
 20
115.666692
 30
0.0
 10
187.532527
 20
116.211401
 30
0.0
 10
187.022015
 20
116.506145
 30
0.0
  0
SPLINE
  5
17a
100
AcDbEntity
  8
Layer_1
 62
7
100
AcDbSpline
 70
8
 71
3
 72
8
 73
4
 74
0
 40
0
 40
0
 40
0
 40
0
 40
1
 40
1
 40
1
 40
1
 10
187.022015
 20
116.506145
 30
0.0
 10
186.511504
 20
116.800889
 30
0.0
 10
185.882527
 20
116.800889
 30
0.0
 10
185.372016
 20
116.506145
 30
0.0
  0
SPLINE
  5
17b
100
AcDbEntity
  8
Layer_1
 62
7
100
AcDbSpline
 70
8
 71
3
 72
8
 73
4
 74
0
 40
0
 40
0
 40
0
 40
0
 40
1
 40
1
 40
1
 40
1
 10
185.372016
 20
116.506145
 30
0.0
 10
184.861504
 20
116.211401
 30
0.0
 10
184.547016
 20
115.666692
 30
0.0
 10
184.547016
 20
115.077204
 30
0.0
  0
SPLINE
  5
17c
100
AcDbEntity
  8
Layer_1
 62
7
100
AcDbSpline
 70
8
 71
3
 72
8
 73
4
 74
0
 40
0
 40
0
 40
0
 40
0
 40
1
 40
1
 40
1
 40
1
 10
184.547016
 20
115.077204
 30
0.0
 10
184.547016
 20
114.487716
 30
0.0
 10
184.861504
 20
113.943007
 30
0.0
 10
185.372016
 20
113.648263
 30
0.0
  0
SPLINE
  5
17d
100
AcDbEntity
  8
Layer_1
 62
7
100
AcDbSpline
 70
8
 71
3
 72
8
 73
4
 74
0
 40
0
 40
0
 40
0
 40
0
 40
1
 40
1
 40
1
 40
1
 10
185.372016
 20
113.648263
 30
0.0
 10
185.882527
 20
113.353519
 30
0.0
 10
186.511504
 20
113.353519
 30
0.0
 10
187.022015
 20
113.648263
 30
0.0
  0
SPLINE
  5
17e
100
AcDbEntity
  8
Layer_1
 62
7
100
AcDbSpline
 70
8
 71
3
 72
8
 73
4
 74
0
 40
0
 40
0
 40
0
 40
0
 40
1
 40
1
 40
1
 40
1
 10
187.022015
 20
113.648263
 30
0.0
 10
187.532527
 20
113.943007
 30
0.0
 10
187.847015
 20
114.487716
 30
0.0
 10
187.847015
 20
115.077204
 30
0.0
  0
LWPOLYLINE
  5
17f
100
AcDbEntity
  8
Layer_1
 62
7
100
AcDbPolyline
 90
2
 70
0
 10
301.768757
 20
62.802724
 30
0.0
 10
301.801329
 20
40.011807
 30
0.0
  0
SPLINE
  5
180
100
AcDbEntity
  8
Layer_1
 62
7
100
AcDbSpline
 70
8
 71
3
 72
8
 73
4
 74
0
 40
0
 40
0
 40
0
 40
0
 40
1
 40
1
 40
1
 40
1
 10
159.922185
 20
68.519014
 30
0.0
 10
159.922185
 20
69.108501
 30
0.0
 10
159.607697
 20
69.653210
 30
0.0
 10
159.097186
 20
69.947954
 30
0.0
  0
SPLINE
  5
181
100
AcDbEntity
  8
Layer_1
 62
7
100
AcDbSpline
 70
8
 71
3
 72
8
 73
4
 74
0
 40
0
 40
0
 40
0
 40
0
 40
1
 40
1
 40
1
 40
1
 10
159.097186
 20
69.947954
 30
0.0
 10
158.586675
 20
70.242698
 30
0.0
 10
157.957699
 20
70.242698
 30
0.0
 10
157.447188
 20
69.947954
 30
0.0
  0
SPLINE
  5
182
100
AcDbEntity
  8
Layer_1
 62
7
100
AcDbSpline
 70
8
 71
3
 72
8
 73
4
 74
0
 40
0
 40
0
 40
0
 40
0
 40
1
 40
1
 40
1
 40
1
 10
157.447188
 20
69.947954
 30
0.0
 10
156.936677
 20
69.653210
 30
0.0
 10
156.622189
 20
69.108501
 30
0.0
 10
156.622189
 20
68.519014
 30
0.0
  0
SPLINE
  5
183
100
AcDbEntity
  8
Layer_1
 62
7
100
AcDbSpline
 70
8
 71
3
 72
8
 73
4
 74
0
 40
0
 40
0
 40
0
 40
0
 40
1
 40
1
 40
1
 40
1
 10
156.622189
 20
68.519014
 30
0.0
 10
156.622189
 20
67.929526
 30
0.0
 10
156.936677
 20
67.384817
 30
0.0
 10
157.447188
 20
67.090074
 30
0.0
  0
SPLINE
  5
184
100
AcDbEntity
  8
Layer_1
 62
7
100
AcDbSpline
 70
8
 71
3
 72
8
 73
4
 74
0
 40
0
 40
0
 40
0
 40
0
 40
1
 40
1
 40
1
 40
1
 10
157.447188
 20
67.090074
 30
0.0
 10
157.957699
 20
66.795330
 30
0.0
 10
158.586675
 20
66.795330
 30
0.0
 10
159.097186
 20
67.090074
 30
0.0
  0
SPLINE
  5
185
100
AcDbEntity
  8
Layer_1
 62
7
100
AcDbSpline
 70
8
 71
3
 72
8
 73
4
 74
0
 40
0
 40
0
 40
0
 40
0
 40
1
 40
1
 40
1
 40
1
 10
159.097186
 20
67.090074
 30
0.0
 10
159.607697
 20
67.384817
 30
0.0
 10
159.922185
 20
67.929526
 30
0.0
 10
159.922185
 20
68.519014
 30
0.0
  0
LWPOLYLINE
  5
186
100
AcDbEntity
  8
Layer_1
 62
7
100
AcDbPolyline
 90
1
 70
1
 10
187.847015
 20
115.077204
 30
0.0
  0
SPLINE
  5
187
100
AcDbEntity
  8
Layer_1
 62
7
100
AcDbSpline
 70
8
 71
3
 72
8
 73
4
 74
0
 40
0
 40
0
 40
0
 40
0
 40
1
 40
1
 40
1
 40
1
 10
271.976859
 20
11.087644
 30
0.0
 10
271.977095
 20
11.677289
 30
0.0
 10
271.662659
 20
12.222244
 30
0.0
 10
271.152051
 20
12.517135
 30
0.0
  0
SPLINE
  5
188
100
AcDbEntity
  8
Layer_1
 62
7
100
AcDbSpline
 70
8
 71
3
 72
8
 73
4
 74
0
 40
0
 40
0
 40
0
 40
0
 40
1
 40
1
 40
1
 40
1
 10
271.152051
 20
12.517135
 30
0.0
 10
270.641443
 20
12.812026
 30
0.0
 10
270.012280
 20
12.812026
 30
0.0
 10
269.501671
 20
12.517135
 30
0.0
  0
SPLINE
  5
189
100
AcDbEntity
  8
Layer_1
 62
7
100
AcDbSpline
 70
8
 71
3
 72
8
 73
4
 74
0
 40
0
 40
0
 40
0
 40
0
 40
1
 40
1
 40
1
 40
1
 10
269.501671
 20
12.517135
 30
0.0
 10
268.991063
 20
12.222244
 30
0.0
 10
268.676627
 20
11.677289
 30
0.0
 10
268.676863
 20
11.087644
 30
0.0
  0
SPLINE
  5
18a
100
AcDbEntity
  8
Layer_1
 62
7
100
AcDbSpline
 70
8
 71
3
 72
8
 73
4
 74
0
 40
0
 40
0
 40
0
 40
0
 40
1
 40
1
 40
1
 40
1
 10
268.676863
 20
11.087644
 30
0.0
 10
268.676627
 20
10.497999
 30
0.0
 10
268.991063
 20
9.953044
 30
0.0
 10
269.501671
 20
9.658153
 30
0.0
  0
SPLINE
  5
18b
100
AcDbEntity
  8
Layer_1
 62
7
100
AcDbSpline
 70
8
 71
3
 72
8
 73
4
 74
0
 40
0
 40
0
 40
0
 40
0
 40
1
 40
1
 40
1
 40
1
 10
269.501671
 20
9.658153
 30
0.0
 10
270.012280
 20
9.363263
 30
0.0
 10
270.641443
 20
9.363263
 30
0.0
 10
271.152051
 20
9.658153
 30
0.0
  0
SPLINE
  5
18c
100
AcDbEntity
  8
Layer_1
 62
7
100
AcDbSpline
 70
8
 71
3
 72
8
 73
4
 74
0
 40
0
 40
0
 40
0
 40
0
 40
1
 40
1
 40
1
 40
1
 10
271.152051
 20
9.658153
 30
0.0
 10
271.662659
 20
9.953044
 30
0.0
 10
271.977095
 20
10.497999
 30
0.0
 10
271.976859
 20
11.087644
 30
0.0
  0
LWPOLYLINE
  5
18d
100
AcDbEntity
  8
Layer_1
 62
7
100
AcDbPolyline
 90
1
 70
1
 10
159.922185
 20
68.519014
 30
0.0
  0
SPLINE
  5
18e
100
AcDbEntity
  8
Layer_1
 62
7
100
AcDbSpline
 70
8
 71
3
 72
8
 73
4
 74
0
 40
0
 40
0
 40
0
 40
0
 40
1
 40
1
 40
1
 40
1
 10
306.276227
 20
57.573902
 30
0.0
 10
306.276227
 20
58.163390
 30
0.0
 10
305.961739
 20
58.708099
 30
0.0
 10
305.451228
 20
59.002842
 30
0.0
  0
SPLINE
  5
18f
100
AcDbEntity
  8
Layer_1
 62
7
100
AcDbSpline
 70
8
 71
3
 72
8
 73
4
 74
0
 40
0
 40
0
 40
0
 40
0
 40
1
 40
1
 40
1
 40
1
 10
305.451228
 20
59.002842
 30
0.0
 10
304.940717
 20
59.297586
 30
0.0
 10
304.311742
 20
59.297586
 30
0.0
 10
303.801230
 20
59.002842
 30
0.0
  0
SPLINE
  5
190
100
AcDbEntity
  8
Layer_1
 62
7
100
AcDbSpline
 70
8
 71
3
 72
8
 73
4
 74
0
 40
0
 40
0
 40
0
 40
0
 40
1
 40
1
 40
1
 40
1
 10
303.801230
 20
59.002842
 30
0.0
 10
303.290719
 20
58.708099
 30
0.0
 10
302.976231
 20
58.163390
 30
0.0
 10
302.976231
 20
57.573902
 30
0.0
  0
SPLINE
  5
191
100
AcDbEntity
  8
Layer_1
 62
7
100
AcDbSpline
 70
8
 71
3
 72
8
 73
4
 74
0
 40
0
 40
0
 40
0
 40
0
 40
1
 40
1
 40
1
 40
1
 10
302.976231
 20
57.573902
 30
0.0
 10
302.976231
 20
56.984415
 30
0.0
 10
303.290719
 20
56.439706
 30
0.0
 10
303.801230
 20
56.144962
 30
0.0
  0
SPLINE
  5
192
100
AcDbEntity
  8
Layer_1
 62
7
100
AcDbSpline
 70
8
 71
3
 72
8
 73
4
 74
0
 40
0
 40
0
 40
0
 40
0
 40
1
 40
1
 40
1
 40
1
 10
303.801230
 20
56.144962
 30
0.0
 10
304.311742
 20
55.850218
 30
0.0
 10
304.940717
 20
55.850218
 30
0.0
 10
305.451228
 20
56.144962
 30
0.0
  0
SPLINE
  5
193
100
AcDbEntity
  8
Layer_1
 62
7
100
AcDbSpline
 70
8
 71
3
 72
8
 73
4
 74
0
 40
0
 40
0
 40
0
 40
0
 40
1
 40
1
 40
1
 40
1
 10
305.451228
 20
56.144962
 30
0.0
 10
305.961739
 20
56.439706
 30
0.0
 10
306.276227
 20
56.984415
 30
0.0
 10
306.276227
 20
57.573902
 30
0.0
  0
LWPOLYLINE
  5
194
100
AcDbEntity
  8
Layer_1
 62
7
100
AcDbPolyline
 90
1
 70
1
 10
271.976859
 20
11.087644
 30
0.0
  0
SPLINE
  5
195
100
AcDbEntity
  8
Layer_1
 62
7
100
AcDbSpline
 70
8
 71
3
 72
8
 73
4
 74
0
 40
0
 40
0
 40
0
 40
0
 40
1
 40
1
 40
1
 40
1
 10
276.282035
 20
118.597550
 30
0.0
 10
276.282271
 20
119.187195
 30
0.0
 10
275.967835
 20
119.732150
 30
0.0
 10
275.457227
 20
120.027041
 30
0.0
  0
SPLINE
  5
196
100
AcDbEntity
  8
Layer_1
 62
7
100
AcDbSpline
 70
8
 71
3
 72
8
 73
4
 74
0
 40
0
 40
0
 40
0
 40
0
 40
1
 40
1
 40
1
 40
1
 10
275.457227
 20
120.027041
 30
0.0
 10
274.946619
 20
120.321931
 30
0.0
 10
274.317455
 20
120.321931
 30
0.0
 10
273.806847
 20
120.027041
 30
0.0
  0
SPLINE
  5
197
100
AcDbEntity
  8
Layer_1
 62
7
100
AcDbSpline
 70
8
 71
3
 72
8
 73
4
 74
0
 40
0
 40
0
 40
0
 40
0
 40
1
 40
1
 40
1
 40
1
 10
273.806847
 20
120.027041
 30
0.0
 10
273.296239
 20
119.732150
 30
0.0
 10
272.981803
 20
119.187195
 30
0.0
 10
272.982039
 20
118.597550
 30
0.0
  0
SPLINE
  5
198
100
AcDbEntity
  8
Layer_1
 62
7
100
AcDbSpline
 70
8
 71
3
 72
8
 73
4
 74
0
 40
0
 40
0
 40
0
 40
0
 40
1
 40
1
 40
1
 40
1
 10
272.982039
 20
118.597550
 30
0.0
 10
272.981803
 20
118.007905
 30
0.0
 10
273.296239
 20
117.462950
 30
0.0
 10
273.806847
 20
117.168059
 30
0.0
  0
SPLINE
  5
199
100
AcDbEntity
  8
Layer_1
 62
7
100
AcDbSpline
 70
8
 71
3
 72
8
 73
4
 74
0
 40
0
 40
0
 40
0
 40
0
 40
1
 40
1
 40
1
 40
1
 10
273.806847
 20
117.168059
 30
0.0
 10
274.317455
 20
116.873168
 30
0.0
 10
274.946619
 20
116.873168
 30
0.0
 10
275.457227
 20
117.168059
 30
0.0
  0
SPLINE
  5
19a
100
AcDbEntity
  8
Layer_1
 62
7
100
AcDbSpline
 70
8
 71
3
 72
8
 73
4
 74
0
 40
0
 40
0
 40
0
 40
0
 40
1
 40
1
 40
1
 40
1
 10
275.457227
 20
117.168059
 30
0.0
 10
275.967835
 20
117.462950
 30
0.0
 10
276.282271
 20
118.007905
 30
0.0
 10
276.282035
 20
118.597550
 30
0.0
  0
LWPOLYLINE
  5
19b
100
AcDbEntity
  8
Layer_1
 62
7
100
AcDbPolyline
 90
1
 70
1
 10
306.276227
 20
57.573902
 30
0.0
  0
SPLINE
  5
19c
100
AcDbEntity
  8
Layer_1
 62
7
100
AcDbSpline
 70
8
 71
3
 72
8
 73
4
 74
0
 40
0
 40
0
 40
0
 40
0
 40
1
 40
1
 40
1
 40
1
 10
186.155832
 20
25.799280
 30
0.0
 10
186.156068
 20
26.388925
 30
0.0
 10
185.841632
 20
26.933881
 30
0.0
 10
185.331024
 20
27.228771
 30
0.0
  0
SPLINE
  5
19d
100
AcDbEntity
  8
Layer_1
 62
7
100
AcDbSpline
 70
8
 71
3
 72
8
 73
4
 74
0
 40
0
 40
0
 40
0
 40
0
 40
1
 40
1
 40
1
 40
1
 10
185.331024
 20
27.228771
 30
0.0
 10
184.820415
 20
27.523662
 30
0.0
 10
184.191252
 20
27.523662
 30
0.0
 10
183.680644
 20
27.228771
 30
0.0
  0
SPLINE
  5
19e
100
AcDbEntity
  8
Layer_1
 62
7
100
AcDbSpline
 70
8
 71
3
 72
8
 73
4
 74
0
 40
0
 40
0
 40
0
 40
0
 40
1
 40
1
 40
1
 40
1
 10
183.680644
 20
27.228771
 30
0.0
 10
183.170036
 20
26.933881
 30
0.0
 10
182.855600
 20
26.388925
 30
0.0
 10
182.855836
 20
25.799280
 30
0.0
  0
SPLINE
  5
19f
100
AcDbEntity
  8
Layer_1
 62
7
100
AcDbSpline
 70
8
 71
3
 72
8
 73
4
 74
0
 40
0
 40
0
 40
0
 40
0
 40
1
 40
1
 40
1
 40
1
 10
182.855836
 20
25.799280
 30
0.0
 10
182.855600
 20
25.209636
 30
0.0
 10
183.170036
 20
24.664680
 30
0.0
 10
183.680644
 20
24.369790
 30
0.0
  0
SPLINE
  5
1a0
100
AcDbEntity
  8
Layer_1
 62
7
100
AcDbSpline
 70
8
 71
3
 72
8
 73
4
 74
0
 40
0
 40
0
 40
0
 40
0
 40
1
 40
1
 40
1
 40
1
 10
183.680644
 20
24.369790
 30
0.0
 10
184.191252
 20
24.074899
 30
0.0
 10
184.820415
 20
24.074899
 30
0.0
 10
185.331024
 20
24.369790
 30
0.0
  0
SPLINE
  5
1a1
100
AcDbEntity
  8
Layer_1
 62
7
100
AcDbSpline
 70
8
 71
3
 72
8
 73
4
 74
0
 40
0
 40
0
 40
0
 40
0
 40
1
 40
1
 40
1
 40
1
 10
185.331024
 20
24.369790
 30
0.0
 10
185.841632
 20
24.664680
 30
0.0
 10
186.156068
 20
25.209636
 30
0.0
 10
186.155832
 20
25.799280
 30
0.0
  0
LWPOLYLINE
  5
1a2
100
AcDbEntity
  8
Layer_1
 62
7
100
AcDbPolyline
 90
1
 70
1
 10
276.282035
 20
118.597550
 30
0.0
  0
LWPOLYLINE
  5
1a3
100
AcDbEntity
  8
Layer_1
 62
7
100
AcDbPolyline
 90
1
 70
1
 10
186.155832
 20
25.799280
 30
0.0
  0
SPLINE
  5
1a4
100
AcDbEntity
  8
Layer_1
 62
7
100
AcDbSpline
 70
8
 71
3
 72
8
 73
4
 74
0
 40
0
 40
0
 40
0
 40
0
 40
1
 40
1
 40
1
 40
1
 10
302.178360
 20
23.535191
 30
0.0
 10
305.858144
 20
29.915838
 30
0.0
 10
307.795208
 20
37.152013
 30
0.0
 10
307.795206
 20
44.517709
 30
0.0
  0
LWPOLYLINE
  5
1a5
100
AcDbEntity
  8
Layer_1
 62
7
100
AcDbPolyline
 90
2
 70
0
 10
307.795206
 20
44.517709
 30
0.0
 10
307.795206
 20
60.743078
 30
0.0
  0
SPLINE
  5
1a6
100
AcDbEntity
  8
Layer_1
 62
7
100
AcDbSpline
 70
8
 71
3
 72
8
 73
4
 74
0
 40
0
 40
0
 40
0
 40
0
 40
1
 40
1
 40
1
 40
1
 10
281.132561
 20
1.076960
 30
0.0
 10
282.740994
 20
0.145844
 30
0.0
 10
284.653682
 20
-0.107424
 30
0.0
 10
286.449021
 20
0.372983
 30
0.0
  0
SPLINE
  5
1a7
100
AcDbEntity
  8
Layer_1
 62
7
100
AcDbSpline
 70
8
 71
3
 72
8
 73
4
 74
0
 40
0
 40
0
 40
0
 40
0
 40
1
 40
1
 40
1
 40
1
 10
286.449021
 20
0.372983
 30
0.0
 10
288.244360
 20
0.853390
 30
0.0
 10
289.774960
 20
2.028034
 30
0.0
 10
290.703437
 20
3.637992
 30
0.0
  0
LWPOLYLINE
  5
1a8
100
AcDbEntity
  8
Layer_1
 62
7
100
AcDbPolyline
 90
2
 70
0
 10
290.703437
 20
3.637992
 30
0.0
 10
302.178360
 20
23.535191
 30
0.0
  0
SPLINE
  5
1a9
100
AcDbEntity
  8
Layer_1
 62
7
100
AcDbSpline
 70
8
 71
3
 72
8
 73
4
 74
0
 40
0
 40
0
 40
0
 40
0
 40
1
 40
1
 40
1
 40
1
 10
271.778337
 20
6.492102
 30
0.0
 10
270.255761
 20
7.373512
 30
0.0
 10
268.527600
 20
7.837642
 30
0.0
 10
266.768304
 20
7.837639
 30
0.0
  0
LWPOLYLINE
  5
1aa
100
AcDbEntity
  8
Layer_1
 62
7
100
AcDbPolyline
 90
2
 70
0
 10
271.778337
 20
6.492102
 30
0.0
 10
281.132561
 20
1.076960
 30
0.0
  0
SPLINE
  5
1ab
100
AcDbEntity
  8
Layer_1
 62
7
100
AcDbSpline
 70
8
 71
3
 72
8
 73
4
 74
0
 40
0
 40
0
 40
0
 40
0
 40
1
 40
1
 40
1
 40
1
 10
201.714041
 20
16.513210
 30
0.0
 10
203.987552
 20
11.247561
 30
0.0
 10
209.174012
 20
7.837639
 30
0.0
 10
214.909508
 20
7.837639
 30
0.0
  0
SPLINE
  5
1ac
100
AcDbEntity
  8
Layer_1
 62
7
100
AcDbSpline
 70
8
 71
3
 72
8
 73
4
 74
0
 40
0
 40
0
 40
0
 40
0
 40
1
 40
1
 40
1
 40
1
 10
201.714041
 20
16.513210
 30
0.0
 10
200.132238
 20
20.176807
 30
0.0
 10
196.523737
 20
22.549274
 30
0.0
 10
192.533243
 20
22.549275
 30
0.0
  0
LWPOLYLINE
  5
1ad
100
AcDbEntity
  8
Layer_1
 62
7
100
AcDbPolyline
 90
2
 70
0
 10
214.909508
 20
7.837639
 30
0.0
 10
266.768304
 20
7.837639
 30
0.0
  0
SPLINE
  5
1ae
100
AcDbEntity
  8
Layer_1
 62
7
100
AcDbSpline
 70
8
 71
3
 72
8
 73
4
 74
0
 40
0
 40
0
 40
0
 40
0
 40
1
 40
1
 40
1
 40
1
 10
155.022205
 20
32.549270
 30
0.0
 10
155.022204
 20
29.897107
 30
0.0
 10
156.075770
 20
27.353569
 30
0.0
 10
157.951132
 20
25.478206
 30
0.0
  0
SPLINE
  5
1af
100
AcDbEntity
  8
Layer_1
 62
7
100
AcDbSpline
 70
8
 71
3
 72
8
 73
4
 74
0
 40
0
 40
0
 40
0
 40
0
 40
1
 40
1
 40
1
 40
1
 10
157.951132
 20
25.478206
 30
0.0
 10
159.826494
 20
23.602843
 30
0.0
 10
162.370031
 20
22.549275
 30
0.0
 10
165.022194
 20
22.549275
 30
0.0
  0
LWPOLYLINE
  5
1b0
100
AcDbEntity
  8
Layer_1
 62
7
100
AcDbPolyline
 90
2
 70
0
 10
165.022194
 20
22.549275
 30
0.0
 10
192.533243
 20
22.549275
 30
0.0
  0
SPLINE
  5
1b1
100
AcDbEntity
  8
Layer_1
 62
7
100
AcDbSpline
 70
8
 71
3
 72
8
 73
4
 74
0
 40
0
 40
0
 40
0
 40
0
 40
1
 40
1
 40
1
 40
1
 10
163.270845
 20
114.705759
 30
0.0
 10
158.498531
 20
113.856838
 30
0.0
 10
155.022206
 20
109.707559
 30
0.0
 10
155.022205
 20
104.860328
 30
0.0
  0
SPLINE
  5
1b2
100
AcDbEntity
  8
Layer_1
 62
7
100
AcDbSpline
 70
8
 71
3
 72
8
 73
4
 74
0
 40
0
 40
0
 40
0
 40
0
 40
1
 40
1
 40
1
 40
1
 10
244.161931
 20
121.844359
 30
0.0
 10
217.040945
 20
121.844358
 30
0.0
 10
189.972660
 20
119.455595
 30
0.0
 10
163.270845
 20
114.705759
 30
0.0
  0
LWPOLYLINE
  5
1b3
100
AcDbEntity
  8
Layer_1
 62
7
100
AcDbPolyline
 90
2
 70
0
 10
155.022205
 20
104.860328
 30
0.0
 10
155.022205
 20
32.549270
 30
0.0
  0
LWPOLYLINE
  5
1b4
100
AcDbEntity
  8
Layer_1
 62
7
100
AcDbPolyline
 90
2
 70
0
 10
283.420842
 20
121.844359
 30
0.0
 10
244.161931
 20
121.844359
 30
0.0
  0
LWPOLYLINE
  5
1b5
100
AcDbEntity
  8
Layer_1
 62
7
100
AcDbPolyline
 90
2
 70
0
 10
283.420842
 20
121.844359
 30
0.0
 10
283.420842
 20
119.002822
 30
0.0
  0
SPLINE
  5
1b6
100
AcDbEntity
  8
Layer_1
 62
7
100
AcDbSpline
 70
8
 71
3
 72
8
 73
4
 74
0
 40
0
 40
0
 40
0
 40
0
 40
1
 40
1
 40
1
 40
1
 10
281.280844
 20
119.002822
 30
0.0
 10
281.155375
 20
119.002822
 30
0.0
 10
281.034492
 20
118.955650
 30
0.0
 10
280.942186
 20
118.870668
 30
0.0
  0
LWPOLYLINE
  5
1b7
100
AcDbEntity
  8
Layer_1
 62
7
100
AcDbPolyline
 90
2
 70
0
 10
281.280844
 20
119.002822
 30
0.0
 10
283.420842
 20
119.002822
 30
0.0
  0
SPLINE
  5
1b8
100
AcDbEntity
  8
Layer_1
 62
7
100
AcDbSpline
 70
8
 71
3
 72
8
 73
4
 74
0
 40
0
 40
0
 40
0
 40
0
 40
1
 40
1
 40
1
 40
1
 10
279.643374
 20
117.674925
 30
0.0
 10
279.540540
 20
117.580252
 30
0.0
 10
279.482030
 20
117.446856
 30
0.0
 10
279.482029
 20
117.307078
 30
0.0
  0
LWPOLYLINE
  5
1b9
100
AcDbEntity
  8
Layer_1
 62
7
100
AcDbPolyline
 90
2
 70
0
 10
279.643374
 20
117.674925
 30
0.0
 10
280.942186
 20
118.870668
 30
0.0
  0
LWPOLYLINE
  5
1ba
100
AcDbEntity
  8
Layer_1
 62
7
100
AcDbPolyline
 90
2
 70
0
 10
279.482029
 20
115.746948
 30
0.0
 10
279.482029
 20
117.307078
 30
0.0
  0
LWPOLYLINE
  5
1bb
100
AcDbEntity
  8
Layer_1
 62
7
100
AcDbPolyline
 90
2
 70
0
 10
209.863169
 20
115.755621
 30
0.0
 10
279.482029
 20
115.746943
 30
0.0
  0
LWPOLYLINE
  5
1bc
100
AcDbEntity
  8
Layer_1
 62
7
100
AcDbPolyline
 90
2
 70
0
 10
163.593132
 20
108.794463
 30
0.0
 10
209.863169
 20
115.755621
 30
0.0
  0
LWPOLYLINE
  5
1bd
100
AcDbEntity
  8
Layer_1
 62
7
100
AcDbPolyline
 90
2
 70
0
 10
162.670161
 20
108.349921
 30
0.0
 10
163.593132
 20
108.794463
 30
0.0
  0
LWPOLYLINE
  5
1be
100
AcDbEntity
  8
Layer_1
 62
7
100
AcDbPolyline
 90
2
 70
0
 10
161.867745
 20
107.647840
 30
0.0
 10
162.670161
 20
108.349921
 30
0.0
  0
LWPOLYLINE
  5
1bf
100
AcDbEntity
  8
Layer_1
 62
7
100
AcDbPolyline
 90
2
 70
0
 10
161.383488
 20
106.812916
 30
0.0
 10
161.867745
 20
107.647840
 30
0.0
  0
LWPOLYLINE
  5
1c0
100
AcDbEntity
  8
Layer_1
 62
7
100
AcDbPolyline
 90
2
 70
0
 10
161.122198
 20
105.898404
 30
0.0
 10
161.383488
 20
106.812916
 30
0.0
  0
LWPOLYLINE
  5
1c1
100
AcDbEntity
  8
Layer_1
 62
7
100
AcDbPolyline
 90
2
 70
0
 10
161.122169
 20
30.910363
 30
0.0
 10
161.122198
 20
105.898404
 30
0.0
  0
LWPOLYLINE
  5
1c2
100
AcDbEntity
  8
Layer_1
 62
7
100
AcDbPolyline
 90
2
 70
0
 10
161.174036
 20
30.476870
 30
0.0
 10
161.122169
 20
30.910363
 30
0.0
  0
LWPOLYLINE
  5
1c3
100
AcDbEntity
  8
Layer_1
 62
7
100
AcDbPolyline
 90
2
 70
0
 10
161.306277
 20
30.050389
 30
0.0
 10
161.174036
 20
30.476870
 30
0.0
  0
LWPOLYLINE
  5
1c4
100
AcDbEntity
  8
Layer_1
 62
7
100
AcDbPolyline
 90
2
 70
0
 10
161.518931
 20
29.658356
 30
0.0
 10
161.306277
 20
30.050389
 30
0.0
  0
LWPOLYLINE
  5
1c5
100
AcDbEntity
  8
Layer_1
 62
7
100
AcDbPolyline
 90
2
 70
0
 10
161.800074
 20
29.317520
 30
0.0
 10
161.518931
 20
29.658356
 30
0.0
  0
LWPOLYLINE
  5
1c6
100
AcDbEntity
  8
Layer_1
 62
7
100
AcDbPolyline
 90
2
 70
0
 10
162.140892
 20
29.036374
 30
0.0
 10
161.800074
 20
29.317520
 30
0.0
  0
LWPOLYLINE
  5
1c7
100
AcDbEntity
  8
Layer_1
 62
7
100
AcDbPolyline
 90
2
 70
0
 10
162.532929
 20
28.823729
 30
0.0
 10
162.140892
 20
29.036374
 30
0.0
  0
LWPOLYLINE
  5
1c8
100
AcDbEntity
  8
Layer_1
 62
7
100
AcDbPolyline
 90
2
 70
0
 10
162.971770
 20
28.687654
 30
0.0
 10
162.532929
 20
28.823729
 30
0.0
  0
LWPOLYLINE
  5
1c9
100
AcDbEntity
  8
Layer_1
 62
7
100
AcDbPolyline
 90
2
 70
0
 10
163.411327
 20
28.649289
 30
0.0
 10
162.971770
 20
28.687654
 30
0.0
  0
LWPOLYLINE
  5
1ca
100
AcDbEntity
  8
Layer_1
 62
7
100
AcDbPolyline
 90
2
 70
0
 10
205.867529
 20
28.649263
 30
0.0
 10
163.411327
 20
28.649289
 30
0.0
  0
LWPOLYLINE
  5
1cb
100
AcDbEntity
  8
Layer_1
 62
7
100
AcDbPolyline
 90
2
 70
0
 10
206.453384
 20
28.590287
 30
0.0
 10
205.867529
 20
28.649263
 30
0.0
  0
LWPOLYLINE
  5
1cc
100
AcDbEntity
  8
Layer_1
 62
7
100
AcDbPolyline
 90
2
 70
0
 10
206.958524
 20
28.433654
 30
0.0
 10
206.453384
 20
28.590287
 30
0.0
  0
LWPOLYLINE
  5
1cd
100
AcDbEntity
  8
Layer_1
 62
7
100
AcDbPolyline
 90
2
 70
0
 10
207.415847
 20
28.185608
 30
0.0
 10
206.958524
 20
28.433654
 30
0.0
  0
LWPOLYLINE
  5
1ce
100
AcDbEntity
  8
Layer_1
 62
7
100
AcDbPolyline
 90
2
 70
0
 10
207.814868
 20
27.856440
 30
0.0
 10
207.415847
 20
28.185608
 30
0.0
  0
LWPOLYLINE
  5
1cf
100
AcDbEntity
  8
Layer_1
 62
7
100
AcDbPolyline
 90
2
 70
0
 10
208.144020
 20
27.457422
 30
0.0
 10
207.814868
 20
27.856440
 30
0.0
  0
LWPOLYLINE
  5
1d0
100
AcDbEntity
  8
Layer_1
 62
7
100
AcDbPolyline
 90
2
 70
0
 10
208.392085
 20
27.000090
 30
0.0
 10
208.144020
 20
27.457422
 30
0.0
  0
LWPOLYLINE
  5
1d1
100
AcDbEntity
  8
Layer_1
 62
7
100
AcDbPolyline
 90
2
 70
0
 10
208.552853
 20
26.481640
 30
0.0
 10
208.392085
 20
27.000090
 30
0.0
  0
LWPOLYLINE
  5
1d2
100
AcDbEntity
  8
Layer_1
 62
7
100
AcDbPolyline
 90
2
 70
0
 10
208.632821
 20
25.892546
 30
0.0
 10
208.552853
 20
26.481640
 30
0.0
  0
LWPOLYLINE
  5
1d3
100
AcDbEntity
  8
Layer_1
 62
7
100
AcDbPolyline
 90
2
 70
0
 10
208.633959
 20
16.171845
 30
0.0
 10
208.632900
 20
25.892546
 30
0.0
  0
LWPOLYLINE
  5
1d4
100
AcDbEntity
  8
Layer_1
 62
7
100
AcDbPolyline
 90
2
 70
0
 10
208.677427
 20
15.771928
 30
0.0
 10
208.633959
 20
16.171845
 30
0.0
  0
LWPOLYLINE
  5
1d5
100
AcDbEntity
  8
Layer_1
 62
7
100
AcDbPolyline
 90
2
 70
0
 10
208.810962
 20
15.341293
 30
0.0
 10
208.677427
 20
15.771928
 30
0.0
  0
LWPOLYLINE
  5
1d6
100
AcDbEntity
  8
Layer_1
 62
7
100
AcDbPolyline
 90
2
 70
0
 10
209.023615
 20
14.949260
 30
0.0
 10
208.810962
 20
15.341293
 30
0.0
  0
LWPOLYLINE
  5
1d7
100
AcDbEntity
  8
Layer_1
 62
7
100
AcDbPolyline
 90
2
 70
0
 10
209.304756
 20
14.608450
 30
0.0
 10
209.023615
 20
14.949260
 30
0.0
  0
LWPOLYLINE
  5
1d8
100
AcDbEntity
  8
Layer_1
 62
7
100
AcDbPolyline
 90
2
 70
0
 10
209.645576
 20
14.327305
 30
0.0
 10
209.304756
 20
14.608450
 30
0.0
  0
LWPOLYLINE
  5
1d9
100
AcDbEntity
  8
Layer_1
 62
7
100
AcDbPolyline
 90
2
 70
0
 10
210.037614
 20
14.114633
 30
0.0
 10
209.645576
 20
14.327305
 30
0.0
  0
LWPOLYLINE
  5
1da
100
AcDbEntity
  8
Layer_1
 62
7
100
AcDbPolyline
 90
2
 70
0
 10
210.471329
 20
13.980145
 30
0.0
 10
210.037614
 20
14.114633
 30
0.0
  0
LWPOLYLINE
  5
1db
100
AcDbEntity
  8
Layer_1
 62
7
100
AcDbPolyline
 90
2
 70
0
 10
210.893786
 20
13.937627
 30
0.0
 10
210.471329
 20
13.980145
 30
0.0
  0
LWPOLYLINE
  5
1dc
100
AcDbEntity
  8
Layer_1
 62
7
100
AcDbPolyline
 90
2
 70
0
 10
271.092287
 20
13.937627
 30
0.0
 10
210.893786
 20
13.937627
 30
0.0
  0
LWPOLYLINE
  5
1dd
100
AcDbEntity
  8
Layer_1
 62
7
100
AcDbPolyline
 90
2
 70
0
 10
283.649960
 20
6.668023
 30
0.0
 10
271.092287
 20
13.937627
 30
0.0
  0
LWPOLYLINE
  5
1de
100
AcDbEntity
  8
Layer_1
 62
7
100
AcDbPolyline
 90
2
 70
0
 10
283.902029
 20
6.539621
 30
0.0
 10
283.649960
 20
6.668023
 30
0.0
  0
LWPOLYLINE
  5
1df
100
AcDbEntity
  8
Layer_1
 62
7
100
AcDbPolyline
 90
2
 70
0
 10
284.217433
 20
6.445826
 30
0.0
 10
283.902029
 20
6.539621
 30
0.0
  0
LWPOLYLINE
  5
1e0
100
AcDbEntity
  8
Layer_1
 62
7
100
AcDbPolyline
 90
2
 70
0
 10
284.560917
 20
6.423892
 30
0.0
 10
284.217433
 20
6.445853
 30
0.0
  0
LWPOLYLINE
  5
1e1
100
AcDbEntity
  8
Layer_1
 62
7
100
AcDbPolyline
 90
2
 70
0
 10
284.907415
 20
6.492631
 30
0.0
 10
284.560917
 20
6.423892
 30
0.0
  0
LWPOLYLINE
  5
1e2
100
AcDbEntity
  8
Layer_1
 62
7
100
AcDbPolyline
 90
2
 70
0
 10
285.218924
 20
6.647994
 30
0.0
 10
284.907415
 20
6.492631
 30
0.0
  0
LWPOLYLINE
  5
1e3
100
AcDbEntity
  8
Layer_1
 62
7
100
AcDbPolyline
 90
2
 70
0
 10
285.471752
 20
6.863285
 30
0.0
 10
285.218924
 20
6.647994
 30
0.0
  0
LWPOLYLINE
  5
1e4
100
AcDbEntity
  8
Layer_1
 62
7
100
AcDbPolyline
 90
2
 70
0
 10
285.661836
 20
7.106120
 30
0.0
 10
285.471752
 20
6.863285
 30
0.0
  0
LWPOLYLINE
  5
1e5
100
AcDbEntity
  8
Layer_1
 62
7
100
AcDbPolyline
 90
2
 70
0
 10
300.371488
 20
32.612267
 30
0.0
 10
285.661836
 20
7.106120
 30
0.0
  0
LWPOLYLINE
  5
1e6
100
AcDbEntity
  8
Layer_1
 62
7
100
AcDbPolyline
 90
2
 70
0
 10
300.975709
 20
33.983415
 30
0.0
 10
300.371488
 20
32.612267
 30
0.0
  0
LWPOLYLINE
  5
1e7
100
AcDbEntity
  8
Layer_1
 62
7
100
AcDbPolyline
 90
2
 70
0
 10
301.265041
 20
35.082784
 30
0.0
 10
300.975709
 20
33.983415
 30
0.0
  0
LWPOLYLINE
  5
1e8
100
AcDbEntity
  8
Layer_1
 62
7
100
AcDbPolyline
 90
2
 70
0
 10
301.534791
 20
36.424591
 30
0.0
 10
301.265041
 20
35.082784
 30
0.0
  0
LWPOLYLINE
  5
1e9
100
AcDbEntity
  8
Layer_1
 62
7
100
AcDbPolyline
 90
2
 70
0
 10
301.667609
 20
37.927105
 30
0.0
 10
301.534791
 20
36.424591
 30
0.0
  0
LWPOLYLINE
  5
1ea
100
AcDbEntity
  8
Layer_1
 62
7
100
AcDbPolyline
 90
2
 70
0
 10
301.733384
 20
38.768267
 30
0.0
 10
301.667609
 20
37.927105
 30
0.0
  0
SPLINE
  5
1eb
100
AcDbEntity
  8
Layer_1
 62
7
100
AcDbSpline
 70
8
 71
3
 72
8
 73
4
 74
0
 40
0
 40
0
 40
0
 40
0
 40
1
 40
1
 40
1
 40
1
 10
307.795206
 20
114.844366
 30
0.0
 10
307.795207
 20
116.700880
 30
0.0
 10
307.057710
 20
118.481356
 30
0.0
 10
305.744956
 20
119.794109
 30
0.0
  0
SPLINE
  5
1ec
100
AcDbEntity
  8
Layer_1
 62
7
100
AcDbSpline
 70
8
 71
3
 72
8
 73
4
 74
0
 40
0
 40
0
 40
0
 40
0
 40
1
 40
1
 40
1
 40
1
 10
305.744956
 20
119.794109
 30
0.0
 10
304.432203
 20
121.106863
 30
0.0
 10
302.651727
 20
121.844360
 30
0.0
 10
300.795213
 20
121.844359
 30
0.0
  0
SPLINE
  5
1ed
100
AcDbEntity
  8
Layer_1
 62
7
100
AcDbSpline
 70
8
 71
3
 72
8
 73
4
 74
0
 40
0
 40
0
 40
0
 40
0
 40
1
 40
1
 40
1
 40
1
 10
299.960821
 20
118.502821
 30
0.0
 10
299.960821
 20
118.635429
 30
0.0
 10
299.908143
 20
118.762606
 30
0.0
 10
299.814376
 20
118.856375
 30
0.0
  0
SPLINE
  5
1ee
100
AcDbEntity
  8
Layer_1
 62
7
100
AcDbSpline
 70
8
 71
3
 72
8
 73
4
 74
0
 40
0
 40
0
 40
0
 40
0
 40
1
 40
1
 40
1
 40
1
 10
299.814376
 20
118.856375
 30
0.0
 10
299.720608
 20
118.950143
 30
0.0
 10
299.593431
 20
119.002822
 30
0.0
 10
299.460823
 20
119.002822
 30
0.0
  0
LWPOLYLINE
  5
1ef
100
AcDbEntity
  8
Layer_1
 62
7
100
AcDbPolyline
 90
2
 70
0
 10
301.801329
 20
40.011807
 30
0.0
 10
301.733384
 20
38.768267
 30
0.0
  0
LWPOLYLINE
  5
1f0
100
AcDbEntity
  8
Layer_1
 62
7
100
AcDbPolyline
 90
2
 70
0
 10
299.960821
 20
118.502821
 30
0.0
 10
299.960821
 20
115.739349
 30
0.0
  0
LWPOLYLINE
  5
1f1
100
AcDbEntity
  8
Layer_1
 62
7
100
AcDbPolyline
 90
2
 70
0
 10
297.320825
 20
119.002822
 30
0.0
 10
297.320825
 20
121.844359
 30
0.0
  0
LWPOLYLINE
  5
1f2
100
AcDbEntity
  8
Layer_1
 62
7
100
AcDbPolyline
 90
9
 70
0
 10
299.960821
 20
115.739349
 30
0.0
 10
300.239893
 20
115.711296
 30
0.0
 10
300.584229
 20
115.604666
 30
0.0
 10
300.895789
 20
115.435830
 30
0.0
 10
301.165989
 20
115.213096
 30
0.0
 10
301.388106
 20
114.944000
 30
0.0
 10
301.555458
 20
114.635708
 30
0.0
 10
301.660711
 20
114.296663
 30
0.0
 10
301.695650
 20
113.955229
 30
0.0
  0
LWPOLYLINE
  5
1f3
100
AcDbEntity
  8
Layer_1
 62
7
100
AcDbPolyline
 90
2
 70
0
 10
301.785859
 20
71.445037
 30
0.0
 10
301.756419
 20
71.436306
 30
0.0
  0
LWPOLYLINE
  5
1f4
100
AcDbEntity
  8
Layer_1
 62
7
100
AcDbPolyline
 90
2
 70
0
 10
301.695650
 20
113.955229
 30
0.0
 10
301.756419
 20
71.436412
 30
0.0
  0
LWPOLYLINE
  5
1f5
100
AcDbEntity
  8
Layer_1
 62
7
100
AcDbPolyline
 90
2
 70
0
 10
297.320825
 20
119.002822
 30
0.0
 10
299.460823
 20
119.002822
 30
0.0
  0
LWPOLYLINE
  5
1f6
100
AcDbEntity
  8
Layer_1
 62
7
100
AcDbPolyline
 90
2
 70
0
 10
300.795213
 20
121.844359
 30
0.0
 10
297.320825
 20
121.844359
 30
0.0
  0
SPLINE
  5
1f7
100
AcDbEntity
  8
Layer_1
 62
7
100
AcDbSpline
 70
8
 71
3
 72
8
 73
4
 74
0
 40
0
 40
0
 40
0
 40
0
 40
1
 40
1
 40
1
 40
1
 10
307.795206
 20
73.504446
 30
0.0
 10
307.795206
 20
73.470288
 30
0.0
 10
307.790867
 20
73.436289
 30
0.0
 10
307.782268
 20
73.403243
 30
0.0
  0
SPLINE
  5
1f8
100
AcDbEntity
  8
Layer_1
 62
7
100
AcDbSpline
 70
8
 71
3
 72
8
 73
4
 74
0
 40
0
 40
0
 40
0
 40
0
 40
1
 40
1
 40
1
 40
1
 10
307.782268
 20
73.403243
 30
0.0
 10
307.773696
 20
73.370196
 30
0.0
 10
307.760943
 20
73.338394
 30
0.0
 10
307.744309
 20
73.308575
 30
0.0
  0
SPLINE
  5
1f9
100
AcDbEntity
  8
Layer_1
 62
7
100
AcDbSpline
 70
8
 71
3
 72
8
 73
4
 74
0
 40
0
 40
0
 40
0
 40
0
 40
1
 40
1
 40
1
 40
1
 10
307.744309
 20
73.308575
 30
0.0
 10
307.718909
 20
73.263014
 30
0.0
 10
307.684888
 20
73.222850
 30
0.0
 10
307.644119
 20
73.190333
 30
0.0
  0
SPLINE
  5
1fa
100
AcDbEntity
  8
Layer_1
 62
7
100
AcDbSpline
 70
8
 71
3
 72
8
 73
4
 74
0
 40
0
 40
0
 40
0
 40
0
 40
1
 40
1
 40
1
 40
1
 10
307.644119
 20
73.190333
 30
0.0
 10
307.603487
 20
73.157921
 30
0.0
 10
307.556931
 20
73.133712
 30
0.0
 10
307.507041
 20
73.119134
 30
0.0
  0
SPLINE
  5
1fb
100
AcDbEntity
  8
Layer_1
 62
7
100
AcDbSpline
 70
8
 71
3
 72
8
 73
4
 74
0
 40
0
 40
0
 40
0
 40
0
 40
1
 40
1
 40
1
 40
1
 10
307.507046
 20
73.119134
 30
0.0
 10
306.600207
 20
72.854154
 30
0.0
 10
305.680082
 20
72.585126
 30
0.0
 10
304.775245
 20
72.320410
 30
0.0
  0
SPLINE
  5
1fc
100
AcDbEntity
  8
Layer_1
 62
7
100
AcDbSpline
 70
8
 71
3
 72
8
 73
4
 74
0
 40
0
 40
0
 40
0
 40
0
 40
1
 40
1
 40
1
 40
1
 10
304.775245
 20
72.320410
 30
0.0
 10
303.788985
 20
72.031883
 30
0.0
 10
302.774704
 20
71.734915
 30
0.0
 10
301.785859
 20
71.445037
 30
0.0
  0
SPLINE
  5
1fd
100
AcDbEntity
  8
Layer_1
 62
7
100
AcDbSpline
 70
8
 71
3
 72
8
 73
4
 74
0
 40
0
 40
0
 40
0
 40
0
 40
1
 40
1
 40
1
 40
1
 10
306.195437
 20
114.102694
 30
0.0
 10
306.195673
 20
114.692339
 30
0.0
 10
305.881237
 20
115.237295
 30
0.0
 10
305.370629
 20
115.532185
 30
0.0
  0
SPLINE
  5
1fe
100
AcDbEntity
  8
Layer_1
 62
7
100
AcDbSpline
 70
8
 71
3
 72
8
 73
4
 74
0
 40
0
 40
0
 40
0
 40
0
 40
1
 40
1
 40
1
 40
1
 10
305.370629
 20
115.532185
 30
0.0
 10
304.860021
 20
115.827076
 30
0.0
 10
304.230857
 20
115.827076
 30
0.0
 10
303.720249
 20
115.532185
 30
0.0
  0
SPLINE
  5
1ff
100
AcDbEntity
  8
Layer_1
 62
7
100
AcDbSpline
 70
8
 71
3
 72
8
 73
4
 74
0
 40
0
 40
0
 40
0
 40
0
 40
1
 40
1
 40
1
 40
1
 10
303.720249
 20
115.532185
 30
0.0
 10
303.209641
 20
115.237295
 30
0.0
 10
302.895205
 20
114.692339
 30
0.0
 10
302.895441
 20
114.102694
 30
0.0
  0
SPLINE
  5
200
100
AcDbEntity
  8
Layer_1
 62
7
100
AcDbSpline
 70
8
 71
3
 72
8
 73
4
 74
0
 40
0
 40
0
 40
0
 40
0
 40
1
 40
1
 40
1
 40
1
 10
302.895441
 20
114.102694
 30
0.0
 10
302.895205
 20
113.513050
 30
0.0
 10
303.209641
 20
112.968094
 30
0.0
 10
303.720249
 20
112.673204
 30
0.0
  0
SPLINE
  5
201
100
AcDbEntity
  8
Layer_1
 62
7
100
AcDbSpline
 70
8
 71
3
 72
8
 73
4
 74
0
 40
0
 40
0
 40
0
 40
0
 40
1
 40
1
 40
1
 40
1
 10
303.720249
 20
112.673204
 30
0.0
 10
304.230857
 20
112.378313
 30
0.0
 10
304.860021
 20
112.378313
 30
0.0
 10
305.370629
 20
112.673204
 30
0.0
  0
SPLINE
  5
202
100
AcDbEntity
  8
Layer_1
 62
7
100
AcDbSpline
 70
8
 71
3
 72
8
 73
4
 74
0
 40
0
 40
0
 40
0
 40
0
 40
1
 40
1
 40
1
 40
1
 10
305.370629
 20
112.673204
 30
0.0
 10
305.881237
 20
112.968094
 30
0.0
 10
306.195673
 20
113.513050
 30
0.0
 10
306.195437
 20
114.102694
 30
0.0
  0
LWPOLYLINE
  5
203
100
AcDbEntity
  8
Layer_1
 62
7
100
AcDbPolyline
 90
2
 70
0
 10
307.795206
 20
73.504446
 30
0.0
 10
307.795206
 20
114.844366
 30
0.0
  0
SPLINE
  5
204
100
AcDbEntity
  8
Layer_1
 62
7
100
AcDbSpline
 70
8
 71
3
 72
8
 73
4
 74
0
 40
0
 40
0
 40
0
 40
0
 40
1
 40
1
 40
1
 40
1
 10
306.247001
 20
78.023868
 30
0.0
 10
306.247238
 20
78.613513
 30
0.0
 10
305.932801
 20
79.158468
 30
0.0
 10
305.422193
 20
79.453359
 30
0.0
  0
SPLINE
  5
205
100
AcDbEntity
  8
Layer_1
 62
7
100
AcDbSpline
 70
8
 71
3
 72
8
 73
4
 74
0
 40
0
 40
0
 40
0
 40
0
 40
1
 40
1
 40
1
 40
1
 10
305.422193
 20
79.453359
 30
0.0
 10
304.911585
 20
79.748249
 30
0.0
 10
304.282422
 20
79.748249
 30
0.0
 10
303.771814
 20
79.453359
 30
0.0
  0
SPLINE
  5
206
100
AcDbEntity
  8
Layer_1
 62
7
100
AcDbSpline
 70
8
 71
3
 72
8
 73
4
 74
0
 40
0
 40
0
 40
0
 40
0
 40
1
 40
1
 40
1
 40
1
 10
303.771814
 20
79.453359
 30
0.0
 10
303.261206
 20
79.158468
 30
0.0
 10
302.946769
 20
78.613513
 30
0.0
 10
302.947006
 20
78.023868
 30
0.0
  0
SPLINE
  5
207
100
AcDbEntity
  8
Layer_1
 62
7
100
AcDbSpline
 70
8
 71
3
 72
8
 73
4
 74
0
 40
0
 40
0
 40
0
 40
0
 40
1
 40
1
 40
1
 40
1
 10
302.947006
 20
78.023868
 30
0.0
 10
302.946769
 20
77.434223
 30
0.0
 10
303.261206
 20
76.889268
 30
0.0
 10
303.771814
 20
76.594377
 30
0.0
  0
SPLINE
  5
208
100
AcDbEntity
  8
Layer_1
 62
7
100
AcDbSpline
 70
8
 71
3
 72
8
 73
4
 74
0
 40
0
 40
0
 40
0
 40
0
 40
1
 40
1
 40
1
 40
1
 10
303.771814
 20
76.594377
 30
0.0
 10
304.282422
 20
76.299486
 30
0.0
 10
304.911585
 20
76.299486
 30
0.0
 10
305.422193
 20
76.594377
 30
0.0
  0
SPLINE
  5
209
100
AcDbEntity
  8
Layer_1
 62
7
100
AcDbSpline
 70
8
 71
3
 72
8
 73
4
 74
0
 40
0
 40
0
 40
0
 40
0
 40
1
 40
1
 40
1
 40
1
 10
305.422193
 20
76.594377
 30
0.0
 10
305.932801
 20
76.889268
 30
0.0
 10
306.247238
 20
77.434223
 30
0.0
 10
306.247001
 20
78.023868
 30
0.0
  0
LWPOLYLINE
  5
20a
100
AcDbEntity
  8
Layer_1
 62
7
100
AcDbPolyline
 90
1
 70
1
 10
306.195437
 20
114.102694
 30
0.0
  0
LWPOLYLINE
  5
20b
100
AcDbEntity
  8
Layer_1
 62
7
100
AcDbPolyline
 90
1
 70
1
 10
306.247001
 20
78.023868
 30
0.0
  0
ENDSEC
  0
SECTION
  2
OBJECTS
  0
DICTIONARY
  5
C
330
0
100
AcDbDictionary
  3
ACAD_GROUP
350
D
  3
ACAD_MLINESTYLE
350
17
  0
DICTIONARY
  5
D
330
C
100
AcDbDictionary
  0
DICTIONARY
  5
1A
330
C
100
AcDbDictionary
  0
DICTIONARY
  5
17
330
C
100
AcDbDictionary
  3
STANDARD
350
18
  0
DICTIONARY
  5
19
330
C
100
AcDbDictionary
  0
ENDSEC
  0
EOF
