  0
SECTION
  2
HEADER
  9
$ACADVER
  1
AC1014
  9
$HANDSEED
  5
FFFF
  9
$MEASUREMENT
 70
     1
  0
ENDSEC
  0
SECTION
  2
TABLES
  0
TABLE
  2
VPORT
  5
8
330
0
100
AcDbSymbolTable
 70
     4
  0
VPORT
  5
2E
330
8
100
AcDbSymbolTableRecord
100
AcDbViewportTableRecord
  2
*ACTIVE
 70
     0
 10
0.0
 20
0.0
 11
1.0
 21
1.0
 12
210.0
 22
148.5
 13
0.0
 23
0.0
 14
10.0
 24
10.0
 15
10.0
 25
10.0
 16
0.0
 26
0.0
 36
1.0
 17
0.0
 27
0.0
 37
0.0
 40
341.0
 41
1.24
 42
50.0
 43
0.0
 44
0.0
 50
0.0
 51
0.0
 71
     0
 72
   100
 73
     1
 74
     3
 75
     0
 76
     0
 77
     0
 78
     0
  0
ENDTAB
  0
TABLE
  2
LTYPE
  5
5
330
0
100
AcDbSymbolTable
 70
     1
  0
LTYPE
  5
14
330
5
100
AcDbSymbolTableRecord
100
AcDbLinetypeTableRecord
  2
BYBLOCK
 70
     0
  3

 72
    65
 73
     0
 40
0.0
  0
LTYPE
  5
15
330
5
100
AcDbSymbolTableRecord
100
AcDbLinetypeTableRecord
  2
BYLAYER
 70
     0
  3

 72
    65
 73
     0
 40
0.0
  0
LTYPE
  5
16
330
5
100
AcDbSymbolTableRecord
100
AcDbLinetypeTableRecord
  2
CONTINUOUS
 70
     0
  3
Solid line
 72
    65
 73
     0
 40
0.0
  0
ENDTAB
  0
TABLE
  2
LAYER
  5
2
100
AcDbSymbolTable
 70
2
  0
LAYER
  5
50
100
AcDbSymbolTableRecord
100
AcDbLayerTableRecord
  2
0
 70
0
  6
CONTINUOUS
  0
LAYER
  5
51
100
AcDbSymbolTableRecord
100
AcDbLayerTableRecord
  2
Layer_1
 70
0
  6
CONTINUOUS
  0
ENDTAB
  0
TABLE
  2
STYLE
  5
3
330
0
100
AcDbSymbolTable
 70
     1
  0
STYLE
  5
11
330
3
100
AcDbSymbolTableRecord
100
AcDbTextStyleTableRecord
  2
STANDARD
 70
     0
 40
0.0
 41
1.0
 50
0.0
 71
     0
 42
2.5
  3
txt
  4

  0
ENDTAB
  0
TABLE
  2
VIEW
  5
6
330
0
100
AcDbSymbolTable
 70
     0
  0
ENDTAB
  0
TABLE
  2
UCS
  5
7
330
0
100
AcDbSymbolTable
 70
     0
  0
ENDTAB
  0
TABLE
  2
APPID
  5
9
330
0
100
AcDbSymbolTable
 70
     2
  0
APPID
  5
12
330
9
100
AcDbSymbolTableRecord
100
AcDbRegAppTableRecord
  2
ACAD
 70
     0
  0
ENDTAB
  0
TABLE
  2
DIMSTYLE
  5
A
330
0
100
AcDbSymbolTable
 70
     1
  0
DIMSTYLE
105
27
330
A
100
AcDbSymbolTableRecord
100
AcDbDimStyleTableRecord
  2
ISO-25
 70
     0
  3

  4

  5

  6

  7

 40
1.0
 41
2.5
 42
0.625
 43
3.75
 44
1.25
 45
0.0
 46
0.0
 47
0.0
 48
0.0
140
2.5
141
2.5
142
0.0
143
0.03937007874016
144
1.0
145
0.0
146
1.0
147
0.625
 71
     0
 72
     0
 73
     0
 74
     0
 75
     0
 76
     0
 77
     1
 78
     8
170
     0
171
     3
172
     1
173
     0
174
     0
175
     0
176
     0
177
     0
178
     0
270
     2
271
     2
272
     2
273
     2
274
     3
340
11
275
     0
280
     0
281
     0
282
     0
283
     0
284
     8
285
     0
286
     0
287
     3
288
     0
  0
ENDTAB
  0
TABLE
  2
BLOCK_RECORD
  5
1
330
0
100
AcDbSymbolTable
 70
     1
  0
BLOCK_RECORD
  5
1F
330
1
100
AcDbSymbolTableRecord
100
AcDbBlockTableRecord
  2
*MODEL_SPACE
  0
BLOCK_RECORD
  5
1B
330
1
100
AcDbSymbolTableRecord
100
AcDbBlockTableRecord
  2
*PAPER_SPACE
  0
ENDTAB
  0
ENDSEC
  0
SECTION
  2
BLOCKS
  0
BLOCK
  5
20
330
1F
100
AcDbEntity
  8
0
100
AcDbBlockBegin
  2
*MODEL_SPACE
 70
     0
 10
0.0
 20
0.0
 30
0.0
  3
*MODEL_SPACE
  1

  0
ENDBLK
  5
21
330
1F
100
AcDbEntity
  8
0
100
AcDbBlockEnd
  0
BLOCK
  5
1C
330
1B
100
AcDbEntity
 67
     1
  8
0
100
AcDbBlockBegin
  2
*PAPER_SPACE
  1

  0
ENDBLK
  5
1D
330
1B
100
AcDbEntity
 67
     1
  8
0
100
AcDbBlockEnd
  0
ENDSEC
  0
SECTION
  2
ENTITIES
  0
SPLINE
  5
100
100
AcDbEntity
  8
Layer_1
 62
7
100
AcDbSpline
 70
8
 71
3
 72
8
 73
4
 74
0
 40
0
 40
0
 40
0
 40
0
 40
1
 40
1
 40
1
 40
1
 10
302.178896
 20
23.534545
 30
0.0
 10
305.858692
 20
29.915198
 30
0.0
 10
307.795762
 20
37.151410
 30
0.0
 10
307.795762
 20
44.517136
 30
0.0
  0
SPLINE
  5
101
100
AcDbEntity
  8
Layer_1
 62
7
100
AcDbSpline
 70
8
 71
3
 72
8
 73
4
 74
0
 40
0
 40
0
 40
0
 40
0
 40
1
 40
1
 40
1
 40
1
 10
163.270944
 20
114.705398
 30
0.0
 10
158.498613
 20
113.856475
 30
0.0
 10
155.022278
 20
109.707180
 30
0.0
 10
155.022278
 20
104.859934
 30
0.0
  0
LWPOLYLINE
  5
102
100
AcDbEntity
  8
Layer_1
 62
7
100
AcDbPolyline
 90
2
 70
0
 10
300.795747
 20
121.844018
 30
0.0
 10
244.162286
 20
121.844018
 30
0.0
  0
LWPOLYLINE
  5
103
100
AcDbEntity
  8
Layer_1
 62
7
100
AcDbPolyline
 90
2
 70
0
 10
165.022296
 20
22.548626
 30
0.0
 10
192.533433
 20
22.548626
 30
0.0
  0
SPLINE
  5
104
100
AcDbEntity
  8
Layer_1
 62
7
100
AcDbSpline
 70
8
 71
3
 72
8
 73
4
 74
0
 40
0
 40
0
 40
0
 40
0
 40
1
 40
1
 40
1
 40
1
 10
286.449508
 20
0.372259
 30
0.0
 10
288.244853
 20
0.852664
 30
0.0
 10
289.775458
 20
2.027311
 30
0.0
 10
290.703936
 20
3.637278
 30
0.0
  0
LWPOLYLINE
  5
105
100
AcDbEntity
  8
Layer_1
 62
7
100
AcDbPolyline
 90
2
 70
0
 10
155.022278
 20
104.859934
 30
0.0
 10
155.022278
 20
32.548655
 30
0.0
  0
SPLINE
  5
106
100
AcDbEntity
  8
Layer_1
 62
7
100
AcDbSpline
 70
8
 71
3
 72
8
 73
4
 74
0
 40
0
 40
0
 40
0
 40
0
 40
1
 40
1
 40
1
 40
1
 10
307.795762
 20
114.844006
 30
0.0
 10
307.795759
 20
118.710006
 30
0.0
 10
304.661746
 20
121.844018
 30
0.0
 10
300.795747
 20
121.844018
 30
0.0
  0
LWPOLYLINE
  5
107
100
AcDbEntity
  8
Layer_1
 62
7
100
AcDbPolyline
 90
2
 70
0
 10
271.778776
 20
6.491398
 30
0.0
 10
281.133033
 20
1.076238
 30
0.0
  0
SPLINE
  5
108
100
AcDbEntity
  8
Layer_1
 62
7
100
AcDbSpline
 70
8
 71
3
 72
8
 73
4
 74
0
 40
0
 40
0
 40
0
 40
0
 40
1
 40
1
 40
1
 40
1
 10
281.133033
 20
1.076238
 30
0.0
 10
282.741470
 20
0.145114
 30
0.0
 10
284.654163
 20
-0.108146
 30
0.0
 10
286.449508
 20
0.372259
 30
0.0
  0
SPLINE
  5
109
100
AcDbEntity
  8
Layer_1
 62
7
100
AcDbSpline
 70
8
 71
3
 72
8
 73
4
 74
0
 40
0
 40
0
 40
0
 40
0
 40
1
 40
1
 40
1
 40
1
 10
157.951212
 20
25.477570
 30
0.0
 10
159.826581
 20
23.602199
 30
0.0
 10
162.370125
 20
22.548626
 30
0.0
 10
165.022296
 20
22.548626
 30
0.0
  0
SPLINE
  5
10a
100
AcDbEntity
  8
Layer_1
 62
7
100
AcDbSpline
 70
8
 71
3
 72
8
 73
4
 74
0
 40
0
 40
0
 40
0
 40
0
 40
1
 40
1
 40
1
 40
1
 10
201.714258
 20
16.512541
 30
0.0
 10
203.987777
 20
11.246871
 30
0.0
 10
209.174254
 20
7.836939
 30
0.0
 10
214.909770
 20
7.836939
 30
0.0
  0
SPLINE
  5
10b
100
AcDbEntity
  8
Layer_1
 62
7
100
AcDbSpline
 70
8
 71
3
 72
8
 73
4
 74
0
 40
0
 40
0
 40
0
 40
0
 40
1
 40
1
 40
1
 40
1
 10
192.533433
 20
22.548626
 30
0.0
 10
196.523941
 20
22.548626
 30
0.0
 10
200.132450
 20
20.176155
 30
0.0
 10
201.714258
 20
16.512541
 30
0.0
  0
SPLINE
  5
10c
100
AcDbEntity
  8
Layer_1
 62
7
100
AcDbSpline
 70
8
 71
3
 72
8
 73
4
 74
0
 40
0
 40
0
 40
0
 40
0
 40
1
 40
1
 40
1
 40
1
 10
270.852299
 20
10.177634
 30
0.0
 10
270.527427
 20
9.990070
 30
0.0
 10
270.127169
 20
9.990070
 30
0.0
 10
269.802297
 20
10.177634
 30
0.0
  0
SPLINE
  5
10d
100
AcDbEntity
  8
Layer_1
 62
7
100
AcDbSpline
 70
8
 71
3
 72
8
 73
4
 74
0
 40
0
 40
0
 40
0
 40
0
 40
1
 40
1
 40
1
 40
1
 10
271.377299
 20
11.086956
 30
0.0
 10
271.377299
 20
10.711829
 30
0.0
 10
271.177171
 20
10.365198
 30
0.0
 10
270.852299
 20
10.177634
 30
0.0
  0
LWPOLYLINE
  5
10e
100
AcDbEntity
  8
Layer_1
 62
7
100
AcDbPolyline
 90
2
 70
0
 10
307.795762
 20
44.517136
 30
0.0
 10
307.795762
 20
114.844006
 30
0.0
  0
SPLINE
  5
10f
100
AcDbEntity
  8
Layer_1
 62
7
100
AcDbSpline
 70
8
 71
3
 72
8
 73
4
 74
0
 40
0
 40
0
 40
0
 40
0
 40
1
 40
1
 40
1
 40
1
 10
150.180643
 20
69.426364
 30
0.0
 10
149.855771
 20
69.613927
 30
0.0
 10
149.455512
 20
69.613927
 30
0.0
 10
149.130640
 20
69.426364
 30
0.0
  0
SPLINE
  5
110
100
AcDbEntity
  8
Layer_1
 62
7
100
AcDbSpline
 70
8
 71
3
 72
8
 73
4
 74
0
 40
0
 40
0
 40
0
 40
0
 40
1
 40
1
 40
1
 40
1
 10
149.130640
 20
69.426364
 30
0.0
 10
148.805769
 20
69.238800
 30
0.0
 10
148.605639
 20
68.892169
 30
0.0
 10
148.605639
 20
68.517042
 30
0.0
  0
SPLINE
  5
111
100
AcDbEntity
  8
Layer_1
 62
7
100
AcDbSpline
 70
8
 71
3
 72
8
 73
4
 74
0
 40
0
 40
0
 40
0
 40
0
 40
1
 40
1
 40
1
 40
1
 10
150.705644
 20
68.517042
 30
0.0
 10
150.705644
 20
68.892169
 30
0.0
 10
150.505515
 20
69.238800
 30
0.0
 10
150.180643
 20
69.426364
 30
0.0
  0
SPLINE
  5
112
100
AcDbEntity
  8
Layer_1
 62
7
100
AcDbSpline
 70
8
 71
3
 72
8
 73
4
 74
0
 40
0
 40
0
 40
0
 40
0
 40
1
 40
1
 40
1
 40
1
 10
148.605639
 20
68.517042
 30
0.0
 10
148.605639
 20
68.141915
 30
0.0
 10
148.805769
 20
67.795283
 30
0.0
 10
149.130640
 20
67.607720
 30
0.0
  0
SPLINE
  5
113
100
AcDbEntity
  8
Layer_1
 62
7
100
AcDbSpline
 70
8
 71
3
 72
8
 73
4
 74
0
 40
0
 40
0
 40
0
 40
0
 40
1
 40
1
 40
1
 40
1
 10
150.180643
 20
67.607720
 30
0.0
 10
150.505515
 20
67.795283
 30
0.0
 10
150.705644
 20
68.141915
 30
0.0
 10
150.705644
 20
68.517042
 30
0.0
  0
SPLINE
  5
114
100
AcDbEntity
  8
Layer_1
 62
7
100
AcDbSpline
 70
8
 71
3
 72
8
 73
4
 74
0
 40
0
 40
0
 40
0
 40
0
 40
1
 40
1
 40
1
 40
1
 10
244.162286
 20
121.844018
 30
0.0
 10
217.041213
 20
121.844018
 30
0.0
 10
189.972843
 20
119.455248
 30
0.0
 10
163.270944
 20
114.705398
 30
0.0
  0
SPLINE
  5
115
100
AcDbEntity
  8
Layer_1
 62
7
100
AcDbSpline
 70
8
 71
3
 72
8
 73
4
 74
0
 40
0
 40
0
 40
0
 40
0
 40
1
 40
1
 40
1
 40
1
 10
269.802297
 20
10.177634
 30
0.0
 10
269.477425
 20
10.365198
 30
0.0
 10
269.277294
 20
10.711829
 30
0.0
 10
269.277294
 20
11.086956
 30
0.0
  0
LWPOLYLINE
  5
116
100
AcDbEntity
  8
Layer_1
 62
7
100
AcDbPolyline
 90
2
 70
0
 10
290.703936
 20
3.637278
 30
0.0
 10
302.178896
 20
23.534545
 30
0.0
  0
SPLINE
  5
117
100
AcDbEntity
  8
Layer_1
 62
7
100
AcDbSpline
 70
8
 71
3
 72
8
 73
4
 74
0
 40
0
 40
0
 40
0
 40
0
 40
1
 40
1
 40
1
 40
1
 10
155.022278
 20
32.548655
 30
0.0
 10
155.022276
 20
29.896466
 30
0.0
 10
156.075845
 20
27.352941
 30
0.0
 10
157.951212
 20
25.477570
 30
0.0
  0
SPLINE
  5
118
100
AcDbEntity
  8
Layer_1
 62
7
100
AcDbSpline
 70
8
 71
3
 72
8
 73
4
 74
0
 40
0
 40
0
 40
0
 40
0
 40
1
 40
1
 40
1
 40
1
 10
149.130640
 20
67.607720
 30
0.0
 10
149.455512
 20
67.420156
 30
0.0
 10
149.855771
 20
67.420156
 30
0.0
 10
150.180643
 20
67.607720
 30
0.0
  0
SPLINE
  5
119
100
AcDbEntity
  8
Layer_1
 62
7
100
AcDbSpline
 70
8
 71
3
 72
8
 73
4
 74
0
 40
0
 40
0
 40
0
 40
0
 40
1
 40
1
 40
1
 40
1
 10
266.768729
 20
7.836939
 30
0.0
 10
268.528029
 20
7.836939
 30
0.0
 10
270.256196
 20
7.372806
 30
0.0
 10
271.778776
 20
6.491398
 30
0.0
  0
SPLINE
  5
11a
100
AcDbEntity
  8
Layer_1
 62
7
100
AcDbSpline
 70
8
 71
3
 72
8
 73
4
 74
0
 40
0
 40
0
 40
0
 40
0
 40
1
 40
1
 40
1
 40
1
 10
2.776133
 20
58.481241
 30
0.0
 10
2.451261
 20
58.293651
 30
0.0
 10
2.251133
 20
57.947019
 30
0.0
 10
2.251133
 20
57.571892
 30
0.0
  0
SPLINE
  5
11b
100
AcDbEntity
  8
Layer_1
 62
7
100
AcDbSpline
 70
8
 71
3
 72
8
 73
4
 74
0
 40
0
 40
0
 40
0
 40
0
 40
1
 40
1
 40
1
 40
1
 10
122.896911
 20
26.706510
 30
0.0
 10
122.572039
 20
26.518946
 30
0.0
 10
122.371907
 20
26.172315
 30
0.0
 10
122.371907
 20
25.797188
 30
0.0
  0
SPLINE
  5
11c
100
AcDbEntity
  8
Layer_1
 62
7
100
AcDbSpline
 70
8
 71
3
 72
8
 73
4
 74
0
 40
0
 40
0
 40
0
 40
0
 40
1
 40
1
 40
1
 40
1
 10
120.680719
 20
115.075382
 30
0.0
 10
120.680719
 20
114.700249
 30
0.0
 10
120.880850
 20
114.353618
 30
0.0
 10
121.205722
 20
114.166052
 30
0.0
  0
SPLINE
  5
11d
100
AcDbEntity
  8
Layer_1
 62
7
100
AcDbSpline
 70
8
 71
3
 72
8
 73
4
 74
0
 40
0
 40
0
 40
0
 40
0
 40
1
 40
1
 40
1
 40
1
 10
121.205722
 20
114.166052
 30
0.0
 10
121.530594
 20
113.978485
 30
0.0
 10
121.930851
 20
113.978485
 30
0.0
 10
122.255723
 20
114.166052
 30
0.0
  0
SPLINE
  5
11e
100
AcDbEntity
  8
Layer_1
 62
7
100
AcDbSpline
 70
8
 71
3
 72
8
 73
4
 74
0
 40
0
 40
0
 40
0
 40
0
 40
1
 40
1
 40
1
 40
1
 10
3.855363
 20
78.931251
 30
0.0
 10
3.530491
 20
79.118814
 30
0.0
 10
3.130234
 20
79.118814
 30
0.0
 10
2.805362
 20
78.931251
 30
0.0
  0
SPLINE
  5
11f
100
AcDbEntity
  8
Layer_1
 62
7
100
AcDbSpline
 70
8
 71
3
 72
8
 73
4
 74
0
 40
0
 40
0
 40
0
 40
0
 40
1
 40
1
 40
1
 40
1
 10
121.205722
 20
115.984709
 30
0.0
 10
120.880850
 20
115.797145
 30
0.0
 10
120.680719
 20
115.450509
 30
0.0
 10
120.680719
 20
115.075382
 30
0.0
  0
SPLINE
  5
120
100
AcDbEntity
  8
Layer_1
 62
7
100
AcDbSpline
 70
8
 71
3
 72
8
 73
4
 74
0
 40
0
 40
0
 40
0
 40
0
 40
1
 40
1
 40
1
 40
1
 10
32.770421
 20
117.686410
 30
0.0
 10
33.095296
 20
117.498843
 30
0.0
 10
33.495553
 20
117.498843
 30
0.0
 10
33.820425
 20
117.686410
 30
0.0
  0
SPLINE
  5
121
100
AcDbEntity
  8
Layer_1
 62
7
100
AcDbSpline
 70
8
 71
3
 72
8
 73
4
 74
0
 40
0
 40
0
 40
0
 40
0
 40
1
 40
1
 40
1
 40
1
 10
33.820425
 20
117.686410
 30
0.0
 10
34.145297
 20
117.873973
 30
0.0
 10
34.345426
 20
118.220607
 30
0.0
 10
34.345426
 20
118.595737
 30
0.0
  0
SPLINE
  5
122
100
AcDbEntity
  8
Layer_1
 62
7
100
AcDbSpline
 70
8
 71
3
 72
8
 73
4
 74
0
 40
0
 40
0
 40
0
 40
0
 40
1
 40
1
 40
1
 40
1
 10
37.075612
 20
11.994823
 30
0.0
 10
36.750740
 20
11.807259
 30
0.0
 10
36.550611
 20
11.460628
 30
0.0
 10
36.550611
 20
11.085501
 30
0.0
  0
SPLINE
  5
123
100
AcDbEntity
  8
Layer_1
 62
7
100
AcDbSpline
 70
8
 71
3
 72
8
 73
4
 74
0
 40
0
 40
0
 40
0
 40
0
 40
1
 40
1
 40
1
 40
1
 10
123.946912
 20
26.706510
 30
0.0
 10
123.622040
 20
26.894073
 30
0.0
 10
123.221782
 20
26.894073
 30
0.0
 10
122.896911
 20
26.706510
 30
0.0
  0
SPLINE
  5
124
100
AcDbEntity
  8
Layer_1
 62
7
100
AcDbSpline
 70
8
 71
3
 72
8
 73
4
 74
0
 40
0
 40
0
 40
0
 40
0
 40
1
 40
1
 40
1
 40
1
 10
122.780724
 20
115.075382
 30
0.0
 10
122.780724
 20
115.450509
 30
0.0
 10
122.580595
 20
115.797145
 30
0.0
 10
122.255723
 20
115.984709
 30
0.0
  0
SPLINE
  5
125
100
AcDbEntity
  8
Layer_1
 62
7
100
AcDbSpline
 70
8
 71
3
 72
8
 73
4
 74
0
 40
0
 40
0
 40
0
 40
0
 40
1
 40
1
 40
1
 40
1
 10
4.431929
 20
114.100871
 30
0.0
 10
4.431929
 20
114.475998
 30
0.0
 10
4.231797
 20
114.822635
 30
0.0
 10
3.906925
 20
115.010199
 30
0.0
  0
SPLINE
  5
126
100
AcDbEntity
  8
Layer_1
 62
7
100
AcDbSpline
 70
8
 71
3
 72
8
 73
4
 74
0
 40
0
 40
0
 40
0
 40
0
 40
1
 40
1
 40
1
 40
1
 10
2.331923
 20
114.100871
 30
0.0
 10
2.331923
 20
113.725742
 30
0.0
 10
2.532055
 20
113.379108
 30
0.0
 10
2.856924
 20
113.191541
 30
0.0
  0
SPLINE
  5
127
100
AcDbEntity
  8
Layer_1
 62
7
100
AcDbSpline
 70
8
 71
3
 72
8
 73
4
 74
0
 40
0
 40
0
 40
0
 40
0
 40
1
 40
1
 40
1
 40
1
 10
124.471913
 20
25.797188
 30
0.0
 10
124.471913
 20
26.172315
 30
0.0
 10
124.271784
 20
26.518946
 30
0.0
 10
123.946912
 20
26.706510
 30
0.0
  0
SPLINE
  5
128
100
AcDbEntity
  8
Layer_1
 62
7
100
AcDbSpline
 70
8
 71
3
 72
8
 73
4
 74
0
 40
0
 40
0
 40
0
 40
0
 40
1
 40
1
 40
1
 40
1
 10
32.245420
 20
118.595737
 30
0.0
 10
32.245420
 20
118.220607
 30
0.0
 10
32.445549
 20
117.873973
 30
0.0
 10
32.770421
 20
117.686410
 30
0.0
  0
SPLINE
  5
129
100
AcDbEntity
  8
Layer_1
 62
7
100
AcDbSpline
 70
8
 71
3
 72
8
 73
4
 74
0
 40
0
 40
0
 40
0
 40
0
 40
1
 40
1
 40
1
 40
1
 10
2.776133
 20
56.662570
 30
0.0
 10
3.101005
 20
56.475007
 30
0.0
 10
3.501263
 20
56.475007
 30
0.0
 10
3.826135
 20
56.662570
 30
0.0
  0
SPLINE
  5
12a
100
AcDbEntity
  8
Layer_1
 62
7
100
AcDbSpline
 70
8
 71
3
 72
8
 73
4
 74
0
 40
0
 40
0
 40
0
 40
0
 40
1
 40
1
 40
1
 40
1
 10
32.770421
 20
119.505067
 30
0.0
 10
32.445549
 20
119.317501
 30
0.0
 10
32.245420
 20
118.970867
 30
0.0
 10
32.245420
 20
118.595737
 30
0.0
  0
SPLINE
  5
12b
100
AcDbEntity
  8
Layer_1
 62
7
100
AcDbSpline
 70
8
 71
3
 72
8
 73
4
 74
0
 40
0
 40
0
 40
0
 40
0
 40
1
 40
1
 40
1
 40
1
 10
38.650614
 20
11.085501
 30
0.0
 10
38.650614
 20
11.460628
 30
0.0
 10
38.450485
 20
11.807259
 30
0.0
 10
38.125613
 20
11.994823
 30
0.0
  0
SPLINE
  5
12c
100
AcDbEntity
  8
Layer_1
 62
7
100
AcDbSpline
 70
8
 71
3
 72
8
 73
4
 74
0
 40
0
 40
0
 40
0
 40
0
 40
1
 40
1
 40
1
 40
1
 10
38.125613
 20
11.994823
 30
0.0
 10
37.800741
 20
12.182386
 30
0.0
 10
37.400484
 20
12.182386
 30
0.0
 10
37.075612
 20
11.994823
 30
0.0
  0
SPLINE
  5
12d
100
AcDbEntity
  8
Layer_1
 62
7
100
AcDbSpline
 70
8
 71
3
 72
8
 73
4
 74
0
 40
0
 40
0
 40
0
 40
0
 40
1
 40
1
 40
1
 40
1
 10
37.075612
 20
10.176152
 30
0.0
 10
37.400484
 20
9.988589
 30
0.0
 10
37.800741
 20
9.988589
 30
0.0
 10
38.125613
 20
10.176152
 30
0.0
  0
SPLINE
  5
12e
100
AcDbEntity
  8
Layer_1
 62
7
100
AcDbSpline
 70
8
 71
3
 72
8
 73
4
 74
0
 40
0
 40
0
 40
0
 40
0
 40
1
 40
1
 40
1
 40
1
 10
123.946912
 20
24.887839
 30
0.0
 10
124.271784
 20
25.075403
 30
0.0
 10
124.471913
 20
25.422034
 30
0.0
 10
124.471913
 20
25.797188
 30
0.0
  0
SPLINE
  5
12f
100
AcDbEntity
  8
Layer_1
 62
7
100
AcDbSpline
 70
8
 71
3
 72
8
 73
4
 74
0
 40
0
 40
0
 40
0
 40
0
 40
1
 40
1
 40
1
 40
1
 10
4.351135
 20
57.571892
 30
0.0
 10
4.351135
 20
57.947019
 30
0.0
 10
4.151007
 20
58.293651
 30
0.0
 10
3.826135
 20
58.481241
 30
0.0
  0
SPLINE
  5
130
100
AcDbEntity
  8
Layer_1
 62
7
100
AcDbSpline
 70
8
 71
3
 72
8
 73
4
 74
0
 40
0
 40
0
 40
0
 40
0
 40
1
 40
1
 40
1
 40
1
 10
4.380364
 20
78.021928
 30
0.0
 10
4.380364
 20
78.397056
 30
0.0
 10
4.180235
 20
78.743687
 30
0.0
 10
3.855363
 20
78.931251
 30
0.0
  0
SPLINE
  5
131
100
AcDbEntity
  8
Layer_1
 62
7
100
AcDbSpline
 70
8
 71
3
 72
8
 73
4
 74
0
 40
0
 40
0
 40
0
 40
0
 40
1
 40
1
 40
1
 40
1
 10
122.896911
 20
24.887839
 30
0.0
 10
123.221782
 20
24.700276
 30
0.0
 10
123.622040
 20
24.700276
 30
0.0
 10
123.946912
 20
24.887839
 30
0.0
  0
SPLINE
  5
132
100
AcDbEntity
  8
Layer_1
 62
7
100
AcDbSpline
 70
8
 71
3
 72
8
 73
4
 74
0
 40
0
 40
0
 40
0
 40
0
 40
1
 40
1
 40
1
 40
1
 10
2.805362
 20
78.931251
 30
0.0
 10
2.480490
 20
78.743687
 30
0.0
 10
2.280358
 20
78.397056
 30
0.0
 10
2.280358
 20
78.021928
 30
0.0
  0
SPLINE
  5
133
100
AcDbEntity
  8
Layer_1
 62
7
100
AcDbSpline
 70
8
 71
3
 72
8
 73
4
 74
0
 40
0
 40
0
 40
0
 40
0
 40
1
 40
1
 40
1
 40
1
 10
3.826135
 20
58.481241
 30
0.0
 10
3.501263
 20
58.668804
 30
0.0
 10
3.101005
 20
58.668804
 30
0.0
 10
2.776133
 20
58.481241
 30
0.0
  0
SPLINE
  5
134
100
AcDbEntity
  8
Layer_1
 62
7
100
AcDbSpline
 70
8
 71
3
 72
8
 73
4
 74
0
 40
0
 40
0
 40
0
 40
0
 40
1
 40
1
 40
1
 40
1
 10
3.826135
 20
56.662570
 30
0.0
 10
4.151007
 20
56.850134
 30
0.0
 10
4.351135
 20
57.196765
 30
0.0
 10
4.351135
 20
57.571892
 30
0.0
  0
SPLINE
  5
135
100
AcDbEntity
  8
Layer_1
 62
7
100
AcDbSpline
 70
8
 71
3
 72
8
 73
4
 74
0
 40
0
 40
0
 40
0
 40
0
 40
1
 40
1
 40
1
 40
1
 10
122.371907
 20
25.797188
 30
0.0
 10
122.371907
 20
25.422034
 30
0.0
 10
122.572039
 20
25.075403
 30
0.0
 10
122.896911
 20
24.887839
 30
0.0
  0
SPLINE
  5
136
100
AcDbEntity
  8
Layer_1
 62
7
100
AcDbSpline
 70
8
 71
3
 72
8
 73
4
 74
0
 40
0
 40
0
 40
0
 40
0
 40
1
 40
1
 40
1
 40
1
 10
122.255723
 20
115.984709
 30
0.0
 10
121.930851
 20
116.172273
 30
0.0
 10
121.530594
 20
116.172273
 30
0.0
 10
121.205722
 20
115.984709
 30
0.0
  0
SPLINE
  5
137
100
AcDbEntity
  8
Layer_1
 62
7
100
AcDbSpline
 70
8
 71
3
 72
8
 73
4
 74
0
 40
0
 40
0
 40
0
 40
0
 40
1
 40
1
 40
1
 40
1
 10
2.856924
 20
115.010199
 30
0.0
 10
2.532055
 20
114.822635
 30
0.0
 10
2.331923
 20
114.475998
 30
0.0
 10
2.331923
 20
114.100871
 30
0.0
  0
SPLINE
  5
138
100
AcDbEntity
  8
Layer_1
 62
7
100
AcDbSpline
 70
8
 71
3
 72
8
 73
4
 74
0
 40
0
 40
0
 40
0
 40
0
 40
1
 40
1
 40
1
 40
1
 10
2.856924
 20
113.191541
 30
0.0
 10
3.181796
 20
113.003978
 30
0.0
 10
3.582056
 20
113.003978
 30
0.0
 10
3.906925
 20
113.191541
 30
0.0
  0
SPLINE
  5
139
100
AcDbEntity
  8
Layer_1
 62
7
100
AcDbSpline
 70
8
 71
3
 72
8
 73
4
 74
0
 40
0
 40
0
 40
0
 40
0
 40
1
 40
1
 40
1
 40
1
 10
3.906925
 20
113.191541
 30
0.0
 10
4.231797
 20
113.379108
 30
0.0
 10
4.431929
 20
113.725742
 30
0.0
 10
4.431929
 20
114.100871
 30
0.0
  0
SPLINE
  5
13a
100
AcDbEntity
  8
Layer_1
 62
7
100
AcDbSpline
 70
8
 71
3
 72
8
 73
4
 74
0
 40
0
 40
0
 40
0
 40
0
 40
1
 40
1
 40
1
 40
1
 10
2.280358
 20
78.021928
 30
0.0
 10
2.280358
 20
77.646801
 30
0.0
 10
2.480490
 20
77.300170
 30
0.0
 10
2.805362
 20
77.112606
 30
0.0
  0
SPLINE
  5
13b
100
AcDbEntity
  8
Layer_1
 62
7
100
AcDbSpline
 70
8
 71
3
 72
8
 73
4
 74
0
 40
0
 40
0
 40
0
 40
0
 40
1
 40
1
 40
1
 40
1
 10
34.345426
 20
118.595737
 30
0.0
 10
34.345426
 20
118.970867
 30
0.0
 10
34.145297
 20
119.317501
 30
0.0
 10
33.820425
 20
119.505067
 30
0.0
  0
SPLINE
  5
13c
100
AcDbEntity
  8
Layer_1
 62
7
100
AcDbSpline
 70
8
 71
3
 72
8
 73
4
 74
0
 40
0
 40
0
 40
0
 40
0
 40
1
 40
1
 40
1
 40
1
 10
2.805362
 20
77.112606
 30
0.0
 10
3.130234
 20
76.925043
 30
0.0
 10
3.530491
 20
76.925043
 30
0.0
 10
3.855363
 20
77.112606
 30
0.0
  0
SPLINE
  5
13d
100
AcDbEntity
  8
Layer_1
 62
7
100
AcDbSpline
 70
8
 71
3
 72
8
 73
4
 74
0
 40
0
 40
0
 40
0
 40
0
 40
1
 40
1
 40
1
 40
1
 10
2.251133
 20
57.571892
 30
0.0
 10
2.251133
 20
57.196765
 30
0.0
 10
2.451261
 20
56.850134
 30
0.0
 10
2.776133
 20
56.662570
 30
0.0
  0
SPLINE
  5
13e
100
AcDbEntity
  8
Layer_1
 62
7
100
AcDbSpline
 70
8
 71
3
 72
8
 73
4
 74
0
 40
0
 40
0
 40
0
 40
0
 40
1
 40
1
 40
1
 40
1
 10
3.855363
 20
77.112606
 30
0.0
 10
4.180235
 20
77.300170
 30
0.0
 10
4.380364
 20
77.646801
 30
0.0
 10
4.380364
 20
78.021928
 30
0.0
  0
SPLINE
  5
13f
100
AcDbEntity
  8
Layer_1
 62
7
100
AcDbSpline
 70
8
 71
3
 72
8
 73
4
 74
0
 40
0
 40
0
 40
0
 40
0
 40
1
 40
1
 40
1
 40
1
 10
122.255723
 20
114.166052
 30
0.0
 10
122.580595
 20
114.353618
 30
0.0
 10
122.780724
 20
114.700249
 30
0.0
 10
122.780724
 20
115.075382
 30
0.0
  0
SPLINE
  5
140
100
AcDbEntity
  8
Layer_1
 62
7
100
AcDbSpline
 70
8
 71
3
 72
8
 73
4
 74
0
 40
0
 40
0
 40
0
 40
0
 40
1
 40
1
 40
1
 40
1
 10
3.906925
 20
115.010199
 30
0.0
 10
3.582056
 20
115.197762
 30
0.0
 10
3.181796
 20
115.197762
 30
0.0
 10
2.856924
 20
115.010199
 30
0.0
  0
SPLINE
  5
141
100
AcDbEntity
  8
Layer_1
 62
7
100
AcDbSpline
 70
8
 71
3
 72
8
 73
4
 74
0
 40
0
 40
0
 40
0
 40
0
 40
1
 40
1
 40
1
 40
1
 10
33.820425
 20
119.505067
 30
0.0
 10
33.495553
 20
119.692631
 30
0.0
 10
33.095296
 20
119.692631
 30
0.0
 10
32.770421
 20
119.505067
 30
0.0
  0
SPLINE
  5
142
100
AcDbEntity
  8
Layer_1
 62
7
100
AcDbSpline
 70
8
 71
3
 72
8
 73
4
 74
0
 40
0
 40
0
 40
0
 40
0
 40
1
 40
1
 40
1
 40
1
 10
305.676778
 20
57.573374
 30
0.0
 10
305.676778
 20
57.198220
 30
0.0
 10
305.476646
 20
56.851589
 30
0.0
 10
305.151777
 20
56.664026
 30
0.0
  0
SPLINE
  5
143
100
AcDbEntity
  8
Layer_1
 62
7
100
AcDbSpline
 70
8
 71
3
 72
8
 73
4
 74
0
 40
0
 40
0
 40
0
 40
0
 40
1
 40
1
 40
1
 40
1
 10
303.576772
 20
57.573374
 30
0.0
 10
303.576772
 20
57.948501
 30
0.0
 10
303.776904
 20
58.295133
 30
0.0
 10
304.101773
 20
58.482696
 30
0.0
  0
SPLINE
  5
144
100
AcDbEntity
  8
Layer_1
 62
7
100
AcDbSpline
 70
8
 71
3
 72
8
 73
4
 74
0
 40
0
 40
0
 40
0
 40
0
 40
1
 40
1
 40
1
 40
1
 10
36.550611
 20
11.085501
 30
0.0
 10
36.550611
 20
10.710374
 30
0.0
 10
36.750740
 20
10.363742
 30
0.0
 10
37.075612
 20
10.176152
 30
0.0
  0
SPLINE
  5
145
100
AcDbEntity
  8
Layer_1
 62
7
100
AcDbSpline
 70
8
 71
3
 72
8
 73
4
 74
0
 40
0
 40
0
 40
0
 40
0
 40
1
 40
1
 40
1
 40
1
 10
305.151777
 20
56.664026
 30
0.0
 10
304.826905
 20
56.476462
 30
0.0
 10
304.426645
 20
56.476462
 30
0.0
 10
304.101773
 20
56.664026
 30
0.0
  0
SPLINE
  5
146
100
AcDbEntity
  8
Layer_1
 62
7
100
AcDbSpline
 70
8
 71
3
 72
8
 73
4
 74
0
 40
0
 40
0
 40
0
 40
0
 40
1
 40
1
 40
1
 40
1
 10
183.980998
 20
26.707965
 30
0.0
 10
184.305868
 20
26.895529
 30
0.0
 10
184.706128
 20
26.895529
 30
0.0
 10
185.031000
 20
26.707965
 30
0.0
  0
LWPOLYLINE
  5
147
100
AcDbEntity
  8
Layer_1
 62
7
100
AcDbPolyline
 90
2
 70
0
 10
214.909770
 20
7.836939
 30
0.0
 10
266.768729
 20
7.836939
 30
0.0
  0
SPLINE
  5
148
100
AcDbEntity
  8
Layer_1
 62
7
100
AcDbSpline
 70
8
 71
3
 72
8
 73
4
 74
0
 40
0
 40
0
 40
0
 40
0
 40
1
 40
1
 40
1
 40
1
 10
0.132149
 20
114.842542
 30
0.0
 10
0.132149
 20
118.708545
 30
0.0
 10
3.266161
 20
121.842558
 30
0.0
 10
7.132164
 20
121.842558
 30
0.0
  0
SPLINE
  5
149
100
AcDbEntity
  8
Layer_1
 62
7
100
AcDbSpline
 70
8
 71
3
 72
8
 73
4
 74
0
 40
0
 40
0
 40
0
 40
0
 40
1
 40
1
 40
1
 40
1
 10
115.394474
 20
22.547171
 30
0.0
 10
111.403969
 20
22.547171
 30
0.0
 10
107.795460
 20
20.174673
 30
0.0
 10
106.213650
 20
16.511085
 30
0.0
  0
SPLINE
  5
14a
100
AcDbEntity
  8
Layer_1
 62
7
100
AcDbSpline
 70
8
 71
3
 72
8
 73
4
 74
0
 40
0
 40
0
 40
0
 40
0
 40
1
 40
1
 40
1
 40
1
 10
158.797269
 20
69.427845
 30
0.0
 10
159.122141
 20
69.240282
 30
0.0
 10
159.322270
 20
68.893624
 30
0.0
 10
159.322270
 20
68.518497
 30
0.0
  0
LWPOLYLINE
  5
14b
100
AcDbEntity
  8
Layer_1
 62
7
100
AcDbPolyline
 90
2
 70
0
 10
17.223972
 20
3.635823
 30
0.0
 10
5.749014
 20
23.533090
 30
0.0
  0
SPLINE
  5
14c
100
AcDbEntity
  8
Layer_1
 62
7
100
AcDbSpline
 70
8
 71
3
 72
8
 73
4
 74
0
 40
0
 40
0
 40
0
 40
0
 40
1
 40
1
 40
1
 40
1
 10
21.478399
 20
0.370804
 30
0.0
 10
19.683057
 20
0.851209
 30
0.0
 10
18.152452
 20
2.025856
 30
0.0
 10
17.223972
 20
3.635823
 30
0.0
  0
SPLINE
  5
14d
100
AcDbEntity
  8
Layer_1
 62
7
100
AcDbSpline
 70
8
 71
3
 72
8
 73
4
 74
0
 40
0
 40
0
 40
0
 40
0
 40
1
 40
1
 40
1
 40
1
 10
38.125613
 20
10.176152
 30
0.0
 10
38.450485
 20
10.363742
 30
0.0
 10
38.650614
 20
10.710374
 30
0.0
 10
38.650614
 20
11.085501
 30
0.0
  0
SPLINE
  5
14e
100
AcDbEntity
  8
Layer_1
 62
7
100
AcDbSpline
 70
8
 71
3
 72
8
 73
4
 74
0
 40
0
 40
0
 40
0
 40
0
 40
1
 40
1
 40
1
 40
1
 10
41.159181
 20
7.835484
 30
0.0
 10
39.399881
 20
7.835484
 30
0.0
 10
37.671714
 20
7.371351
 30
0.0
 10
36.149131
 20
6.489942
 30
0.0
  0
LWPOLYLINE
  5
14f
100
AcDbEntity
  8
Layer_1
 62
7
100
AcDbPolyline
 90
2
 70
0
 10
0.132149
 20
44.515654
 30
0.0
 10
0.132149
 20
114.842542
 30
0.0
  0
SPLINE
  5
150
100
AcDbEntity
  8
Layer_1
 62
7
100
AcDbSpline
 70
8
 71
3
 72
8
 73
4
 74
0
 40
0
 40
0
 40
0
 40
0
 40
1
 40
1
 40
1
 40
1
 10
158.797269
 20
67.609175
 30
0.0
 10
158.472397
 20
67.421611
 30
0.0
 10
158.072138
 20
67.421611
 30
0.0
 10
157.747267
 20
67.609175
 30
0.0
  0
SPLINE
  5
151
100
AcDbEntity
  8
Layer_1
 62
7
100
AcDbSpline
 70
8
 71
3
 72
8
 73
4
 74
0
 40
0
 40
0
 40
0
 40
0
 40
1
 40
1
 40
1
 40
1
 10
305.122548
 20
77.114062
 30
0.0
 10
304.797676
 20
76.926498
 30
0.0
 10
304.397419
 20
76.926498
 30
0.0
 10
304.072547
 20
77.114062
 30
0.0
  0
LWPOLYLINE
  5
152
100
AcDbEntity
  8
Layer_1
 62
7
100
AcDbPolyline
 90
2
 70
0
 10
142.905613
 20
22.547171
 30
0.0
 10
115.394474
 20
22.547171
 30
0.0
  0
LWPOLYLINE
  5
153
100
AcDbEntity
  8
Layer_1
 62
7
100
AcDbPolyline
 90
2
 70
0
 10
36.149131
 20
6.489942
 30
0.0
 10
26.794875
 20
1.074783
 30
0.0
  0
SPLINE
  5
154
100
AcDbEntity
  8
Layer_1
 62
7
100
AcDbSpline
 70
8
 71
3
 72
8
 73
4
 74
0
 40
0
 40
0
 40
0
 40
0
 40
1
 40
1
 40
1
 40
1
 10
106.213650
 20
16.511085
 30
0.0
 10
103.940133
 20
11.245415
 30
0.0
 10
98.753653
 20
7.835484
 30
0.0
 10
93.018140
 20
7.835484
 30
0.0
  0
LWPOLYLINE
  5
155
100
AcDbEntity
  8
Layer_1
 62
7
100
AcDbPolyline
 90
2
 70
0
 10
152.905632
 20
104.858473
 30
0.0
 10
152.905632
 20
32.547200
 30
0.0
  0
SPLINE
  5
156
100
AcDbEntity
  8
Layer_1
 62
7
100
AcDbSpline
 70
8
 71
3
 72
8
 73
4
 74
0
 40
0
 40
0
 40
0
 40
0
 40
1
 40
1
 40
1
 40
1
 10
159.322270
 20
68.518497
 30
0.0
 10
159.322270
 20
68.143370
 30
0.0
 10
159.122141
 20
67.796738
 30
0.0
 10
158.797269
 20
67.609175
 30
0.0
  0
SPLINE
  5
157
100
AcDbEntity
  8
Layer_1
 62
7
100
AcDbSpline
 70
8
 71
3
 72
8
 73
4
 74
0
 40
0
 40
0
 40
0
 40
0
 40
1
 40
1
 40
1
 40
1
 10
305.122548
 20
78.932732
 30
0.0
 10
305.447420
 20
78.745142
 30
0.0
 10
305.647549
 20
78.398511
 30
0.0
 10
305.647549
 20
78.023384
 30
0.0
  0
SPLINE
  5
158
100
AcDbEntity
  8
Layer_1
 62
7
100
AcDbSpline
 70
8
 71
3
 72
8
 73
4
 74
0
 40
0
 40
0
 40
0
 40
0
 40
1
 40
1
 40
1
 40
1
 10
144.656965
 20
114.703938
 30
0.0
 10
149.429296
 20
113.855012
 30
0.0
 10
152.905632
 20
109.705720
 30
0.0
 10
152.905632
 20
104.858473
 30
0.0
  0
SPLINE
  5
159
100
AcDbEntity
  8
Layer_1
 62
7
100
AcDbSpline
 70
8
 71
3
 72
8
 73
4
 74
0
 40
0
 40
0
 40
0
 40
0
 40
1
 40
1
 40
1
 40
1
 10
63.765624
 20
121.842558
 30
0.0
 10
90.886694
 20
121.842558
 30
0.0
 10
117.955065
 20
119.453788
 30
0.0
 10
144.656965
 20
114.703938
 30
0.0
  0
SPLINE
  5
15a
100
AcDbEntity
  8
Layer_1
 62
7
100
AcDbSpline
 70
8
 71
3
 72
8
 73
4
 74
0
 40
0
 40
0
 40
0
 40
0
 40
1
 40
1
 40
1
 40
1
 10
152.905632
 20
32.547200
 30
0.0
 10
152.905634
 20
29.895011
 30
0.0
 10
151.852064
 20
27.351460
 30
0.0
 10
149.976697
 20
25.476115
 30
0.0
  0
LWPOLYLINE
  5
15b
100
AcDbEntity
  8
Layer_1
 62
7
100
AcDbPolyline
 90
2
 70
0
 10
7.132164
 20
121.842558
 30
0.0
 10
63.765624
 20
121.842558
 30
0.0
  0
SPLINE
  5
15c
100
AcDbEntity
  8
Layer_1
 62
7
100
AcDbSpline
 70
8
 71
3
 72
8
 73
4
 74
0
 40
0
 40
0
 40
0
 40
0
 40
1
 40
1
 40
1
 40
1
 10
303.547546
 20
78.023384
 30
0.0
 10
303.547546
 20
78.398511
 30
0.0
 10
303.747675
 20
78.745142
 30
0.0
 10
304.072547
 20
78.932732
 30
0.0
  0
SPLINE
  5
15d
100
AcDbEntity
  8
Layer_1
 62
7
100
AcDbSpline
 70
8
 71
3
 72
8
 73
4
 74
0
 40
0
 40
0
 40
0
 40
0
 40
1
 40
1
 40
1
 40
1
 10
304.072547
 20
78.932732
 30
0.0
 10
304.397419
 20
79.120296
 30
0.0
 10
304.797676
 20
79.120296
 30
0.0
 10
305.122548
 20
78.932732
 30
0.0
  0
SPLINE
  5
15e
100
AcDbEntity
  8
Layer_1
 62
7
100
AcDbSpline
 70
8
 71
3
 72
8
 73
4
 74
0
 40
0
 40
0
 40
0
 40
0
 40
1
 40
1
 40
1
 40
1
 10
305.647549
 20
78.023384
 30
0.0
 10
305.647549
 20
77.648257
 30
0.0
 10
305.447420
 20
77.301625
 30
0.0
 10
305.122548
 20
77.114062
 30
0.0
  0
SPLINE
  5
15f
100
AcDbEntity
  8
Layer_1
 62
7
100
AcDbSpline
 70
8
 71
3
 72
8
 73
4
 74
0
 40
0
 40
0
 40
0
 40
0
 40
1
 40
1
 40
1
 40
1
 10
304.101773
 20
58.482696
 30
0.0
 10
304.426645
 20
58.670260
 30
0.0
 10
304.826905
 20
58.670260
 30
0.0
 10
305.151777
 20
58.482696
 30
0.0
  0
SPLINE
  5
160
100
AcDbEntity
  8
Layer_1
 62
7
100
AcDbSpline
 70
8
 71
3
 72
8
 73
4
 74
0
 40
0
 40
0
 40
0
 40
0
 40
1
 40
1
 40
1
 40
1
 10
5.749014
 20
23.533090
 30
0.0
 10
2.069218
 20
29.913743
 30
0.0
 10
0.132146
 20
37.149955
 30
0.0
 10
0.132149
 20
44.515654
 30
0.0
  0
SPLINE
  5
161
100
AcDbEntity
  8
Layer_1
 62
7
100
AcDbSpline
 70
8
 71
3
 72
8
 73
4
 74
0
 40
0
 40
0
 40
0
 40
0
 40
1
 40
1
 40
1
 40
1
 10
157.747267
 20
67.609175
 30
0.0
 10
157.422395
 20
67.796738
 30
0.0
 10
157.222266
 20
68.143370
 30
0.0
 10
157.222266
 20
68.518497
 30
0.0
  0
SPLINE
  5
162
100
AcDbEntity
  8
Layer_1
 62
7
100
AcDbSpline
 70
8
 71
3
 72
8
 73
4
 74
0
 40
0
 40
0
 40
0
 40
0
 40
1
 40
1
 40
1
 40
1
 10
305.151777
 20
58.482696
 30
0.0
 10
305.476646
 20
58.295133
 30
0.0
 10
305.676778
 20
57.948501
 30
0.0
 10
305.676778
 20
57.573374
 30
0.0
  0
SPLINE
  5
163
100
AcDbEntity
  8
Layer_1
 62
7
100
AcDbSpline
 70
8
 71
3
 72
8
 73
4
 74
0
 40
0
 40
0
 40
0
 40
0
 40
1
 40
1
 40
1
 40
1
 10
149.976697
 20
25.476115
 30
0.0
 10
148.101329
 20
23.600744
 30
0.0
 10
145.557784
 20
22.547171
 30
0.0
 10
142.905613
 20
22.547171
 30
0.0
  0
SPLINE
  5
164
100
AcDbEntity
  8
Layer_1
 62
7
100
AcDbSpline
 70
8
 71
3
 72
8
 73
4
 74
0
 40
0
 40
0
 40
0
 40
0
 40
1
 40
1
 40
1
 40
1
 10
157.222266
 20
68.518497
 30
0.0
 10
157.222266
 20
68.893624
 30
0.0
 10
157.422395
 20
69.240282
 30
0.0
 10
157.747267
 20
69.427845
 30
0.0
  0
SPLINE
  5
165
100
AcDbEntity
  8
Layer_1
 62
7
100
AcDbSpline
 70
8
 71
3
 72
8
 73
4
 74
0
 40
0
 40
0
 40
0
 40
0
 40
1
 40
1
 40
1
 40
1
 10
304.072547
 20
77.114062
 30
0.0
 10
303.747675
 20
77.301625
 30
0.0
 10
303.547546
 20
77.648257
 30
0.0
 10
303.547546
 20
78.023384
 30
0.0
  0
SPLINE
  5
166
100
AcDbEntity
  8
Layer_1
 62
7
100
AcDbSpline
 70
8
 71
3
 72
8
 73
4
 74
0
 40
0
 40
0
 40
0
 40
0
 40
1
 40
1
 40
1
 40
1
 10
26.794875
 20
1.074783
 30
0.0
 10
25.186440
 20
0.143659
 30
0.0
 10
23.273744
 20
-0.109601
 30
0.0
 10
21.478399
 20
0.370804
 30
0.0
  0
SPLINE
  5
167
100
AcDbEntity
  8
Layer_1
 62
7
100
AcDbSpline
 70
8
 71
3
 72
8
 73
4
 74
0
 40
0
 40
0
 40
0
 40
0
 40
1
 40
1
 40
1
 40
1
 10
183.455995
 20
25.798643
 30
0.0
 10
183.455995
 20
26.173770
 30
0.0
 10
183.656126
 20
26.520401
 30
0.0
 10
183.980998
 20
26.707965
 30
0.0
  0
SPLINE
  5
168
100
AcDbEntity
  8
Layer_1
 62
7
100
AcDbSpline
 70
8
 71
3
 72
8
 73
4
 74
0
 40
0
 40
0
 40
0
 40
0
 40
1
 40
1
 40
1
 40
1
 10
157.747267
 20
69.427845
 30
0.0
 10
158.072138
 20
69.615409
 30
0.0
 10
158.472397
 20
69.615409
 30
0.0
 10
158.797269
 20
69.427845
 30
0.0
  0
SPLINE
  5
169
100
AcDbEntity
  8
Layer_1
 62
7
100
AcDbSpline
 70
8
 71
3
 72
8
 73
4
 74
0
 40
0
 40
0
 40
0
 40
0
 40
1
 40
1
 40
1
 40
1
 10
304.101773
 20
56.664026
 30
0.0
 10
303.776904
 20
56.851589
 30
0.0
 10
303.576772
 20
57.198220
 30
0.0
 10
303.576772
 20
57.573374
 30
0.0
  0
SPLINE
  5
16a
100
AcDbEntity
  8
Layer_1
 62
7
100
AcDbSpline
 70
8
 71
3
 72
8
 73
4
 74
0
 40
0
 40
0
 40
0
 40
0
 40
1
 40
1
 40
1
 40
1
 10
185.031000
 20
26.707965
 30
0.0
 10
185.355872
 20
26.520401
 30
0.0
 10
185.556000
 20
26.173770
 30
0.0
 10
185.556000
 20
25.798643
 30
0.0
  0
SPLINE
  5
16b
100
AcDbEntity
  8
Layer_1
 62
7
100
AcDbSpline
 70
8
 71
3
 72
8
 73
4
 74
0
 40
0
 40
0
 40
0
 40
0
 40
1
 40
1
 40
1
 40
1
 10
275.157487
 20
117.687870
 30
0.0
 10
274.832615
 20
117.500307
 30
0.0
 10
274.432357
 20
117.500307
 30
0.0
 10
274.107485
 20
117.687870
 30
0.0
  0
SPLINE
  5
16c
100
AcDbEntity
  8
Layer_1
 62
7
100
AcDbSpline
 70
8
 71
3
 72
8
 73
4
 74
0
 40
0
 40
0
 40
0
 40
0
 40
1
 40
1
 40
1
 40
1
 10
274.107485
 20
117.687870
 30
0.0
 10
273.782613
 20
117.875436
 30
0.0
 10
273.582485
 20
118.222070
 30
0.0
 10
273.582485
 20
118.597198
 30
0.0
  0
SPLINE
  5
16d
100
AcDbEntity
  8
Layer_1
 62
7
100
AcDbSpline
 70
8
 71
3
 72
8
 73
4
 74
0
 40
0
 40
0
 40
0
 40
0
 40
1
 40
1
 40
1
 40
1
 10
185.672187
 20
114.167512
 30
0.0
 10
185.347312
 20
114.355078
 30
0.0
 10
185.147184
 20
114.701712
 30
0.0
 10
185.147184
 20
115.076842
 30
0.0
  0
SPLINE
  5
16e
100
AcDbEntity
  8
Layer_1
 62
7
100
AcDbSpline
 70
8
 71
3
 72
8
 73
4
 74
0
 40
0
 40
0
 40
0
 40
0
 40
1
 40
1
 40
1
 40
1
 10
305.595987
 20
114.102332
 30
0.0
 10
305.595987
 20
113.727202
 30
0.0
 10
305.395856
 20
113.380568
 30
0.0
 10
305.070984
 20
113.193002
 30
0.0
  0
SPLINE
  5
16f
100
AcDbEntity
  8
Layer_1
 62
7
100
AcDbSpline
 70
8
 71
3
 72
8
 73
4
 74
0
 40
0
 40
0
 40
0
 40
0
 40
1
 40
1
 40
1
 40
1
 10
305.070984
 20
113.193002
 30
0.0
 10
304.746112
 20
113.005438
 30
0.0
 10
304.345854
 20
113.005438
 30
0.0
 10
304.020982
 20
113.193002
 30
0.0
  0
SPLINE
  5
170
100
AcDbEntity
  8
Layer_1
 62
7
100
AcDbSpline
 70
8
 71
3
 72
8
 73
4
 74
0
 40
0
 40
0
 40
0
 40
0
 40
1
 40
1
 40
1
 40
1
 10
270.852299
 20
11.996278
 30
0.0
 10
271.177171
 20
11.808715
 30
0.0
 10
271.377299
 20
11.462083
 30
0.0
 10
271.377299
 20
11.086956
 30
0.0
  0
SPLINE
  5
171
100
AcDbEntity
  8
Layer_1
 62
7
100
AcDbSpline
 70
8
 71
3
 72
8
 73
4
 74
0
 40
0
 40
0
 40
0
 40
0
 40
1
 40
1
 40
1
 40
1
 10
187.247189
 20
115.076842
 30
0.0
 10
187.247189
 20
114.701712
 30
0.0
 10
187.047060
 20
114.355078
 30
0.0
 10
186.722188
 20
114.167512
 30
0.0
  0
SPLINE
  5
172
100
AcDbEntity
  8
Layer_1
 62
7
100
AcDbSpline
 70
8
 71
3
 72
8
 73
4
 74
0
 40
0
 40
0
 40
0
 40
0
 40
1
 40
1
 40
1
 40
1
 10
185.672187
 20
115.986169
 30
0.0
 10
185.997056
 20
116.173736
 30
0.0
 10
186.397316
 20
116.173736
 30
0.0
 10
186.722188
 20
115.986169
 30
0.0
  0
SPLINE
  5
173
100
AcDbEntity
  8
Layer_1
 62
7
100
AcDbSpline
 70
8
 71
3
 72
8
 73
4
 74
0
 40
0
 40
0
 40
0
 40
0
 40
1
 40
1
 40
1
 40
1
 10
303.495982
 20
114.102332
 30
0.0
 10
303.495982
 20
114.477462
 30
0.0
 10
303.696110
 20
114.824096
 30
0.0
 10
304.020982
 20
115.011659
 30
0.0
  0
SPLINE
  5
174
100
AcDbEntity
  8
Layer_1
 62
7
100
AcDbSpline
 70
8
 71
3
 72
8
 73
4
 74
0
 40
0
 40
0
 40
0
 40
0
 40
1
 40
1
 40
1
 40
1
 10
186.722188
 20
115.986169
 30
0.0
 10
187.047060
 20
115.798606
 30
0.0
 10
187.247189
 20
115.451972
 30
0.0
 10
187.247189
 20
115.076842
 30
0.0
  0
SPLINE
  5
175
100
AcDbEntity
  8
Layer_1
 62
7
100
AcDbSpline
 70
8
 71
3
 72
8
 73
4
 74
0
 40
0
 40
0
 40
0
 40
0
 40
1
 40
1
 40
1
 40
1
 10
185.147184
 20
115.076842
 30
0.0
 10
185.147184
 20
115.451972
 30
0.0
 10
185.347312
 20
115.798606
 30
0.0
 10
185.672187
 20
115.986169
 30
0.0
  0
SPLINE
  5
176
100
AcDbEntity
  8
Layer_1
 62
7
100
AcDbSpline
 70
8
 71
3
 72
8
 73
4
 74
0
 40
0
 40
0
 40
0
 40
0
 40
1
 40
1
 40
1
 40
1
 10
185.556000
 20
25.798643
 30
0.0
 10
185.556000
 20
25.423516
 30
0.0
 10
185.355872
 20
25.076884
 30
0.0
 10
185.031000
 20
24.889321
 30
0.0
  0
SPLINE
  5
177
100
AcDbEntity
  8
Layer_1
 62
7
100
AcDbSpline
 70
8
 71
3
 72
8
 73
4
 74
0
 40
0
 40
0
 40
0
 40
0
 40
1
 40
1
 40
1
 40
1
 10
186.722188
 20
114.167512
 30
0.0
 10
186.397316
 20
113.979949
 30
0.0
 10
185.997056
 20
113.979949
 30
0.0
 10
185.672187
 20
114.167512
 30
0.0
  0
SPLINE
  5
178
100
AcDbEntity
  8
Layer_1
 62
7
100
AcDbSpline
 70
8
 71
3
 72
8
 73
4
 74
0
 40
0
 40
0
 40
0
 40
0
 40
1
 40
1
 40
1
 40
1
 10
305.070984
 20
115.011659
 30
0.0
 10
305.395856
 20
114.824096
 30
0.0
 10
305.595987
 20
114.477462
 30
0.0
 10
305.595987
 20
114.102332
 30
0.0
  0
SPLINE
  5
179
100
AcDbEntity
  8
Layer_1
 62
7
100
AcDbSpline
 70
8
 71
3
 72
8
 73
4
 74
0
 40
0
 40
0
 40
0
 40
0
 40
1
 40
1
 40
1
 40
1
 10
304.020982
 20
113.193002
 30
0.0
 10
303.696110
 20
113.380568
 30
0.0
 10
303.495982
 20
113.727202
 30
0.0
 10
303.495982
 20
114.102332
 30
0.0
  0
SPLINE
  5
17a
100
AcDbEntity
  8
Layer_1
 62
7
100
AcDbSpline
 70
8
 71
3
 72
8
 73
4
 74
0
 40
0
 40
0
 40
0
 40
0
 40
1
 40
1
 40
1
 40
1
 10
275.682487
 20
118.597198
 30
0.0
 10
275.682487
 20
118.222070
 30
0.0
 10
275.482359
 20
117.875436
 30
0.0
 10
275.157487
 20
117.687870
 30
0.0
  0
SPLINE
  5
17b
100
AcDbEntity
  8
Layer_1
 62
7
100
AcDbSpline
 70
8
 71
3
 72
8
 73
4
 74
0
 40
0
 40
0
 40
0
 40
0
 40
1
 40
1
 40
1
 40
1
 10
275.157487
 20
119.506528
 30
0.0
 10
275.482359
 20
119.318961
 30
0.0
 10
275.682487
 20
118.972327
 30
0.0
 10
275.682487
 20
118.597198
 30
0.0
  0
SPLINE
  5
17c
100
AcDbEntity
  8
Layer_1
 62
7
100
AcDbSpline
 70
8
 71
3
 72
8
 73
4
 74
0
 40
0
 40
0
 40
0
 40
0
 40
1
 40
1
 40
1
 40
1
 10
269.802297
 20
11.996278
 30
0.0
 10
270.127169
 20
12.183842
 30
0.0
 10
270.527427
 20
12.183842
 30
0.0
 10
270.852299
 20
11.996278
 30
0.0
  0
SPLINE
  5
17d
100
AcDbEntity
  8
Layer_1
 62
7
100
AcDbSpline
 70
8
 71
3
 72
8
 73
4
 74
0
 40
0
 40
0
 40
0
 40
0
 40
1
 40
1
 40
1
 40
1
 10
183.980998
 20
24.889321
 30
0.0
 10
183.656126
 20
25.076884
 30
0.0
 10
183.455995
 20
25.423516
 30
0.0
 10
183.455995
 20
25.798643
 30
0.0
  0
SPLINE
  5
17e
100
AcDbEntity
  8
Layer_1
 62
7
100
AcDbSpline
 70
8
 71
3
 72
8
 73
4
 74
0
 40
0
 40
0
 40
0
 40
0
 40
1
 40
1
 40
1
 40
1
 10
185.031000
 20
24.889321
 30
0.0
 10
184.706128
 20
24.701757
 30
0.0
 10
184.305868
 20
24.701757
 30
0.0
 10
183.980998
 20
24.889321
 30
0.0
  0
SPLINE
  5
17f
100
AcDbEntity
  8
Layer_1
 62
7
100
AcDbSpline
 70
8
 71
3
 72
8
 73
4
 74
0
 40
0
 40
0
 40
0
 40
0
 40
1
 40
1
 40
1
 40
1
 10
304.020982
 20
115.011659
 30
0.0
 10
304.345854
 20
115.199225
 30
0.0
 10
304.746112
 20
115.199225
 30
0.0
 10
305.070984
 20
115.011659
 30
0.0
  0
SPLINE
  5
180
100
AcDbEntity
  8
Layer_1
 62
7
100
AcDbSpline
 70
8
 71
3
 72
8
 73
4
 74
0
 40
0
 40
0
 40
0
 40
0
 40
1
 40
1
 40
1
 40
1
 10
273.582485
 20
118.597198
 30
0.0
 10
273.582485
 20
118.972327
 30
0.0
 10
273.782613
 20
119.318961
 30
0.0
 10
274.107485
 20
119.506528
 30
0.0
  0
SPLINE
  5
181
100
AcDbEntity
  8
Layer_1
 62
7
100
AcDbSpline
 70
8
 71
3
 72
8
 73
4
 74
0
 40
0
 40
0
 40
0
 40
0
 40
1
 40
1
 40
1
 40
1
 10
274.107485
 20
119.506528
 30
0.0
 10
274.432357
 20
119.694091
 30
0.0
 10
274.832615
 20
119.694091
 30
0.0
 10
275.157487
 20
119.506528
 30
0.0
  0
SPLINE
  5
182
100
AcDbEntity
  8
Layer_1
 62
7
100
AcDbSpline
 70
8
 71
3
 72
8
 73
4
 74
0
 40
0
 40
0
 40
0
 40
0
 40
1
 40
1
 40
1
 40
1
 10
269.277294
 20
11.086956
 30
0.0
 10
269.277294
 20
11.462083
 30
0.0
 10
269.477425
 20
11.808715
 30
0.0
 10
269.802297
 20
11.996278
 30
0.0
  0
LWPOLYLINE
  5
183
100
AcDbEntity
  8
Layer_1
 62
7
100
AcDbPolyline
 90
2
 70
0
 10
93.018140
 20
7.835484
 30
0.0
 10
41.159181
 20
7.835484
 30
0.0
  0
ENDSEC
  0
SECTION
  2
OBJECTS
  0
DICTIONARY
  5
C
330
0
100
AcDbDictionary
  3
ACAD_GROUP
350
D
  3
ACAD_MLINESTYLE
350
17
  0
DICTIONARY
  5
D
330
C
100
AcDbDictionary
  0
DICTIONARY
  5
1A
330
C
100
AcDbDictionary
  0
DICTIONARY
  5
17
330
C
100
AcDbDictionary
  3
STANDARD
350
18
  0
DICTIONARY
  5
19
330
C
100
AcDbDictionary
  0
ENDSEC
  0
EOF
