  0
SECTION
  2
HEADER
  9
$ACADVER
  1
AC1014
  9
$HANDSEED
  5
FFFF
  9
$MEASUREMENT
 70
     1
  0
ENDSEC
  0
SECTION
  2
TABLES
  0
TABLE
  2
VPORT
  5
8
330
0
100
AcDbSymbolTable
 70
     4
  0
VPORT
  5
2E
330
8
100
AcDbSymbolTableRecord
100
AcDbViewportTableRecord
  2
*ACTIVE
 70
     0
 10
0.0
 20
0.0
 11
1.0
 21
1.0
 12
210.0
 22
148.5
 13
0.0
 23
0.0
 14
10.0
 24
10.0
 15
10.0
 25
10.0
 16
0.0
 26
0.0
 36
1.0
 17
0.0
 27
0.0
 37
0.0
 40
341.0
 41
1.24
 42
50.0
 43
0.0
 44
0.0
 50
0.0
 51
0.0
 71
     0
 72
   100
 73
     1
 74
     3
 75
     0
 76
     0
 77
     0
 78
     0
  0
ENDTAB
  0
TABLE
  2
LTYPE
  5
5
330
0
100
AcDbSymbolTable
 70
     1
  0
LTYPE
  5
14
330
5
100
AcDbSymbolTableRecord
100
AcDbLinetypeTableRecord
  2
BYBLOCK
 70
     0
  3

 72
    65
 73
     0
 40
0.0
  0
LTYPE
  5
15
330
5
100
AcDbSymbolTableRecord
100
AcDbLinetypeTableRecord
  2
BYLAYER
 70
     0
  3

 72
    65
 73
     0
 40
0.0
  0
LTYPE
  5
16
330
5
100
AcDbSymbolTableRecord
100
AcDbLinetypeTableRecord
  2
CONTINUOUS
 70
     0
  3
Solid line
 72
    65
 73
     0
 40
0.0
  0
ENDTAB
  0
TABLE
  2
LAYER
  5
2
100
AcDbSymbolTable
 70
2
  0
LAYER
  5
50
100
AcDbSymbolTableRecord
100
AcDbLayerTableRecord
  2
0
 70
0
  6
CONTINUOUS
  0
LAYER
  5
51
100
AcDbSymbolTableRecord
100
AcDbLayerTableRecord
  2
Layer_1
 70
0
  6
CONTINUOUS
  0
ENDTAB
  0
TABLE
  2
STYLE
  5
3
330
0
100
AcDbSymbolTable
 70
     1
  0
STYLE
  5
11
330
3
100
AcDbSymbolTableRecord
100
AcDbTextStyleTableRecord
  2
STANDARD
 70
     0
 40
0.0
 41
1.0
 50
0.0
 71
     0
 42
2.5
  3
txt
  4

  0
ENDTAB
  0
TABLE
  2
VIEW
  5
6
330
0
100
AcDbSymbolTable
 70
     0
  0
ENDTAB
  0
TABLE
  2
UCS
  5
7
330
0
100
AcDbSymbolTable
 70
     0
  0
ENDTAB
  0
TABLE
  2
APPID
  5
9
330
0
100
AcDbSymbolTable
 70
     2
  0
APPID
  5
12
330
9
100
AcDbSymbolTableRecord
100
AcDbRegAppTableRecord
  2
ACAD
 70
     0
  0
ENDTAB
  0
TABLE
  2
DIMSTYLE
  5
A
330
0
100
AcDbSymbolTable
 70
     1
  0
DIMSTYLE
105
27
330
A
100
AcDbSymbolTableRecord
100
AcDbDimStyleTableRecord
  2
ISO-25
 70
     0
  3

  4

  5

  6

  7

 40
1.0
 41
2.5
 42
0.625
 43
3.75
 44
1.25
 45
0.0
 46
0.0
 47
0.0
 48
0.0
140
2.5
141
2.5
142
0.0
143
0.03937007874016
144
1.0
145
0.0
146
1.0
147
0.625
 71
     0
 72
     0
 73
     0
 74
     0
 75
     0
 76
     0
 77
     1
 78
     8
170
     0
171
     3
172
     1
173
     0
174
     0
175
     0
176
     0
177
     0
178
     0
270
     2
271
     2
272
     2
273
     2
274
     3
340
11
275
     0
280
     0
281
     0
282
     0
283
     0
284
     8
285
     0
286
     0
287
     3
288
     0
  0
ENDTAB
  0
TABLE
  2
BLOCK_RECORD
  5
1
330
0
100
AcDbSymbolTable
 70
     1
  0
BLOCK_RECORD
  5
1F
330
1
100
AcDbSymbolTableRecord
100
AcDbBlockTableRecord
  2
*MODEL_SPACE
  0
BLOCK_RECORD
  5
1B
330
1
100
AcDbSymbolTableRecord
100
AcDbBlockTableRecord
  2
*PAPER_SPACE
  0
ENDTAB
  0
ENDSEC
  0
SECTION
  2
BLOCKS
  0
BLOCK
  5
20
330
1F
100
AcDbEntity
  8
0
100
AcDbBlockBegin
  2
*MODEL_SPACE
 70
     0
 10
0.0
 20
0.0
 30
0.0
  3
*MODEL_SPACE
  1

  0
ENDBLK
  5
21
330
1F
100
AcDbEntity
  8
0
100
AcDbBlockEnd
  0
BLOCK
  5
1C
330
1B
100
AcDbEntity
 67
     1
  8
0
100
AcDbBlockBegin
  2
*PAPER_SPACE
  1

  0
ENDBLK
  5
1D
330
1B
100
AcDbEntity
 67
     1
  8
0
100
AcDbBlockEnd
  0
ENDSEC
  0
SECTION
  2
ENTITIES
  0
SPLINE
  5
100
100
AcDbEntity
  8
Layer_1
 62
1
100
AcDbSpline
 70
8
 71
3
 72
8
 73
4
 74
0
 40
0
 40
0
 40
0
 40
0
 40
1
 40
1
 40
1
 40
1
 10
18.428505
 20
41.215490
 30
0.0
 10
18.891526
 20
41.587574
 30
0.0
 10
19.298736
 20
41.850095
 30
0.0
 10
19.650138
 20
42.003050
 30
0.0
  0
LWPOLYLINE
  5
101
100
AcDbEntity
  8
Layer_1
 62
1
100
AcDbPolyline
 90
2
 70
0
 10
18.428505
 20
35.311972
 30
0.0
 10
17.262697
 20
35.311972
 30
0.0
  0
SPLINE
  5
102
100
AcDbEntity
  8
Layer_1
 62
1
100
AcDbSpline
 70
8
 71
3
 72
8
 73
4
 74
0
 40
0
 40
0
 40
0
 40
0
 40
1
 40
1
 40
1
 40
1
 10
19.395902
 20
40.843433
 30
0.0
 10
19.061026
 20
40.686324
 30
0.0
 10
18.738560
 20
40.481695
 30
0.0
 10
18.428505
 20
40.229521
 30
0.0
  0
LWPOLYLINE
  5
103
100
AcDbEntity
  8
Layer_1
 62
1
100
AcDbPolyline
 90
2
 70
0
 10
18.428505
 20
42.238688
 30
0.0
 10
18.428505
 20
41.215490
 30
0.0
  0
LWPOLYLINE
  5
104
100
AcDbEntity
  8
Layer_1
 62
1
100
AcDbPolyline
 90
2
 70
0
 10
18.428505
 20
40.229521
 30
0.0
 10
18.428505
 20
35.311972
 30
0.0
  0
SPLINE
  5
105
100
AcDbEntity
  8
Layer_1
 62
1
100
AcDbSpline
 70
8
 71
3
 72
8
 73
4
 74
0
 40
0
 40
0
 40
0
 40
0
 40
1
 40
1
 40
1
 40
1
 10
21.014409
 20
41.054280
 30
0.0
 10
20.853172
 20
41.074920
 30
0.0
 10
20.660936
 20
41.085290
 30
0.0
 10
20.437697
 20
41.085290
 30
0.0
  0
LWPOLYLINE
  5
106
100
AcDbEntity
  8
Layer_1
 62
1
100
AcDbPolyline
 90
2
 70
0
 10
17.262697
 20
42.238688
 30
0.0
 10
18.428505
 20
42.238688
 30
0.0
  0
SPLINE
  5
107
100
AcDbEntity
  8
Layer_1
 62
1
100
AcDbSpline
 70
8
 71
3
 72
8
 73
4
 74
0
 40
0
 40
0
 40
0
 40
0
 40
1
 40
1
 40
1
 40
1
 10
21.175620
 20
42.220088
 30
0.0
 10
21.266580
 20
42.211888
 30
0.0
 10
21.403013
 20
42.193238
 30
0.0
 10
21.584905
 20
42.164288
 30
0.0
  0
SPLINE
  5
108
100
AcDbEntity
  8
Layer_1
 62
1
100
AcDbSpline
 70
8
 71
3
 72
8
 73
4
 74
0
 40
0
 40
0
 40
0
 40
0
 40
1
 40
1
 40
1
 40
1
 10
20.437697
 20
41.085289
 30
0.0
 10
20.078022
 20
41.085289
 30
0.0
 10
19.730757
 20
41.004669
 30
0.0
 10
19.395902
 20
40.843433
 30
0.0
  0
SPLINE
  5
109
100
AcDbEntity
  8
Layer_1
 62
1
100
AcDbSpline
 70
8
 71
3
 72
8
 73
4
 74
0
 40
0
 40
0
 40
0
 40
0
 40
1
 40
1
 40
1
 40
1
 10
21.522886
 20
40.967444
 30
0.0
 10
21.349266
 20
41.008794
 30
0.0
 10
21.179774
 20
41.037744
 30
0.0
 10
21.014409
 20
41.054284
 30
0.0
  0
SPLINE
  5
10a
100
AcDbEntity
  8
Layer_1
 62
1
100
AcDbSpline
 70
8
 71
3
 72
8
 73
4
 74
0
 40
0
 40
0
 40
0
 40
0
 40
1
 40
1
 40
1
 40
1
 10
20.735356
 20
42.238688
 30
0.0
 10
20.937918
 20
42.238688
 30
0.0
 10
21.084674
 20
42.232588
 30
0.0
 10
21.175620
 20
42.220168
 30
0.0
  0
LWPOLYLINE
  5
10b
100
AcDbEntity
  8
Layer_1
 62
1
100
AcDbPolyline
 90
2
 70
0
 10
21.584905
 20
40.967444
 30
0.0
 10
21.522885
 20
40.967444
 30
0.0
  0
SPLINE
  5
10c
100
AcDbEntity
  8
Layer_1
 62
1
100
AcDbSpline
 70
8
 71
3
 72
8
 73
4
 74
0
 40
0
 40
0
 40
0
 40
0
 40
1
 40
1
 40
1
 40
1
 10
19.650138
 20
42.003050
 30
0.0
 10
20.005669
 20
42.160160
 30
0.0
 10
20.367408
 20
42.238688
 30
0.0
 10
20.735356
 20
42.238688
 30
0.0
  0
LWPOLYLINE
  5
10d
100
AcDbEntity
  8
Layer_1
 62
1
100
AcDbPolyline
 90
2
 70
0
 10
17.262697
 20
35.311972
 30
0.0
 10
17.262697
 20
42.238688
 30
0.0
  0
LWPOLYLINE
  5
10e
100
AcDbEntity
  8
Layer_1
 62
1
100
AcDbPolyline
 90
2
 70
0
 10
21.584905
 20
42.164287
 30
0.0
 10
21.584905
 20
40.967444
 30
0.0
  0
SPLINE
  5
10f
100
AcDbEntity
  8
Layer_1
 62
7
100
AcDbSpline
 70
8
 71
3
 72
8
 73
4
 74
0
 40
0
 40
0
 40
0
 40
0
 40
1
 40
1
 40
1
 40
1
 10
46.681196
 20
15.400665
 30
0.0
 10
46.405055
 20
15.400666
 30
0.0
 10
46.181198
 20
15.624522
 30
0.0
 10
46.181197
 20
15.900664
 30
0.0
  0
LWPOLYLINE
  5
110
100
AcDbEntity
  8
Layer_1
 62
7
100
AcDbPolyline
 90
2
 70
0
 10
59.081187
 20
15.400665
 30
0.0
 10
46.681196
 20
15.400665
 30
0.0
  0
SPLINE
  5
111
100
AcDbEntity
  8
Layer_1
 62
7
100
AcDbSpline
 70
8
 71
3
 72
8
 73
4
 74
0
 40
0
 40
0
 40
0
 40
0
 40
1
 40
1
 40
1
 40
1
 10
46.181197
 20
54.800635
 30
0.0
 10
46.181197
 20
54.933244
 30
0.0
 10
46.233875
 20
55.060421
 30
0.0
 10
46.327643
 20
55.154189
 30
0.0
  0
SPLINE
  5
112
100
AcDbEntity
  8
Layer_1
 62
7
100
AcDbSpline
 70
8
 71
3
 72
8
 73
4
 74
0
 40
0
 40
0
 40
0
 40
0
 40
1
 40
1
 40
1
 40
1
 10
46.327643
 20
55.154189
 30
0.0
 10
46.421411
 20
55.247958
 30
0.0
 10
46.548588
 20
55.300636
 30
0.0
 10
46.681196
 20
55.300637
 30
0.0
  0
LWPOLYLINE
  5
113
100
AcDbEntity
  8
Layer_1
 62
7
100
AcDbPolyline
 90
2
 70
0
 10
46.181197
 20
15.900664
 30
0.0
 10
46.181197
 20
54.800635
 30
0.0
  0
SPLINE
  5
114
100
AcDbEntity
  8
Layer_1
 62
7
100
AcDbSpline
 70
8
 71
3
 72
8
 73
4
 74
0
 40
0
 40
0
 40
0
 40
0
 40
1
 40
1
 40
1
 40
1
 10
59.081187
 20
55.300637
 30
0.0
 10
59.213795
 20
55.300637
 30
0.0
 10
59.340973
 20
55.247959
 30
0.0
 10
59.434741
 20
55.154190
 30
0.0
  0
SPLINE
  5
115
100
AcDbEntity
  8
Layer_1
 62
7
100
AcDbSpline
 70
8
 71
3
 72
8
 73
4
 74
0
 40
0
 40
0
 40
0
 40
0
 40
1
 40
1
 40
1
 40
1
 10
59.434741
 20
55.154190
 30
0.0
 10
59.528510
 20
55.060422
 30
0.0
 10
59.581188
 20
54.933244
 30
0.0
 10
59.581188
 20
54.800635
 30
0.0
  0
LWPOLYLINE
  5
116
100
AcDbEntity
  8
Layer_1
 62
7
100
AcDbPolyline
 90
2
 70
0
 10
46.681196
 20
55.300637
 30
0.0
 10
59.081187
 20
55.300637
 30
0.0
  0
SPLINE
  5
117
100
AcDbEntity
  8
Layer_1
 62
7
100
AcDbSpline
 70
8
 71
3
 72
8
 73
4
 74
0
 40
0
 40
0
 40
0
 40
0
 40
1
 40
1
 40
1
 40
1
 10
59.581188
 20
15.900664
 30
0.0
 10
59.581188
 20
15.768055
 30
0.0
 10
59.528509
 20
15.640879
 30
0.0
 10
59.434740
 20
15.547111
 30
0.0
  0
SPLINE
  5
118
100
AcDbEntity
  8
Layer_1
 62
7
100
AcDbSpline
 70
8
 71
3
 72
8
 73
4
 74
0
 40
0
 40
0
 40
0
 40
0
 40
1
 40
1
 40
1
 40
1
 10
59.434740
 20
15.547111
 30
0.0
 10
59.340972
 20
15.453343
 30
0.0
 10
59.213795
 20
15.400665
 30
0.0
 10
59.081187
 20
15.400665
 30
0.0
  0
LWPOLYLINE
  5
119
100
AcDbEntity
  8
Layer_1
 62
7
100
AcDbPolyline
 90
2
 70
0
 10
59.581188
 20
54.800635
 30
0.0
 10
59.581188
 20
15.900664
 30
0.0
  0
SPLINE
  5
11a
100
AcDbEntity
  8
Layer_1
 62
7
100
AcDbSpline
 70
8
 71
3
 72
8
 73
4
 74
0
 40
0
 40
0
 40
0
 40
0
 40
1
 40
1
 40
1
 40
1
 10
39.480515
 20
20.115166
 30
0.0
 10
39.480515
 20
20.668928
 30
0.0
 10
39.185087
 20
21.180624
 30
0.0
 10
38.705516
 20
21.457505
 30
0.0
  0
SPLINE
  5
11b
100
AcDbEntity
  8
Layer_1
 62
7
100
AcDbSpline
 70
8
 71
3
 72
8
 73
4
 74
0
 40
0
 40
0
 40
0
 40
0
 40
1
 40
1
 40
1
 40
1
 10
38.705516
 20
21.457505
 30
0.0
 10
38.225944
 20
21.734386
 30
0.0
 10
37.635088
 20
21.734386
 30
0.0
 10
37.155516
 20
21.457505
 30
0.0
  0
SPLINE
  5
11c
100
AcDbEntity
  8
Layer_1
 62
7
100
AcDbSpline
 70
8
 71
3
 72
8
 73
4
 74
0
 40
0
 40
0
 40
0
 40
0
 40
1
 40
1
 40
1
 40
1
 10
37.155516
 20
21.457505
 30
0.0
 10
36.675945
 20
21.180624
 30
0.0
 10
36.380516
 20
20.668928
 30
0.0
 10
36.380516
 20
20.115166
 30
0.0
  0
SPLINE
  5
11d
100
AcDbEntity
  8
Layer_1
 62
7
100
AcDbSpline
 70
8
 71
3
 72
8
 73
4
 74
0
 40
0
 40
0
 40
0
 40
0
 40
1
 40
1
 40
1
 40
1
 10
36.380516
 20
20.115166
 30
0.0
 10
36.380516
 20
19.561405
 30
0.0
 10
36.675945
 20
19.049708
 30
0.0
 10
37.155516
 20
18.772827
 30
0.0
  0
SPLINE
  5
11e
100
AcDbEntity
  8
Layer_1
 62
7
100
AcDbSpline
 70
8
 71
3
 72
8
 73
4
 74
0
 40
0
 40
0
 40
0
 40
0
 40
1
 40
1
 40
1
 40
1
 10
37.155516
 20
18.772827
 30
0.0
 10
37.635088
 20
18.495946
 30
0.0
 10
38.225944
 20
18.495946
 30
0.0
 10
38.705516
 20
18.772827
 30
0.0
  0
SPLINE
  5
11f
100
AcDbEntity
  8
Layer_1
 62
7
100
AcDbSpline
 70
8
 71
3
 72
8
 73
4
 74
0
 40
0
 40
0
 40
0
 40
0
 40
1
 40
1
 40
1
 40
1
 10
38.705516
 20
18.772827
 30
0.0
 10
39.185087
 20
19.049708
 30
0.0
 10
39.480515
 20
19.561405
 30
0.0
 10
39.480515
 20
20.115166
 30
0.0
  0
LWPOLYLINE
  5
120
100
AcDbEntity
  8
Layer_1
 62
7
100
AcDbPolyline
 90
1
 70
1
 10
59.081187
 20
15.400665
 30
0.0
  0
SPLINE
  5
121
100
AcDbEntity
  8
Layer_1
 62
7
100
AcDbSpline
 70
8
 71
3
 72
8
 73
4
 74
0
 40
0
 40
0
 40
0
 40
0
 40
1
 40
1
 40
1
 40
1
 10
39.532077
 20
56.194010
 30
0.0
 10
39.532638
 20
56.748144
 30
0.0
 10
39.237333
 20
57.260426
 30
0.0
 10
38.757531
 20
57.537655
 30
0.0
  0
SPLINE
  5
122
100
AcDbEntity
  8
Layer_1
 62
7
100
AcDbSpline
 70
8
 71
3
 72
8
 73
4
 74
0
 40
0
 40
0
 40
0
 40
0
 40
1
 40
1
 40
1
 40
1
 10
38.757531
 20
57.537655
 30
0.0
 10
38.277730
 20
57.814884
 30
0.0
 10
37.686428
 20
57.814884
 30
0.0
 10
37.206627
 20
57.537655
 30
0.0
  0
SPLINE
  5
123
100
AcDbEntity
  8
Layer_1
 62
7
100
AcDbSpline
 70
8
 71
3
 72
8
 73
4
 74
0
 40
0
 40
0
 40
0
 40
0
 40
1
 40
1
 40
1
 40
1
 10
37.206627
 20
57.537655
 30
0.0
 10
36.726826
 20
57.260426
 30
0.0
 10
36.431520
 20
56.748144
 30
0.0
 10
36.432081
 20
56.194010
 30
0.0
  0
SPLINE
  5
124
100
AcDbEntity
  8
Layer_1
 62
7
100
AcDbSpline
 70
8
 71
3
 72
8
 73
4
 74
0
 40
0
 40
0
 40
0
 40
0
 40
1
 40
1
 40
1
 40
1
 10
36.432081
 20
56.194010
 30
0.0
 10
36.431520
 20
55.639875
 30
0.0
 10
36.726826
 20
55.127593
 30
0.0
 10
37.206627
 20
54.850364
 30
0.0
  0
SPLINE
  5
125
100
AcDbEntity
  8
Layer_1
 62
7
100
AcDbSpline
 70
8
 71
3
 72
8
 73
4
 74
0
 40
0
 40
0
 40
0
 40
0
 40
1
 40
1
 40
1
 40
1
 10
37.206627
 20
54.850364
 30
0.0
 10
37.686428
 20
54.573135
 30
0.0
 10
38.277730
 20
54.573135
 30
0.0
 10
38.757531
 20
54.850364
 30
0.0
  0
SPLINE
  5
126
100
AcDbEntity
  8
Layer_1
 62
7
100
AcDbSpline
 70
8
 71
3
 72
8
 73
4
 74
0
 40
0
 40
0
 40
0
 40
0
 40
1
 40
1
 40
1
 40
1
 10
38.757531
 20
54.850364
 30
0.0
 10
39.237333
 20
55.127593
 30
0.0
 10
39.532638
 20
55.639875
 30
0.0
 10
39.532077
 20
56.194010
 30
0.0
  0
LWPOLYLINE
  5
127
100
AcDbEntity
  8
Layer_1
 62
7
100
AcDbPolyline
 90
1
 70
1
 10
39.480515
 20
20.115166
 30
0.0
  0
LWPOLYLINE
  5
128
100
AcDbEntity
  8
Layer_1
 62
7
100
AcDbPolyline
 90
1
 70
1
 10
39.532077
 20
56.194010
 30
0.0
  0
SPLINE
  5
129
100
AcDbEntity
  8
Layer_1
 62
7
100
AcDbSpline
 70
8
 71
3
 72
8
 73
4
 74
0
 40
0
 40
0
 40
0
 40
0
 40
1
 40
1
 40
1
 40
1
 10
65.625712
 20
3.973901
 30
0.0
 10
65.758322
 20
3.973901
 30
0.0
 10
65.885500
 20
4.026580
 30
0.0
 10
65.979269
 20
4.120350
 30
0.0
  0
SPLINE
  5
12a
100
AcDbEntity
  8
Layer_1
 62
7
100
AcDbSpline
 70
8
 71
3
 72
8
 73
4
 74
0
 40
0
 40
0
 40
0
 40
0
 40
1
 40
1
 40
1
 40
1
 10
65.979269
 20
4.120350
 30
0.0
 10
66.073038
 20
4.214121
 30
0.0
 10
66.125715
 20
4.341300
 30
0.0
 10
66.125713
 20
4.473910
 30
0.0
  0
LWPOLYLINE
  5
12b
100
AcDbEntity
  8
Layer_1
 62
7
100
AcDbPolyline
 90
2
 70
0
 10
42.462222
 20
3.973901
 30
0.0
 10
65.625712
 20
3.973901
 30
0.0
  0
SPLINE
  5
12c
100
AcDbEntity
  8
Layer_1
 62
7
100
AcDbSpline
 70
8
 71
3
 72
8
 73
4
 74
0
 40
0
 40
0
 40
0
 40
0
 40
1
 40
1
 40
1
 40
1
 10
41.732306
 20
63.935675
 30
0.0
 10
37.866316
 20
63.935675
 30
0.0
 10
34.732312
 20
60.801671
 30
0.0
 10
34.732312
 20
56.935681
 30
0.0
  0
LWPOLYLINE
  5
12d
100
AcDbEntity
  8
Layer_1
 62
7
100
AcDbPolyline
 90
3
 70
0
 10
66.125713
 20
4.473910
 30
0.0
 10
66.125713
 20
63.935675
 30
0.0
 10
41.732306
 20
63.935675
 30
0.0
  0
SPLINE
  5
12e
100
AcDbEntity
  8
Layer_1
 62
7
100
AcDbSpline
 70
8
 71
3
 72
8
 73
4
 74
0
 40
0
 40
0
 40
0
 40
0
 40
1
 40
1
 40
1
 40
1
 10
34.732312
 20
0.631528
 30
0.0
 10
34.732316
 20
0.453934
 30
0.0
 10
34.826523
 20
0.289670
 30
0.0
 10
34.979807
 20
0.199983
 30
0.0
  0
SPLINE
  5
12f
100
AcDbEntity
  8
Layer_1
 62
7
100
AcDbSpline
 70
8
 71
3
 72
8
 73
4
 74
0
 40
0
 40
0
 40
0
 40
0
 40
1
 40
1
 40
1
 40
1
 10
34.979807
 20
0.199983
 30
0.0
 10
35.133091
 20
0.110296
 30
0.0
 10
35.322445
 20
0.108649
 30
0.0
 10
35.477267
 20
0.195654
 30
0.0
  0
LWPOLYLINE
  5
130
100
AcDbEntity
  8
Layer_1
 62
7
100
AcDbPolyline
 90
2
 70
0
 10
34.732312
 20
56.935681
 30
0.0
 10
34.732312
 20
0.631528
 30
0.0
  0
SPLINE
  5
131
100
AcDbEntity
  8
Layer_1
 62
7
100
AcDbSpline
 70
8
 71
3
 72
8
 73
4
 74
0
 40
0
 40
0
 40
0
 40
0
 40
1
 40
1
 40
1
 40
1
 10
41.972309
 20
3.845684
 30
0.0
 10
42.121907
 20
3.929750
 30
0.0
 10
42.290622
 20
3.973905
 30
0.0
 10
42.462222
 20
3.973901
 30
0.0
  0
LWPOLYLINE
  5
132
100
AcDbEntity
  8
Layer_1
 62
7
100
AcDbPolyline
 90
2
 70
0
 10
35.477267
 20
0.195654
 30
0.0
 10
41.972309
 20
3.845684
 30
0.0
  0
LWPOLYLINE
  5
133
100
AcDbEntity
  8
Layer_1
 62
7
100
AcDbPolyline
 90
1
 70
1
 10
42.462222
 20
3.973901
 30
0.0
  0
SPLINE
  5
134
100
AcDbEntity
  8
Layer_1
 62
7
100
AcDbSpline
 70
8
 71
3
 72
8
 73
4
 74
0
 40
0
 40
0
 40
0
 40
0
 40
1
 40
1
 40
1
 40
1
 10
27.945525
 20
21.498420
 30
0.0
 10
28.221667
 20
21.498420
 30
0.0
 10
28.445524
 20
21.722277
 30
0.0
 10
28.445525
 20
21.998419
 30
0.0
  0
LWPOLYLINE
  5
135
100
AcDbEntity
  8
Layer_1
 62
7
100
AcDbPolyline
 90
2
 70
0
 10
24.981212
 20
21.498420
 30
0.0
 10
27.945525
 20
21.498420
 30
0.0
  0
SPLINE
  5
136
100
AcDbEntity
  8
Layer_1
 62
7
100
AcDbSpline
 70
8
 71
3
 72
8
 73
4
 74
0
 40
0
 40
0
 40
0
 40
0
 40
1
 40
1
 40
1
 40
1
 10
28.445525
 20
59.398392
 30
0.0
 10
28.445525
 20
59.531000
 30
0.0
 10
28.392847
 20
59.658178
 30
0.0
 10
28.299079
 20
59.751946
 30
0.0
  0
SPLINE
  5
137
100
AcDbEntity
  8
Layer_1
 62
7
100
AcDbSpline
 70
8
 71
3
 72
8
 73
4
 74
0
 40
0
 40
0
 40
0
 40
0
 40
1
 40
1
 40
1
 40
1
 10
28.299079
 20
59.751946
 30
0.0
 10
28.205311
 20
59.845715
 30
0.0
 10
28.078134
 20
59.898393
 30
0.0
 10
27.945525
 20
59.898393
 30
0.0
  0
LWPOLYLINE
  5
138
100
AcDbEntity
  8
Layer_1
 62
7
100
AcDbPolyline
 90
2
 70
0
 10
28.445525
 20
21.998419
 30
0.0
 10
28.445525
 20
59.398392
 30
0.0
  0
SPLINE
  5
139
100
AcDbEntity
  8
Layer_1
 62
7
100
AcDbSpline
 70
8
 71
3
 72
8
 73
4
 74
0
 40
0
 40
0
 40
0
 40
0
 40
1
 40
1
 40
1
 40
1
 10
9.265538
 20
21.998419
 30
0.0
 10
9.265539
 20
21.722277
 30
0.0
 10
9.489396
 20
21.498420
 30
0.0
 10
9.765538
 20
21.498420
 30
0.0
  0
LWPOLYLINE
  5
13a
100
AcDbEntity
  8
Layer_1
 62
7
100
AcDbPolyline
 90
2
 70
0
 10
27.945525
 20
59.898393
 30
0.0
 10
25.805527
 20
59.898393
 30
0.0
  0
SPLINE
  5
13b
100
AcDbEntity
  8
Layer_1
 62
7
100
AcDbSpline
 70
8
 71
3
 72
8
 73
4
 74
0
 40
0
 40
0
 40
0
 40
0
 40
1
 40
1
 40
1
 40
1
 10
9.765538
 20
59.898393
 30
0.0
 10
9.632930
 20
59.898393
 30
0.0
 10
9.505752
 20
59.845715
 30
0.0
 10
9.411984
 20
59.751946
 30
0.0
  0
SPLINE
  5
13c
100
AcDbEntity
  8
Layer_1
 62
7
100
AcDbSpline
 70
8
 71
3
 72
8
 73
4
 74
0
 40
0
 40
0
 40
0
 40
0
 40
1
 40
1
 40
1
 40
1
 10
9.411984
 20
59.751946
 30
0.0
 10
9.318216
 20
59.658178
 30
0.0
 10
9.265538
 20
59.531000
 30
0.0
 10
9.265538
 20
59.398392
 30
0.0
  0
LWPOLYLINE
  5
13d
100
AcDbEntity
  8
Layer_1
 62
7
100
AcDbPolyline
 90
2
 70
0
 10
9.265538
 20
59.398392
 30
0.0
 10
9.265538
 20
21.998419
 30
0.0
  0
LWPOLYLINE
  5
13e
100
AcDbEntity
  8
Layer_1
 62
7
100
AcDbPolyline
 90
2
 70
0
 10
11.905537
 20
59.898393
 30
0.0
 10
9.765538
 20
59.898393
 30
0.0
  0
LWPOLYLINE
  5
13f
100
AcDbEntity
  8
Layer_1
 62
7
100
AcDbPolyline
 90
2
 70
0
 10
11.905537
 20
63.935675
 30
0.0
 10
11.905537
 20
59.898393
 30
0.0
  0
LWPOLYLINE
  5
140
100
AcDbEntity
  8
Layer_1
 62
7
100
AcDbPolyline
 90
2
 70
0
 10
25.805527
 20
59.898393
 30
0.0
 10
25.805527
 20
63.935675
 30
0.0
  0
LWPOLYLINE
  5
141
100
AcDbEntity
  8
Layer_1
 62
7
100
AcDbPolyline
 90
2
 70
0
 10
9.765538
 20
21.498420
 30
0.0
 10
11.581222
 20
21.498420
 30
0.0
  0
SPLINE
  5
142
100
AcDbEntity
  8
Layer_1
 62
7
100
AcDbSpline
 70
8
 71
3
 72
8
 73
4
 74
0
 40
0
 40
0
 40
0
 40
0
 40
1
 40
1
 40
1
 40
1
 10
20.821215
 20
13.565170
 30
0.0
 10
20.821215
 20
13.657996
 30
0.0
 10
20.784341
 20
13.747020
 30
0.0
 10
20.718703
 20
13.812658
 30
0.0
  0
SPLINE
  5
143
100
AcDbEntity
  8
Layer_1
 62
7
100
AcDbSpline
 70
8
 71
3
 72
8
 73
4
 74
0
 40
0
 40
0
 40
0
 40
0
 40
1
 40
1
 40
1
 40
1
 10
20.718703
 20
13.812658
 30
0.0
 10
20.653065
 20
13.878296
 30
0.0
 10
20.564041
 20
13.915171
 30
0.0
 10
20.471215
 20
13.915171
 30
0.0
  0
LWPOLYLINE
  5
144
100
AcDbEntity
  8
Layer_1
 62
7
100
AcDbPolyline
 90
2
 70
0
 10
20.821215
 20
7.215177
 30
0.0
 10
20.821215
 20
13.565170
 30
0.0
  0
SPLINE
  5
145
100
AcDbEntity
  8
Layer_1
 62
7
100
AcDbSpline
 70
8
 71
3
 72
8
 73
4
 74
0
 40
0
 40
0
 40
0
 40
0
 40
1
 40
1
 40
1
 40
1
 10
4.948131
 20
15.003176
 30
0.0
 10
7.041836
 20
14.282840
 30
0.0
 10
9.240624
 20
13.915171
 30
0.0
 10
11.454779
 20
13.915171
 30
0.0
  0
LWPOLYLINE
  5
146
100
AcDbEntity
  8
Layer_1
 62
7
100
AcDbPolyline
 90
2
 70
0
 10
20.471215
 20
13.915171
 30
0.0
 10
11.454779
 20
13.915171
 30
0.0
  0
SPLINE
  5
147
100
AcDbEntity
  8
Layer_1
 62
7
100
AcDbSpline
 70
8
 71
3
 72
8
 73
4
 74
0
 40
0
 40
0
 40
0
 40
0
 40
1
 40
1
 40
1
 40
1
 10
0.421033
 20
16.560722
 30
0.0
 10
0.371216
 20
16.575195
 30
0.0
 10
0.324705
 20
16.599261
 30
0.0
 10
0.284078
 20
16.631530
 30
0.0
  0
SPLINE
  5
148
100
AcDbEntity
  8
Layer_1
 62
7
100
AcDbSpline
 70
8
 71
3
 72
8
 73
4
 74
0
 40
0
 40
0
 40
0
 40
0
 40
1
 40
1
 40
1
 40
1
 10
0.284078
 20
16.631530
 30
0.0
 10
0.243298
 20
16.663917
 30
0.0
 10
0.209226
 20
16.703957
 30
0.0
 10
0.183748
 20
16.749378
 30
0.0
  0
SPLINE
  5
149
100
AcDbEntity
  8
Layer_1
 62
7
100
AcDbSpline
 70
8
 71
3
 72
8
 73
4
 74
0
 40
0
 40
0
 40
0
 40
0
 40
1
 40
1
 40
1
 40
1
 10
0.183748
 20
16.749378
 30
0.0
 10
0.166949
 20
16.779323
 30
0.0
 10
0.154059
 20
16.811301
 30
0.0
 10
0.145386
 20
16.844524
 30
0.0
  0
SPLINE
  5
14a
100
AcDbEntity
  8
Layer_1
 62
7
100
AcDbSpline
 70
8
 71
3
 72
8
 73
4
 74
0
 40
0
 40
0
 40
0
 40
0
 40
1
 40
1
 40
1
 40
1
 10
0.145386
 20
16.844524
 30
0.0
 10
0.136721
 20
16.877711
 30
0.0
 10
0.132336
 20
16.911874
 30
0.0
 10
0.132336
 20
16.946177
 30
0.0
  0
LWPOLYLINE
  5
14b
100
AcDbEntity
  8
Layer_1
 62
7
100
AcDbPolyline
 90
2
 70
0
 10
4.948131
 20
15.003176
 30
0.0
 10
0.421033
 20
16.560722
 30
0.0
  0
SPLINE
  5
14c
100
AcDbEntity
  8
Layer_1
 62
7
100
AcDbSpline
 70
8
 71
3
 72
8
 73
4
 74
0
 40
0
 40
0
 40
0
 40
0
 40
1
 40
1
 40
1
 40
1
 10
9.288190
 20
6.865186
 30
0.0
 10
8.623677
 20
6.865187
 30
0.0
 10
7.962548
 20
6.770566
 30
0.0
 10
7.324712
 20
6.584173
 30
0.0
  0
LWPOLYLINE
  5
14d
100
AcDbEntity
  8
Layer_1
 62
7
100
AcDbPolyline
 90
2
 70
0
 10
9.288190
 20
6.865186
 30
0.0
 10
20.471215
 20
6.865186
 30
0.0
  0
SPLINE
  5
14e
100
AcDbEntity
  8
Layer_1
 62
7
100
AcDbSpline
 70
8
 71
3
 72
8
 73
4
 74
0
 40
0
 40
0
 40
0
 40
0
 40
1
 40
1
 40
1
 40
1
 10
0.420822
 20
4.569742
 30
0.0
 10
1.369062
 20
4.845967
 30
0.0
 10
2.334982
 20
5.127457
 30
0.0
 10
3.284303
 20
5.404343
 30
0.0
  0
SPLINE
  5
14f
100
AcDbEntity
  8
Layer_1
 62
7
100
AcDbSpline
 70
8
 71
3
 72
8
 73
4
 74
0
 40
0
 40
0
 40
0
 40
0
 40
1
 40
1
 40
1
 40
1
 10
3.284303
 20
5.404343
 30
0.0
 10
4.235248
 20
5.681679
 30
0.0
 10
5.209915
 20
5.966159
 30
0.0
 10
6.160717
 20
6.243998
 30
0.0
  0
SPLINE
  5
150
100
AcDbEntity
  8
Layer_1
 62
7
100
AcDbSpline
 70
8
 71
3
 72
8
 73
4
 74
0
 40
0
 40
0
 40
0
 40
0
 40
1
 40
1
 40
1
 40
1
 10
0.132336
 20
4.184350
 30
0.0
 10
0.132336
 20
4.236685
 30
0.0
 10
0.142544
 20
4.288517
 30
0.0
 10
0.162391
 20
4.336936
 30
0.0
  0
SPLINE
  5
151
100
AcDbEntity
  8
Layer_1
 62
7
100
AcDbSpline
 70
8
 71
3
 72
8
 73
4
 74
0
 40
0
 40
0
 40
0
 40
0
 40
1
 40
1
 40
1
 40
1
 10
0.162391
 20
4.336936
 30
0.0
 10
0.182232
 20
4.385354
 30
0.0
 10
0.211330
 20
4.429407
 30
0.0
 10
0.248069
 20
4.466661
 30
0.0
  0
SPLINE
  5
152
100
AcDbEntity
  8
Layer_1
 62
7
100
AcDbSpline
 70
8
 71
3
 72
8
 73
4
 74
0
 40
0
 40
0
 40
0
 40
0
 40
1
 40
1
 40
1
 40
1
 10
0.248069
 20
4.466661
 30
0.0
 10
0.271918
 20
4.490738
 30
0.0
 10
0.298743
 20
4.511878
 30
0.0
 10
0.327905
 20
4.529261
 30
0.0
  0
SPLINE
  5
153
100
AcDbEntity
  8
Layer_1
 62
7
100
AcDbSpline
 70
8
 71
3
 72
8
 73
4
 74
0
 40
0
 40
0
 40
0
 40
0
 40
1
 40
1
 40
1
 40
1
 10
0.327905
 20
4.529261
 30
0.0
 10
0.357033
 20
4.546724
 30
0.0
 10
0.388255
 20
4.560244
 30
0.0
 10
0.420822
 20
4.569742
 30
0.0
  0
SPLINE
  5
154
100
AcDbEntity
  8
Layer_1
 62
7
100
AcDbSpline
 70
8
 71
3
 72
8
 73
4
 74
0
 40
0
 40
0
 40
0
 40
0
 40
1
 40
1
 40
1
 40
1
 10
20.471215
 20
6.865186
 30
0.0
 10
20.664511
 20
6.865186
 30
0.0
 10
20.821210
 20
7.021881
 30
0.0
 10
20.821215
 20
7.215177
 30
0.0
  0
LWPOLYLINE
  5
155
100
AcDbEntity
  8
Layer_1
 62
7
100
AcDbPolyline
 90
2
 70
0
 10
6.160717
 20
6.243998
 30
0.0
 10
7.324712
 20
6.584173
 30
0.0
  0
LWPOLYLINE
  5
156
100
AcDbEntity
  8
Layer_1
 62
7
100
AcDbPolyline
 90
2
 70
0
 10
11.581222
 20
15.900664
 30
0.0
 10
11.581222
 20
21.498420
 30
0.0
  0
LWPOLYLINE
  5
157
100
AcDbEntity
  8
Layer_1
 62
7
100
AcDbPolyline
 90
2
 70
0
 10
24.981212
 20
21.498420
 30
0.0
 10
24.981212
 20
15.900664
 30
0.0
  0
LWPOLYLINE
  5
158
100
AcDbEntity
  8
Layer_1
 62
7
100
AcDbPolyline
 90
2
 70
0
 10
31.525737
 20
63.935675
 30
0.0
 10
25.805527
 20
63.935675
 30
0.0
  0
LWPOLYLINE
  5
159
100
AcDbEntity
  8
Layer_1
 62
7
100
AcDbPolyline
 90
2
 70
0
 10
0.132336
 20
4.184350
 30
0.0
 10
0.132336
 20
0.631528
 30
0.0
  0
SPLINE
  5
15a
100
AcDbEntity
  8
Layer_1
 62
7
100
AcDbSpline
 70
8
 71
3
 72
8
 73
4
 74
0
 40
0
 40
0
 40
0
 40
0
 40
1
 40
1
 40
1
 40
1
 10
7.862246
 20
3.973901
 30
0.0
 10
7.690646
 20
3.973904
 30
0.0
 10
7.521933
 20
3.929750
 30
0.0
 10
7.372335
 20
3.845684
 30
0.0
  0
LWPOLYLINE
  5
15b
100
AcDbEntity
  8
Layer_1
 62
7
100
AcDbPolyline
 90
2
 70
0
 10
0.132336
 20
56.935681
 30
0.0
 10
0.132336
 20
16.946177
 30
0.0
  0
SPLINE
  5
15c
100
AcDbEntity
  8
Layer_1
 62
7
100
AcDbSpline
 70
8
 71
3
 72
8
 73
4
 74
0
 40
0
 40
0
 40
0
 40
0
 40
1
 40
1
 40
1
 40
1
 10
31.025737
 20
3.973901
 30
0.0
 10
31.158347
 20
3.973901
 30
0.0
 10
31.285526
 20
4.026581
 30
0.0
 10
31.379294
 20
4.120351
 30
0.0
  0
SPLINE
  5
15d
100
AcDbEntity
  8
Layer_1
 62
7
100
AcDbSpline
 70
8
 71
3
 72
8
 73
4
 74
0
 40
0
 40
0
 40
0
 40
0
 40
1
 40
1
 40
1
 40
1
 10
31.379294
 20
4.120351
 30
0.0
 10
31.473062
 20
4.214121
 30
0.0
 10
31.525739
 20
4.341301
 30
0.0
 10
31.525737
 20
4.473910
 30
0.0
  0
LWPOLYLINE
  5
15e
100
AcDbEntity
  8
Layer_1
 62
7
100
AcDbPolyline
 90
2
 70
0
 10
31.025737
 20
3.973901
 30
0.0
 10
7.862246
 20
3.973901
 30
0.0
  0
SPLINE
  5
15f
100
AcDbEntity
  8
Layer_1
 62
7
100
AcDbSpline
 70
8
 71
3
 72
8
 73
4
 74
0
 40
0
 40
0
 40
0
 40
0
 40
1
 40
1
 40
1
 40
1
 10
11.581222
 20
15.900664
 30
0.0
 10
11.581222
 20
15.624522
 30
0.0
 10
11.805080
 20
15.400665
 30
0.0
 10
12.081221
 20
15.400665
 30
0.0
  0
LWPOLYLINE
  5
160
100
AcDbEntity
  8
Layer_1
 62
7
100
AcDbPolyline
 90
2
 70
0
 10
31.525737
 20
63.935675
 30
0.0
 10
31.525737
 20
4.473910
 30
0.0
  0
SPLINE
  5
161
100
AcDbEntity
  8
Layer_1
 62
7
100
AcDbSpline
 70
8
 71
3
 72
8
 73
4
 74
0
 40
0
 40
0
 40
0
 40
0
 40
1
 40
1
 40
1
 40
1
 10
24.481213
 20
15.400665
 30
0.0
 10
24.757354
 20
15.400665
 30
0.0
 10
24.981212
 20
15.624522
 30
0.0
 10
24.981212
 20
15.900664
 30
0.0
  0
LWPOLYLINE
  5
162
100
AcDbEntity
  8
Layer_1
 62
7
100
AcDbPolyline
 90
2
 70
0
 10
24.481213
 20
15.400665
 30
0.0
 10
12.081221
 20
15.400665
 30
0.0
  0
SPLINE
  5
163
100
AcDbEntity
  8
Layer_1
 62
7
100
AcDbSpline
 70
8
 71
3
 72
8
 73
4
 74
0
 40
0
 40
0
 40
0
 40
0
 40
1
 40
1
 40
1
 40
1
 10
0.132336
 20
0.631528
 30
0.0
 10
0.132341
 20
0.453934
 30
0.0
 10
0.226548
 20
0.289670
 30
0.0
 10
0.379832
 20
0.199983
 30
0.0
  0
SPLINE
  5
164
100
AcDbEntity
  8
Layer_1
 62
7
100
AcDbSpline
 70
8
 71
3
 72
8
 73
4
 74
0
 40
0
 40
0
 40
0
 40
0
 40
1
 40
1
 40
1
 40
1
 10
0.379832
 20
0.199983
 30
0.0
 10
0.533115
 20
0.110296
 30
0.0
 10
0.722470
 20
0.108649
 30
0.0
 10
0.877291
 20
0.195654
 30
0.0
  0
SPLINE
  5
165
100
AcDbEntity
  8
Layer_1
 62
7
100
AcDbSpline
 70
8
 71
3
 72
8
 73
4
 74
0
 40
0
 40
0
 40
0
 40
0
 40
1
 40
1
 40
1
 40
1
 10
7.132331
 20
63.935675
 30
0.0
 10
3.266341
 20
63.935675
 30
0.0
 10
0.132337
 20
60.801671
 30
0.0
 10
0.132336
 20
56.935681
 30
0.0
  0
LWPOLYLINE
  5
166
100
AcDbEntity
  8
Layer_1
 62
7
100
AcDbPolyline
 90
2
 70
0
 10
7.372335
 20
3.845684
 30
0.0
 10
0.877291
 20
0.195654
 30
0.0
  0
SPLINE
  5
167
100
AcDbEntity
  8
Layer_1
 62
7
100
AcDbSpline
 70
8
 71
3
 72
8
 73
4
 74
0
 40
0
 40
0
 40
0
 40
0
 40
1
 40
1
 40
1
 40
1
 10
4.932103
 20
56.194010
 30
0.0
 10
4.932103
 20
56.747771
 30
0.0
 10
4.636675
 20
57.259467
 30
0.0
 10
4.157104
 20
57.536348
 30
0.0
  0
SPLINE
  5
168
100
AcDbEntity
  8
Layer_1
 62
7
100
AcDbSpline
 70
8
 71
3
 72
8
 73
4
 74
0
 40
0
 40
0
 40
0
 40
0
 40
1
 40
1
 40
1
 40
1
 10
4.157104
 20
57.536348
 30
0.0
 10
3.677532
 20
57.813229
 30
0.0
 10
3.086676
 20
57.813229
 30
0.0
 10
2.607105
 20
57.536348
 30
0.0
  0
SPLINE
  5
169
100
AcDbEntity
  8
Layer_1
 62
7
100
AcDbSpline
 70
8
 71
3
 72
8
 73
4
 74
0
 40
0
 40
0
 40
0
 40
0
 40
1
 40
1
 40
1
 40
1
 10
2.607105
 20
57.536348
 30
0.0
 10
2.127533
 20
57.259467
 30
0.0
 10
1.832105
 20
56.747771
 30
0.0
 10
1.832105
 20
56.194010
 30
0.0
  0
SPLINE
  5
16a
100
AcDbEntity
  8
Layer_1
 62
7
100
AcDbSpline
 70
8
 71
3
 72
8
 73
4
 74
0
 40
0
 40
0
 40
0
 40
0
 40
1
 40
1
 40
1
 40
1
 10
1.832105
 20
56.194010
 30
0.0
 10
1.832105
 20
55.640248
 30
0.0
 10
2.127533
 20
55.128552
 30
0.0
 10
2.607105
 20
54.851671
 30
0.0
  0
SPLINE
  5
16b
100
AcDbEntity
  8
Layer_1
 62
7
100
AcDbSpline
 70
8
 71
3
 72
8
 73
4
 74
0
 40
0
 40
0
 40
0
 40
0
 40
1
 40
1
 40
1
 40
1
 10
2.607105
 20
54.851671
 30
0.0
 10
3.086676
 20
54.574790
 30
0.0
 10
3.677532
 20
54.574790
 30
0.0
 10
4.157104
 20
54.851671
 30
0.0
  0
SPLINE
  5
16c
100
AcDbEntity
  8
Layer_1
 62
7
100
AcDbSpline
 70
8
 71
3
 72
8
 73
4
 74
0
 40
0
 40
0
 40
0
 40
0
 40
1
 40
1
 40
1
 40
1
 10
4.157104
 20
54.851671
 30
0.0
 10
4.636675
 20
55.128552
 30
0.0
 10
4.932103
 20
55.640248
 30
0.0
 10
4.932103
 20
56.194010
 30
0.0
  0
LWPOLYLINE
  5
16d
100
AcDbEntity
  8
Layer_1
 62
7
100
AcDbPolyline
 90
2
 70
0
 10
11.905537
 20
63.935675
 30
0.0
 10
7.132331
 20
63.935675
 30
0.0
  0
SPLINE
  5
16e
100
AcDbEntity
  8
Layer_1
 62
7
100
AcDbSpline
 70
8
 71
3
 72
8
 73
4
 74
0
 40
0
 40
0
 40
0
 40
0
 40
1
 40
1
 40
1
 40
1
 10
4.880539
 20
20.115166
 30
0.0
 10
4.880539
 20
20.668928
 30
0.0
 10
4.585111
 20
21.180624
 30
0.0
 10
4.105540
 20
21.457505
 30
0.0
  0
SPLINE
  5
16f
100
AcDbEntity
  8
Layer_1
 62
7
100
AcDbSpline
 70
8
 71
3
 72
8
 73
4
 74
0
 40
0
 40
0
 40
0
 40
0
 40
1
 40
1
 40
1
 40
1
 10
4.105540
 20
21.457505
 30
0.0
 10
3.625969
 20
21.734385
 30
0.0
 10
3.035112
 20
21.734385
 30
0.0
 10
2.555541
 20
21.457505
 30
0.0
  0
SPLINE
  5
170
100
AcDbEntity
  8
Layer_1
 62
7
100
AcDbSpline
 70
8
 71
3
 72
8
 73
4
 74
0
 40
0
 40
0
 40
0
 40
0
 40
1
 40
1
 40
1
 40
1
 10
2.555541
 20
21.457505
 30
0.0
 10
2.075970
 20
21.180624
 30
0.0
 10
1.780542
 20
20.668928
 30
0.0
 10
1.780542
 20
20.115166
 30
0.0
  0
SPLINE
  5
171
100
AcDbEntity
  8
Layer_1
 62
7
100
AcDbSpline
 70
8
 71
3
 72
8
 73
4
 74
0
 40
0
 40
0
 40
0
 40
0
 40
1
 40
1
 40
1
 40
1
 10
1.780542
 20
20.115166
 30
0.0
 10
1.780542
 20
19.561405
 30
0.0
 10
2.075970
 20
19.049708
 30
0.0
 10
2.555541
 20
18.772828
 30
0.0
  0
SPLINE
  5
172
100
AcDbEntity
  8
Layer_1
 62
7
100
AcDbSpline
 70
8
 71
3
 72
8
 73
4
 74
0
 40
0
 40
0
 40
0
 40
0
 40
1
 40
1
 40
1
 40
1
 10
2.555541
 20
18.772828
 30
0.0
 10
3.035112
 20
18.495947
 30
0.0
 10
3.625969
 20
18.495947
 30
0.0
 10
4.105540
 20
18.772828
 30
0.0
  0
SPLINE
  5
173
100
AcDbEntity
  8
Layer_1
 62
7
100
AcDbSpline
 70
8
 71
3
 72
8
 73
4
 74
0
 40
0
 40
0
 40
0
 40
0
 40
1
 40
1
 40
1
 40
1
 10
4.105540
 20
18.772828
 30
0.0
 10
4.585111
 20
19.049708
 30
0.0
 10
4.880539
 20
19.561405
 30
0.0
 10
4.880539
 20
20.115166
 30
0.0
  0
LWPOLYLINE
  5
174
100
AcDbEntity
  8
Layer_1
 62
7
100
AcDbPolyline
 90
1
 70
1
 10
4.932103
 20
56.194010
 30
0.0
  0
LWPOLYLINE
  5
175
100
AcDbEntity
  8
Layer_1
 62
7
100
AcDbPolyline
 90
1
 70
1
 10
4.880539
 20
20.115166
 30
0.0
  0
LWPOLYLINE
  5
176
100
AcDbEntity
  8
Layer_1
 62
7
100
AcDbPolyline
 90
2
 70
0
 10
124.845767
 20
22.694464
 30
0.0
 10
127.960265
 20
22.694464
 30
0.0
  0
SPLINE
  5
177
100
AcDbEntity
  8
Layer_1
 62
7
100
AcDbSpline
 70
8
 71
3
 72
8
 73
4
 74
0
 40
0
 40
0
 40
0
 40
0
 40
1
 40
1
 40
1
 40
1
 10
127.960265
 20
22.694464
 30
0.0
 10
128.236407
 20
22.694465
 30
0.0
 10
128.460263
 20
22.918321
 30
0.0
 10
128.460264
 20
23.194463
 30
0.0
  0
LWPOLYLINE
  5
178
100
AcDbEntity
  8
Layer_1
 62
7
100
AcDbPolyline
 90
2
 70
0
 10
109.780279
 20
22.694464
 30
0.0
 10
111.445777
 20
22.694464
 30
0.0
  0
SPLINE
  5
179
100
AcDbEntity
  8
Layer_1
 62
7
100
AcDbSpline
 70
8
 71
3
 72
8
 73
4
 74
0
 40
0
 40
0
 40
0
 40
0
 40
1
 40
1
 40
1
 40
1
 10
128.460264
 20
60.594436
 30
0.0
 10
128.460264
 20
60.727044
 30
0.0
 10
128.407586
 20
60.854221
 30
0.0
 10
128.313818
 20
60.947990
 30
0.0
  0
SPLINE
  5
17a
100
AcDbEntity
  8
Layer_1
 62
7
100
AcDbSpline
 70
8
 71
3
 72
8
 73
4
 74
0
 40
0
 40
0
 40
0
 40
0
 40
1
 40
1
 40
1
 40
1
 10
128.313818
 20
60.947990
 30
0.0
 10
128.220051
 20
61.041758
 30
0.0
 10
128.092874
 20
61.094437
 30
0.0
 10
127.960265
 20
61.094437
 30
0.0
  0
LWPOLYLINE
  5
17b
100
AcDbEntity
  8
Layer_1
 62
7
100
AcDbPolyline
 90
2
 70
0
 10
128.460264
 20
23.194463
 30
0.0
 10
128.460264
 20
60.594436
 30
0.0
  0
SPLINE
  5
17c
100
AcDbEntity
  8
Layer_1
 62
7
100
AcDbSpline
 70
8
 71
3
 72
8
 73
4
 74
0
 40
0
 40
0
 40
0
 40
0
 40
1
 40
1
 40
1
 40
1
 10
109.280277
 20
23.194463
 30
0.0
 10
109.280278
 20
23.061854
 30
0.0
 10
109.332956
 20
22.934677
 30
0.0
 10
109.426725
 20
22.840910
 30
0.0
  0
SPLINE
  5
17d
100
AcDbEntity
  8
Layer_1
 62
7
100
AcDbSpline
 70
8
 71
3
 72
8
 73
4
 74
0
 40
0
 40
0
 40
0
 40
0
 40
1
 40
1
 40
1
 40
1
 10
109.426725
 20
22.840910
 30
0.0
 10
109.520493
 20
22.747142
 30
0.0
 10
109.647670
 20
22.694464
 30
0.0
 10
109.780279
 20
22.694464
 30
0.0
  0
LWPOLYLINE
  5
17e
100
AcDbEntity
  8
Layer_1
 62
7
100
AcDbPolyline
 90
2
 70
0
 10
127.960265
 20
61.094437
 30
0.0
 10
125.820267
 20
61.094437
 30
0.0
  0
SPLINE
  5
17f
100
AcDbEntity
  8
Layer_1
 62
7
100
AcDbSpline
 70
8
 71
3
 72
8
 73
4
 74
0
 40
0
 40
0
 40
0
 40
0
 40
1
 40
1
 40
1
 40
1
 10
109.780279
 20
61.094437
 30
0.0
 10
109.647670
 20
61.094437
 30
0.0
 10
109.520492
 20
61.041759
 30
0.0
 10
109.426724
 20
60.947990
 30
0.0
  0
SPLINE
  5
180
100
AcDbEntity
  8
Layer_1
 62
7
100
AcDbSpline
 70
8
 71
3
 72
8
 73
4
 74
0
 40
0
 40
0
 40
0
 40
0
 40
1
 40
1
 40
1
 40
1
 10
109.426724
 20
60.947990
 30
0.0
 10
109.332955
 20
60.854222
 30
0.0
 10
109.280277
 20
60.727044
 30
0.0
 10
109.280277
 20
60.594436
 30
0.0
  0
LWPOLYLINE
  5
181
100
AcDbEntity
  8
Layer_1
 62
7
100
AcDbPolyline
 90
2
 70
0
 10
109.280277
 20
60.594436
 30
0.0
 10
109.280277
 20
23.194463
 30
0.0
  0
LWPOLYLINE
  5
182
100
AcDbEntity
  8
Layer_1
 62
7
100
AcDbPolyline
 90
2
 70
0
 10
111.920275
 20
61.094437
 30
0.0
 10
109.780279
 20
61.094437
 30
0.0
  0
LWPOLYLINE
  5
183
100
AcDbEntity
  8
Layer_1
 62
7
100
AcDbPolyline
 90
2
 70
0
 10
111.920275
 20
63.935975
 30
0.0
 10
111.920275
 20
61.094437
 30
0.0
  0
LWPOLYLINE
  5
184
100
AcDbEntity
  8
Layer_1
 62
7
100
AcDbPolyline
 90
2
 70
0
 10
125.820267
 20
61.094437
 30
0.0
 10
125.820267
 20
63.935975
 30
0.0
  0
SPLINE
  5
185
100
AcDbEntity
  8
Layer_1
 62
7
100
AcDbSpline
 70
8
 71
3
 72
8
 73
4
 74
0
 40
0
 40
0
 40
0
 40
0
 40
1
 40
1
 40
1
 40
1
 10
115.605772
 20
6.215485
 30
0.0
 10
115.605768
 20
6.122656
 30
0.0
 10
115.642641
 20
6.033627
 30
0.0
 10
115.708279
 20
5.967986
 30
0.0
  0
SPLINE
  5
186
100
AcDbEntity
  8
Layer_1
 62
7
100
AcDbSpline
 70
8
 71
3
 72
8
 73
4
 74
0
 40
0
 40
0
 40
0
 40
0
 40
1
 40
1
 40
1
 40
1
 10
115.708279
 20
5.967986
 30
0.0
 10
115.773918
 20
5.902345
 30
0.0
 10
115.862945
 20
5.865467
 30
0.0
 10
115.955774
 20
5.865468
 30
0.0
  0
LWPOLYLINE
  5
187
100
AcDbEntity
  8
Layer_1
 62
7
100
AcDbPolyline
 90
2
 70
0
 10
115.605772
 20
12.565470
 30
0.0
 10
115.605772
 20
6.215485
 30
0.0
  0
SPLINE
  5
188
100
AcDbEntity
  8
Layer_1
 62
7
100
AcDbSpline
 70
8
 71
3
 72
8
 73
4
 74
0
 40
0
 40
0
 40
0
 40
0
 40
1
 40
1
 40
1
 40
1
 10
129.500780
 20
5.627872
 30
0.0
 10
129.125577
 20
5.784709
 30
0.0
 10
128.722962
 20
5.865470
 30
0.0
 10
128.316299
 20
5.865468
 30
0.0
  0
SPLINE
  5
189
100
AcDbEntity
  8
Layer_1
 62
7
100
AcDbSpline
 70
8
 71
3
 72
8
 73
4
 74
0
 40
0
 40
0
 40
0
 40
0
 40
1
 40
1
 40
1
 40
1
 10
129.500780
 20
5.627872
 30
0.0
 10
131.030822
 20
4.988301
 30
0.0
 10
132.581126
 20
4.398326
 30
0.0
 10
134.149267
 20
3.858869
 30
0.0
  0
LWPOLYLINE
  5
18a
100
AcDbEntity
  8
Layer_1
 62
7
100
AcDbPolyline
 90
2
 70
0
 10
115.955774
 20
5.865468
 30
0.0
 10
128.316299
 20
5.865468
 30
0.0
  0
SPLINE
  5
18b
100
AcDbEntity
  8
Layer_1
 62
7
100
AcDbSpline
 70
8
 71
3
 72
8
 73
4
 74
0
 40
0
 40
0
 40
0
 40
0
 40
1
 40
1
 40
1
 40
1
 10
136.006199
 20
3.220060
 30
0.0
 10
136.056007
 20
3.205508
 30
0.0
 10
136.102502
 20
3.181457
 30
0.0
 10
136.143110
 20
3.149151
 30
0.0
  0
SPLINE
  5
18c
100
AcDbEntity
  8
Layer_1
 62
7
100
AcDbSpline
 70
8
 71
3
 72
8
 73
4
 74
0
 40
0
 40
0
 40
0
 40
0
 40
1
 40
1
 40
1
 40
1
 10
136.143110
 20
3.149151
 30
0.0
 10
136.183869
 20
3.116740
 30
0.0
 10
136.217916
 20
3.076682
 30
0.0
 10
136.243366
 20
3.031253
 30
0.0
  0
SPLINE
  5
18d
100
AcDbEntity
  8
Layer_1
 62
7
100
AcDbSpline
 70
8
 71
3
 72
8
 73
4
 74
0
 40
0
 40
0
 40
0
 40
0
 40
1
 40
1
 40
1
 40
1
 10
136.243366
 20
3.031253
 30
0.0
 10
136.260114
 20
3.001329
 30
0.0
 10
136.272984
 20
2.969394
 30
0.0
 10
136.281635
 20
2.936188
 30
0.0
  0
SPLINE
  5
18e
100
AcDbEntity
  8
Layer_1
 62
7
100
AcDbSpline
 70
8
 71
3
 72
8
 73
4
 74
0
 40
0
 40
0
 40
0
 40
0
 40
1
 40
1
 40
1
 40
1
 10
136.281635
 20
2.936188
 30
0.0
 10
136.290287
 20
2.903036
 30
0.0
 10
136.294653
 20
2.868931
 30
0.0
 10
136.294653
 20
2.834668
 30
0.0
  0
SPLINE
  5
18f
100
AcDbEntity
  8
Layer_1
 62
7
100
AcDbSpline
 70
8
 71
3
 72
8
 73
4
 74
0
 40
0
 40
0
 40
0
 40
0
 40
1
 40
1
 40
1
 40
1
 10
115.955774
 20
12.915471
 30
0.0
 10
115.862947
 20
12.915471
 30
0.0
 10
115.773923
 20
12.878596
 30
0.0
 10
115.708285
 20
12.812958
 30
0.0
  0
SPLINE
  5
190
100
AcDbEntity
  8
Layer_1
 62
7
100
AcDbSpline
 70
8
 71
3
 72
8
 73
4
 74
0
 40
0
 40
0
 40
0
 40
0
 40
1
 40
1
 40
1
 40
1
 10
115.708285
 20
12.812958
 30
0.0
 10
115.642647
 20
12.747320
 30
0.0
 10
115.605772
 20
12.658296
 30
0.0
 10
115.605772
 20
12.565470
 30
0.0
  0
LWPOLYLINE
  5
191
100
AcDbEntity
  8
Layer_1
 62
7
100
AcDbPolyline
 90
2
 70
0
 10
134.149267
 20
3.858869
 30
0.0
 10
136.006199
 20
3.220060
 30
0.0
  0
SPLINE
  5
192
100
AcDbEntity
  8
Layer_1
 62
7
100
AcDbSpline
 70
8
 71
3
 72
8
 73
4
 74
0
 40
0
 40
0
 40
0
 40
0
 40
1
 40
1
 40
1
 40
1
 10
127.161478
 20
12.915471
 30
0.0
 10
127.827981
 20
12.915471
 30
0.0
 10
128.491067
 20
13.010660
 30
0.0
 10
129.130654
 20
13.198154
 30
0.0
  0
LWPOLYLINE
  5
193
100
AcDbEntity
  8
Layer_1
 62
7
100
AcDbPolyline
 90
2
 70
0
 10
127.161478
 20
12.915471
 30
0.0
 10
115.955774
 20
12.915471
 30
0.0
  0
SPLINE
  5
194
100
AcDbEntity
  8
Layer_1
 62
7
100
AcDbSpline
 70
8
 71
3
 72
8
 73
4
 74
0
 40
0
 40
0
 40
0
 40
0
 40
1
 40
1
 40
1
 40
1
 10
136.006493
 20
15.210740
 30
0.0
 10
135.061344
 20
14.934542
 30
0.0
 10
134.098668
 20
14.653089
 30
0.0
 10
133.152416
 20
14.376237
 30
0.0
  0
SPLINE
  5
195
100
AcDbEntity
  8
Layer_1
 62
7
100
AcDbSpline
 70
8
 71
3
 72
8
 73
4
 74
0
 40
0
 40
0
 40
0
 40
0
 40
1
 40
1
 40
1
 40
1
 10
133.152416
 20
14.376237
 30
0.0
 10
132.204452
 20
14.098885
 30
0.0
 10
131.233114
 20
13.814490
 30
0.0
 10
130.285303
 20
13.536641
 30
0.0
  0
SPLINE
  5
196
100
AcDbEntity
  8
Layer_1
 62
7
100
AcDbSpline
 70
8
 71
3
 72
8
 73
4
 74
0
 40
0
 40
0
 40
0
 40
0
 40
1
 40
1
 40
1
 40
1
 10
136.294653
 20
15.596037
 30
0.0
 10
136.294653
 20
15.543705
 30
0.0
 10
136.284440
 20
15.491863
 30
0.0
 10
136.264596
 20
15.443441
 30
0.0
  0
SPLINE
  5
197
100
AcDbEntity
  8
Layer_1
 62
7
100
AcDbSpline
 70
8
 71
3
 72
8
 73
4
 74
0
 40
0
 40
0
 40
0
 40
0
 40
1
 40
1
 40
1
 40
1
 10
136.264596
 20
15.443441
 30
0.0
 10
136.244753
 20
15.395036
 30
0.0
 10
136.215659
 20
15.350961
 30
0.0
 10
136.178922
 20
15.313727
 30
0.0
  0
SPLINE
  5
198
100
AcDbEntity
  8
Layer_1
 62
7
100
AcDbSpline
 70
8
 71
3
 72
8
 73
4
 74
0
 40
0
 40
0
 40
0
 40
0
 40
1
 40
1
 40
1
 40
1
 10
136.178922
 20
15.313727
 30
0.0
 10
136.155109
 20
15.289597
 30
0.0
 10
136.128336
 20
15.268581
 30
0.0
 10
136.099229
 20
15.251198
 30
0.0
  0
SPLINE
  5
199
100
AcDbEntity
  8
Layer_1
 62
7
100
AcDbSpline
 70
8
 71
3
 72
8
 73
4
 74
0
 40
0
 40
0
 40
0
 40
0
 40
1
 40
1
 40
1
 40
1
 10
136.099229
 20
15.251198
 30
0.0
 10
136.070159
 20
15.233841
 30
0.0
 10
136.038997
 20
15.220239
 30
0.0
 10
136.006493
 20
15.210740
 30
0.0
  0
LWPOLYLINE
  5
19a
100
AcDbEntity
  8
Layer_1
 62
7
100
AcDbPolyline
 90
2
 70
0
 10
130.285303
 20
13.536641
 30
0.0
 10
129.130654
 20
13.198154
 30
0.0
  0
LWPOLYLINE
  5
19b
100
AcDbEntity
  8
Layer_1
 62
7
100
AcDbPolyline
 90
2
 70
0
 10
111.445777
 20
22.694464
 30
0.0
 10
111.445777
 20
15.900964
 30
0.0
  0
LWPOLYLINE
  5
19c
100
AcDbEntity
  8
Layer_1
 62
7
100
AcDbPolyline
 90
2
 70
0
 10
124.845767
 20
15.900964
 30
0.0
 10
124.845767
 20
22.694464
 30
0.0
  0
LWPOLYLINE
  5
19d
100
AcDbEntity
  8
Layer_1
 62
7
100
AcDbPolyline
 90
2
 70
0
 10
125.820267
 20
63.935975
 30
0.0
 10
129.294656
 20
63.935975
 30
0.0
  0
SPLINE
  5
19e
100
AcDbEntity
  8
Layer_1
 62
7
100
AcDbSpline
 70
8
 71
3
 72
8
 73
4
 74
0
 40
0
 40
0
 40
0
 40
0
 40
1
 40
1
 40
1
 40
1
 10
129.054653
 20
3.845984
 30
0.0
 10
128.905055
 20
3.930049
 30
0.0
 10
128.736342
 20
3.974204
 30
0.0
 10
128.564743
 20
3.974201
 30
0.0
  0
LWPOLYLINE
  5
19f
100
AcDbEntity
  8
Layer_1
 62
7
100
AcDbPolyline
 90
2
 70
0
 10
136.294653
 20
2.834668
 30
0.0
 10
136.294653
 20
0.631828
 30
0.0
  0
SPLINE
  5
1a0
100
AcDbEntity
  8
Layer_1
 62
7
100
AcDbSpline
 70
8
 71
3
 72
8
 73
4
 74
0
 40
0
 40
0
 40
0
 40
0
 40
1
 40
1
 40
1
 40
1
 10
104.901252
 20
4.474210
 30
0.0
 10
104.901249
 20
4.341601
 30
0.0
 10
104.953926
 20
4.214421
 30
0.0
 10
105.047694
 20
4.120651
 30
0.0
  0
SPLINE
  5
1a1
100
AcDbEntity
  8
Layer_1
 62
7
100
AcDbSpline
 70
8
 71
3
 72
8
 73
4
 74
0
 40
0
 40
0
 40
0
 40
0
 40
1
 40
1
 40
1
 40
1
 10
105.047694
 20
4.120651
 30
0.0
 10
105.141463
 20
4.026881
 30
0.0
 10
105.268641
 20
3.974201
 30
0.0
 10
105.401250
 20
3.974201
 30
0.0
  0
LWPOLYLINE
  5
1a2
100
AcDbEntity
  8
Layer_1
 62
7
100
AcDbPolyline
 90
2
 70
0
 10
105.401250
 20
3.974201
 30
0.0
 10
128.564743
 20
3.974201
 30
0.0
  0
SPLINE
  5
1a3
100
AcDbEntity
  8
Layer_1
 62
7
100
AcDbSpline
 70
8
 71
3
 72
8
 73
4
 74
0
 40
0
 40
0
 40
0
 40
0
 40
1
 40
1
 40
1
 40
1
 10
111.445777
 20
15.900964
 30
0.0
 10
111.445777
 20
15.624822
 30
0.0
 10
111.669634
 20
15.400966
 30
0.0
 10
111.945775
 20
15.400965
 30
0.0
  0
LWPOLYLINE
  5
1a4
100
AcDbEntity
  8
Layer_1
 62
7
100
AcDbPolyline
 90
2
 70
0
 10
104.901252
 20
63.935975
 30
0.0
 10
104.901252
 20
4.474210
 30
0.0
  0
SPLINE
  5
1a5
100
AcDbEntity
  8
Layer_1
 62
7
100
AcDbSpline
 70
8
 71
3
 72
8
 73
4
 74
0
 40
0
 40
0
 40
0
 40
0
 40
1
 40
1
 40
1
 40
1
 10
124.345766
 20
15.400965
 30
0.0
 10
124.478374
 20
15.400965
 30
0.0
 10
124.605551
 20
15.453643
 30
0.0
 10
124.699320
 20
15.547411
 30
0.0
  0
SPLINE
  5
1a6
100
AcDbEntity
  8
Layer_1
 62
7
100
AcDbSpline
 70
8
 71
3
 72
8
 73
4
 74
0
 40
0
 40
0
 40
0
 40
0
 40
1
 40
1
 40
1
 40
1
 10
124.699320
 20
15.547411
 30
0.0
 10
124.793088
 20
15.641179
 30
0.0
 10
124.845767
 20
15.768355
 30
0.0
 10
124.845767
 20
15.900964
 30
0.0
  0
SPLINE
  5
1a7
100
AcDbEntity
  8
Layer_1
 62
7
100
AcDbSpline
 70
8
 71
3
 72
8
 73
4
 74
0
 40
0
 40
0
 40
0
 40
0
 40
1
 40
1
 40
1
 40
1
 10
136.294653
 20
56.935981
 30
0.0
 10
136.294653
 20
58.792495
 30
0.0
 10
135.557155
 20
60.572972
 30
0.0
 10
134.244401
 20
61.885725
 30
0.0
  0
SPLINE
  5
1a8
100
AcDbEntity
  8
Layer_1
 62
7
100
AcDbSpline
 70
8
 71
3
 72
8
 73
4
 74
0
 40
0
 40
0
 40
0
 40
0
 40
1
 40
1
 40
1
 40
1
 10
134.244401
 20
61.885725
 30
0.0
 10
132.931647
 20
63.198479
 30
0.0
 10
131.151170
 20
63.935976
 30
0.0
 10
129.294656
 20
63.935975
 30
0.0
  0
LWPOLYLINE
  5
1a9
100
AcDbEntity
  8
Layer_1
 62
7
100
AcDbPolyline
 90
2
 70
0
 10
111.945775
 20
15.400965
 30
0.0
 10
124.345766
 20
15.400965
 30
0.0
  0
SPLINE
  5
1aa
100
AcDbEntity
  8
Layer_1
 62
7
100
AcDbSpline
 70
8
 71
3
 72
8
 73
4
 74
0
 40
0
 40
0
 40
0
 40
0
 40
1
 40
1
 40
1
 40
1
 10
135.549698
 20
0.195954
 30
0.0
 10
135.704519
 20
0.108949
 30
0.0
 10
135.893874
 20
0.110596
 30
0.0
 10
136.047158
 20
0.200283
 30
0.0
  0
SPLINE
  5
1ab
100
AcDbEntity
  8
Layer_1
 62
7
100
AcDbSpline
 70
8
 71
3
 72
8
 73
4
 74
0
 40
0
 40
0
 40
0
 40
0
 40
1
 40
1
 40
1
 40
1
 10
136.047158
 20
0.200283
 30
0.0
 10
136.200442
 20
0.289970
 30
0.0
 10
136.294649
 20
0.454234
 30
0.0
 10
136.294653
 20
0.631828
 30
0.0
  0
LWPOLYLINE
  5
1ac
100
AcDbEntity
  8
Layer_1
 62
7
100
AcDbPolyline
 90
2
 70
0
 10
136.294653
 20
56.935981
 30
0.0
 10
136.294653
 20
15.596037
 30
0.0
  0
LWPOLYLINE
  5
1ad
100
AcDbEntity
  8
Layer_1
 62
7
100
AcDbPolyline
 90
2
 70
0
 10
129.054653
 20
3.845984
 30
0.0
 10
135.549698
 20
0.195954
 30
0.0
  0
SPLINE
  5
1ae
100
AcDbEntity
  8
Layer_1
 62
7
100
AcDbSpline
 70
8
 71
3
 72
8
 73
4
 74
0
 40
0
 40
0
 40
0
 40
0
 40
1
 40
1
 40
1
 40
1
 10
134.594884
 20
56.194310
 30
0.0
 10
134.594884
 20
56.748071
 30
0.0
 10
134.299455
 20
57.259768
 30
0.0
 10
133.819884
 20
57.536648
 30
0.0
  0
SPLINE
  5
1af
100
AcDbEntity
  8
Layer_1
 62
7
100
AcDbSpline
 70
8
 71
3
 72
8
 73
4
 74
0
 40
0
 40
0
 40
0
 40
0
 40
1
 40
1
 40
1
 40
1
 10
133.819884
 20
57.536648
 30
0.0
 10
133.340312
 20
57.813529
 30
0.0
 10
132.749456
 20
57.813529
 30
0.0
 10
132.269884
 20
57.536648
 30
0.0
  0
SPLINE
  5
1b0
100
AcDbEntity
  8
Layer_1
 62
7
100
AcDbSpline
 70
8
 71
3
 72
8
 73
4
 74
0
 40
0
 40
0
 40
0
 40
0
 40
1
 40
1
 40
1
 40
1
 10
132.269884
 20
57.536648
 30
0.0
 10
131.790313
 20
57.259768
 30
0.0
 10
131.494885
 20
56.748071
 30
0.0
 10
131.494885
 20
56.194310
 30
0.0
  0
SPLINE
  5
1b1
100
AcDbEntity
  8
Layer_1
 62
7
100
AcDbSpline
 70
8
 71
3
 72
8
 73
4
 74
0
 40
0
 40
0
 40
0
 40
0
 40
1
 40
1
 40
1
 40
1
 10
131.494885
 20
56.194310
 30
0.0
 10
131.494885
 20
55.640548
 30
0.0
 10
131.790313
 20
55.128851
 30
0.0
 10
132.269884
 20
54.851971
 30
0.0
  0
SPLINE
  5
1b2
100
AcDbEntity
  8
Layer_1
 62
7
100
AcDbSpline
 70
8
 71
3
 72
8
 73
4
 74
0
 40
0
 40
0
 40
0
 40
0
 40
1
 40
1
 40
1
 40
1
 10
132.269884
 20
54.851971
 30
0.0
 10
132.749456
 20
54.575090
 30
0.0
 10
133.340312
 20
54.575090
 30
0.0
 10
133.819884
 20
54.851971
 30
0.0
  0
SPLINE
  5
1b3
100
AcDbEntity
  8
Layer_1
 62
7
100
AcDbSpline
 70
8
 71
3
 72
8
 73
4
 74
0
 40
0
 40
0
 40
0
 40
0
 40
1
 40
1
 40
1
 40
1
 10
133.819884
 20
54.851971
 30
0.0
 10
134.299455
 20
55.128851
 30
0.0
 10
134.594884
 20
55.640548
 30
0.0
 10
134.594884
 20
56.194310
 30
0.0
  0
LWPOLYLINE
  5
1b4
100
AcDbEntity
  8
Layer_1
 62
7
100
AcDbPolyline
 90
2
 70
0
 10
104.901252
 20
63.935975
 30
0.0
 10
111.920275
 20
63.935975
 30
0.0
  0
SPLINE
  5
1b5
100
AcDbEntity
  8
Layer_1
 62
7
100
AcDbSpline
 70
8
 71
3
 72
8
 73
4
 74
0
 40
0
 40
0
 40
0
 40
0
 40
1
 40
1
 40
1
 40
1
 10
134.646448
 20
20.115466
 30
0.0
 10
134.646448
 20
20.669228
 30
0.0
 10
134.351020
 20
21.180924
 30
0.0
 10
133.871448
 20
21.457805
 30
0.0
  0
SPLINE
  5
1b6
100
AcDbEntity
  8
Layer_1
 62
7
100
AcDbSpline
 70
8
 71
3
 72
8
 73
4
 74
0
 40
0
 40
0
 40
0
 40
0
 40
1
 40
1
 40
1
 40
1
 10
133.871448
 20
21.457805
 30
0.0
 10
133.391877
 20
21.734686
 30
0.0
 10
132.801020
 20
21.734686
 30
0.0
 10
132.321449
 20
21.457805
 30
0.0
  0
SPLINE
  5
1b7
100
AcDbEntity
  8
Layer_1
 62
7
100
AcDbSpline
 70
8
 71
3
 72
8
 73
4
 74
0
 40
0
 40
0
 40
0
 40
0
 40
1
 40
1
 40
1
 40
1
 10
132.321449
 20
21.457805
 30
0.0
 10
131.841877
 20
21.180924
 30
0.0
 10
131.546449
 20
20.669228
 30
0.0
 10
131.546449
 20
20.115466
 30
0.0
  0
SPLINE
  5
1b8
100
AcDbEntity
  8
Layer_1
 62
7
100
AcDbSpline
 70
8
 71
3
 72
8
 73
4
 74
0
 40
0
 40
0
 40
0
 40
0
 40
1
 40
1
 40
1
 40
1
 10
131.546449
 20
20.115466
 30
0.0
 10
131.546449
 20
19.561705
 30
0.0
 10
131.841877
 20
19.050008
 30
0.0
 10
132.321449
 20
18.773127
 30
0.0
  0
SPLINE
  5
1b9
100
AcDbEntity
  8
Layer_1
 62
7
100
AcDbSpline
 70
8
 71
3
 72
8
 73
4
 74
0
 40
0
 40
0
 40
0
 40
0
 40
1
 40
1
 40
1
 40
1
 10
132.321449
 20
18.773127
 30
0.0
 10
132.801020
 20
18.496247
 30
0.0
 10
133.391877
 20
18.496247
 30
0.0
 10
133.871448
 20
18.773127
 30
0.0
  0
SPLINE
  5
1ba
100
AcDbEntity
  8
Layer_1
 62
7
100
AcDbSpline
 70
8
 71
3
 72
8
 73
4
 74
0
 40
0
 40
0
 40
0
 40
0
 40
1
 40
1
 40
1
 40
1
 10
133.871448
 20
18.773127
 30
0.0
 10
134.351020
 20
19.050008
 30
0.0
 10
134.646448
 20
19.561705
 30
0.0
 10
134.646448
 20
20.115466
 30
0.0
  0
LWPOLYLINE
  5
1bb
100
AcDbEntity
  8
Layer_1
 62
7
100
AcDbPolyline
 90
1
 70
1
 10
134.594884
 20
56.194310
 30
0.0
  0
LWPOLYLINE
  5
1bc
100
AcDbEntity
  8
Layer_1
 62
7
100
AcDbPolyline
 90
1
 70
1
 10
134.646448
 20
20.115466
 30
0.0
  0
SPLINE
  5
1bd
100
AcDbEntity
  8
Layer_1
 62
7
100
AcDbSpline
 70
8
 71
3
 72
8
 73
4
 74
0
 40
0
 40
0
 40
0
 40
0
 40
1
 40
1
 40
1
 40
1
 10
89.540703
 20
15.400965
 30
0.0
 10
89.816844
 20
15.400966
 30
0.0
 10
90.040701
 20
15.624822
 30
0.0
 10
90.040701
 20
15.900964
 30
0.0
  0
LWPOLYLINE
  5
1be
100
AcDbEntity
  8
Layer_1
 62
7
100
AcDbPolyline
 90
2
 70
0
 10
77.140712
 20
15.400965
 30
0.0
 10
89.540703
 20
15.400965
 30
0.0
  0
SPLINE
  5
1bf
100
AcDbEntity
  8
Layer_1
 62
7
100
AcDbSpline
 70
8
 71
3
 72
8
 73
4
 74
0
 40
0
 40
0
 40
0
 40
0
 40
1
 40
1
 40
1
 40
1
 10
90.040701
 20
54.800935
 30
0.0
 10
90.040702
 20
54.933544
 30
0.0
 10
89.988024
 20
55.060721
 30
0.0
 10
89.894256
 20
55.154489
 30
0.0
  0
SPLINE
  5
1c0
100
AcDbEntity
  8
Layer_1
 62
7
100
AcDbSpline
 70
8
 71
3
 72
8
 73
4
 74
0
 40
0
 40
0
 40
0
 40
0
 40
1
 40
1
 40
1
 40
1
 10
89.894256
 20
55.154489
 30
0.0
 10
89.800488
 20
55.248258
 30
0.0
 10
89.673311
 20
55.300936
 30
0.0
 10
89.540703
 20
55.300937
 30
0.0
  0
LWPOLYLINE
  5
1c1
100
AcDbEntity
  8
Layer_1
 62
7
100
AcDbPolyline
 90
2
 70
0
 10
90.040701
 20
15.900964
 30
0.0
 10
90.040701
 20
54.800935
 30
0.0
  0
SPLINE
  5
1c2
100
AcDbEntity
  8
Layer_1
 62
7
100
AcDbSpline
 70
8
 71
3
 72
8
 73
4
 74
0
 40
0
 40
0
 40
0
 40
0
 40
1
 40
1
 40
1
 40
1
 10
77.140712
 20
55.300937
 30
0.0
 10
77.008103
 20
55.300937
 30
0.0
 10
76.880926
 20
55.248259
 30
0.0
 10
76.787157
 20
55.154490
 30
0.0
  0
SPLINE
  5
1c3
100
AcDbEntity
  8
Layer_1
 62
7
100
AcDbSpline
 70
8
 71
3
 72
8
 73
4
 74
0
 40
0
 40
0
 40
0
 40
0
 40
1
 40
1
 40
1
 40
1
 10
76.787157
 20
55.154490
 30
0.0
 10
76.693389
 20
55.060722
 30
0.0
 10
76.640710
 20
54.933544
 30
0.0
 10
76.640711
 20
54.800935
 30
0.0
  0
LWPOLYLINE
  5
1c4
100
AcDbEntity
  8
Layer_1
 62
7
100
AcDbPolyline
 90
2
 70
0
 10
89.540703
 20
55.300937
 30
0.0
 10
77.140712
 20
55.300937
 30
0.0
  0
SPLINE
  5
1c5
100
AcDbEntity
  8
Layer_1
 62
7
100
AcDbSpline
 70
8
 71
3
 72
8
 73
4
 74
0
 40
0
 40
0
 40
0
 40
0
 40
1
 40
1
 40
1
 40
1
 10
76.640711
 20
15.900964
 30
0.0
 10
76.640711
 20
15.768355
 30
0.0
 10
76.693390
 20
15.641179
 30
0.0
 10
76.787158
 20
15.547411
 30
0.0
  0
SPLINE
  5
1c6
100
AcDbEntity
  8
Layer_1
 62
7
100
AcDbSpline
 70
8
 71
3
 72
8
 73
4
 74
0
 40
0
 40
0
 40
0
 40
0
 40
1
 40
1
 40
1
 40
1
 10
76.787158
 20
15.547411
 30
0.0
 10
76.880927
 20
15.453643
 30
0.0
 10
77.008104
 20
15.400965
 30
0.0
 10
77.140712
 20
15.400965
 30
0.0
  0
LWPOLYLINE
  5
1c7
100
AcDbEntity
  8
Layer_1
 62
7
100
AcDbPolyline
 90
2
 70
0
 10
76.640711
 20
54.800935
 30
0.0
 10
76.640711
 20
15.900964
 30
0.0
  0
SPLINE
  5
1c8
100
AcDbEntity
  8
Layer_1
 62
7
100
AcDbSpline
 70
8
 71
3
 72
8
 73
4
 74
0
 40
0
 40
0
 40
0
 40
0
 40
1
 40
1
 40
1
 40
1
 10
96.741383
 20
20.115466
 30
0.0
 10
96.741383
 20
20.669228
 30
0.0
 10
97.036811
 20
21.180924
 30
0.0
 10
97.516383
 20
21.457805
 30
0.0
  0
SPLINE
  5
1c9
100
AcDbEntity
  8
Layer_1
 62
7
100
AcDbSpline
 70
8
 71
3
 72
8
 73
4
 74
0
 40
0
 40
0
 40
0
 40
0
 40
1
 40
1
 40
1
 40
1
 10
97.516383
 20
21.457805
 30
0.0
 10
97.995954
 20
21.734686
 30
0.0
 10
98.586811
 20
21.734686
 30
0.0
 10
99.066382
 20
21.457805
 30
0.0
  0
SPLINE
  5
1ca
100
AcDbEntity
  8
Layer_1
 62
7
100
AcDbSpline
 70
8
 71
3
 72
8
 73
4
 74
0
 40
0
 40
0
 40
0
 40
0
 40
1
 40
1
 40
1
 40
1
 10
99.066382
 20
21.457805
 30
0.0
 10
99.545954
 20
21.180924
 30
0.0
 10
99.841382
 20
20.669228
 30
0.0
 10
99.841382
 20
20.115466
 30
0.0
  0
SPLINE
  5
1cb
100
AcDbEntity
  8
Layer_1
 62
7
100
AcDbSpline
 70
8
 71
3
 72
8
 73
4
 74
0
 40
0
 40
0
 40
0
 40
0
 40
1
 40
1
 40
1
 40
1
 10
99.841382
 20
20.115466
 30
0.0
 10
99.841382
 20
19.561705
 30
0.0
 10
99.545954
 20
19.050008
 30
0.0
 10
99.066382
 20
18.773127
 30
0.0
  0
SPLINE
  5
1cc
100
AcDbEntity
  8
Layer_1
 62
7
100
AcDbSpline
 70
8
 71
3
 72
8
 73
4
 74
0
 40
0
 40
0
 40
0
 40
0
 40
1
 40
1
 40
1
 40
1
 10
99.066382
 20
18.773127
 30
0.0
 10
98.586811
 20
18.496246
 30
0.0
 10
97.995954
 20
18.496246
 30
0.0
 10
97.516383
 20
18.773127
 30
0.0
  0
SPLINE
  5
1cd
100
AcDbEntity
  8
Layer_1
 62
7
100
AcDbSpline
 70
8
 71
3
 72
8
 73
4
 74
0
 40
0
 40
0
 40
0
 40
0
 40
1
 40
1
 40
1
 40
1
 10
97.516383
 20
18.773127
 30
0.0
 10
97.036811
 20
19.050008
 30
0.0
 10
96.741383
 20
19.561705
 30
0.0
 10
96.741383
 20
20.115466
 30
0.0
  0
LWPOLYLINE
  5
1ce
100
AcDbEntity
  8
Layer_1
 62
7
100
AcDbPolyline
 90
1
 70
1
 10
77.140712
 20
15.400965
 30
0.0
  0
SPLINE
  5
1cf
100
AcDbEntity
  8
Layer_1
 62
7
100
AcDbSpline
 70
8
 71
3
 72
8
 73
4
 74
0
 40
0
 40
0
 40
0
 40
0
 40
1
 40
1
 40
1
 40
1
 10
96.689821
 20
56.194310
 30
0.0
 10
96.689260
 20
56.748444
 30
0.0
 10
96.984566
 20
57.260726
 30
0.0
 10
97.464367
 20
57.537955
 30
0.0
  0
SPLINE
  5
1d0
100
AcDbEntity
  8
Layer_1
 62
7
100
AcDbSpline
 70
8
 71
3
 72
8
 73
4
 74
0
 40
0
 40
0
 40
0
 40
0
 40
1
 40
1
 40
1
 40
1
 10
97.464367
 20
57.537955
 30
0.0
 10
97.944169
 20
57.815184
 30
0.0
 10
98.535470
 20
57.815184
 30
0.0
 10
99.015272
 20
57.537955
 30
0.0
  0
SPLINE
  5
1d1
100
AcDbEntity
  8
Layer_1
 62
7
100
AcDbSpline
 70
8
 71
3
 72
8
 73
4
 74
0
 40
0
 40
0
 40
0
 40
0
 40
1
 40
1
 40
1
 40
1
 10
99.015272
 20
57.537955
 30
0.0
 10
99.495073
 20
57.260726
 30
0.0
 10
99.790378
 20
56.748444
 30
0.0
 10
99.789818
 20
56.194310
 30
0.0
  0
SPLINE
  5
1d2
100
AcDbEntity
  8
Layer_1
 62
7
100
AcDbSpline
 70
8
 71
3
 72
8
 73
4
 74
0
 40
0
 40
0
 40
0
 40
0
 40
1
 40
1
 40
1
 40
1
 10
99.789818
 20
56.194310
 30
0.0
 10
99.790378
 20
55.640175
 30
0.0
 10
99.495073
 20
55.127893
 30
0.0
 10
99.015272
 20
54.850664
 30
0.0
  0
SPLINE
  5
1d3
100
AcDbEntity
  8
Layer_1
 62
7
100
AcDbSpline
 70
8
 71
3
 72
8
 73
4
 74
0
 40
0
 40
0
 40
0
 40
0
 40
1
 40
1
 40
1
 40
1
 10
99.015272
 20
54.850664
 30
0.0
 10
98.535470
 20
54.573435
 30
0.0
 10
97.944169
 20
54.573435
 30
0.0
 10
97.464367
 20
54.850664
 30
0.0
  0
SPLINE
  5
1d4
100
AcDbEntity
  8
Layer_1
 62
7
100
AcDbSpline
 70
8
 71
3
 72
8
 73
4
 74
0
 40
0
 40
0
 40
0
 40
0
 40
1
 40
1
 40
1
 40
1
 10
97.464367
 20
54.850664
 30
0.0
 10
96.984566
 20
55.127893
 30
0.0
 10
96.689260
 20
55.640175
 30
0.0
 10
96.689821
 20
56.194310
 30
0.0
  0
LWPOLYLINE
  5
1d5
100
AcDbEntity
  8
Layer_1
 62
7
100
AcDbPolyline
 90
1
 70
1
 10
96.741383
 20
20.115466
 30
0.0
  0
LWPOLYLINE
  5
1d6
100
AcDbEntity
  8
Layer_1
 62
7
100
AcDbPolyline
 90
1
 70
1
 10
96.689821
 20
56.194310
 30
0.0
  0
SPLINE
  5
1d7
100
AcDbEntity
  8
Layer_1
 62
7
100
AcDbSpline
 70
8
 71
3
 72
8
 73
4
 74
0
 40
0
 40
0
 40
0
 40
0
 40
1
 40
1
 40
1
 40
1
 10
70.596187
 20
3.974201
 30
0.0
 10
70.463577
 20
3.974201
 30
0.0
 10
70.336398
 20
4.026880
 30
0.0
 10
70.242629
 20
4.120650
 30
0.0
  0
SPLINE
  5
1d8
100
AcDbEntity
  8
Layer_1
 62
7
100
AcDbSpline
 70
8
 71
3
 72
8
 73
4
 74
0
 40
0
 40
0
 40
0
 40
0
 40
1
 40
1
 40
1
 40
1
 10
70.242629
 20
4.120650
 30
0.0
 10
70.148861
 20
4.214421
 30
0.0
 10
70.096183
 20
4.341600
 30
0.0
 10
70.096186
 20
4.474210
 30
0.0
  0
LWPOLYLINE
  5
1d9
100
AcDbEntity
  8
Layer_1
 62
7
100
AcDbPolyline
 90
2
 70
0
 10
93.759677
 20
3.974201
 30
0.0
 10
70.596187
 20
3.974201
 30
0.0
  0
SPLINE
  5
1da
100
AcDbEntity
  8
Layer_1
 62
7
100
AcDbSpline
 70
8
 71
3
 72
8
 73
4
 74
0
 40
0
 40
0
 40
0
 40
0
 40
1
 40
1
 40
1
 40
1
 10
94.489593
 20
63.935975
 30
0.0
 10
98.355583
 20
63.935975
 30
0.0
 10
101.489587
 20
60.801971
 30
0.0
 10
101.489587
 20
56.935981
 30
0.0
  0
LWPOLYLINE
  5
1db
100
AcDbEntity
  8
Layer_1
 62
7
100
AcDbPolyline
 90
3
 70
0
 10
70.096186
 20
4.474210
 30
0.0
 10
70.096186
 20
63.935975
 30
0.0
 10
94.489593
 20
63.935975
 30
0.0
  0
SPLINE
  5
1dc
100
AcDbEntity
  8
Layer_1
 62
7
100
AcDbSpline
 70
8
 71
3
 72
8
 73
4
 74
0
 40
0
 40
0
 40
0
 40
0
 40
1
 40
1
 40
1
 40
1
 10
101.489587
 20
0.631828
 30
0.0
 10
101.489583
 20
0.454234
 30
0.0
 10
101.395376
 20
0.289970
 30
0.0
 10
101.242092
 20
0.200283
 30
0.0
  0
SPLINE
  5
1dd
100
AcDbEntity
  8
Layer_1
 62
7
100
AcDbSpline
 70
8
 71
3
 72
8
 73
4
 74
0
 40
0
 40
0
 40
0
 40
0
 40
1
 40
1
 40
1
 40
1
 10
101.242092
 20
0.200283
 30
0.0
 10
101.088808
 20
0.110596
 30
0.0
 10
100.899453
 20
0.108949
 30
0.0
 10
100.744632
 20
0.195954
 30
0.0
  0
LWPOLYLINE
  5
1de
100
AcDbEntity
  8
Layer_1
 62
7
100
AcDbPolyline
 90
2
 70
0
 10
101.489587
 20
56.935981
 30
0.0
 10
101.489587
 20
0.631828
 30
0.0
  0
SPLINE
  5
1df
100
AcDbEntity
  8
Layer_1
 62
7
100
AcDbSpline
 70
8
 71
3
 72
8
 73
4
 74
0
 40
0
 40
0
 40
0
 40
0
 40
1
 40
1
 40
1
 40
1
 10
94.249589
 20
3.845984
 30
0.0
 10
94.099991
 20
3.930050
 30
0.0
 10
93.931277
 20
3.974205
 30
0.0
 10
93.759677
 20
3.974201
 30
0.0
  0
LWPOLYLINE
  5
1e0
100
AcDbEntity
  8
Layer_1
 62
7
100
AcDbPolyline
 90
2
 70
0
 10
100.744632
 20
0.195954
 30
0.0
 10
94.249589
 20
3.845984
 30
0.0
  0
LWPOLYLINE
  5
1e1
100
AcDbEntity
  8
Layer_1
 62
7
100
AcDbPolyline
 90
1
 70
1
 10
93.759677
 20
3.974201
 30
0.0
  0
ENDSEC
  0
SECTION
  2
OBJECTS
  0
DICTIONARY
  5
C
330
0
100
AcDbDictionary
  3
ACAD_GROUP
350
D
  3
ACAD_MLINESTYLE
350
17
  0
DICTIONARY
  5
D
330
C
100
AcDbDictionary
  0
DICTIONARY
  5
1A
330
C
100
AcDbDictionary
  0
DICTIONARY
  5
17
330
C
100
AcDbDictionary
  3
STANDARD
350
18
  0
DICTIONARY
  5
19
330
C
100
AcDbDictionary
  0
ENDSEC
  0
EOF
